<svg width="643.820312" height="604.383179" viewBox="0 0 643.82 604.383" fill="none" xmlns="http://www.w3.org/2000/svg" xmlns:xlink="http://www.w3.org/1999/xlink">
	<desc>
			Created with Pixso.
	</desc>
	<defs/>
	<g opacity="0.400000">
		<mask id="mask72_539" mask-type="alpha" maskUnits="userSpaceOnUse" x="0.000000" y="0.000000" width="643.820312" height="604.383179">
			<path id="Vector" d="M640.182 305.253L214.469 2.58691C212.461 1.1582 209.672 1.62903 208.244 3.63861L2.58594 292.905C1.1582 294.914 1.62891 297.701 3.63867 299.13L429.35 601.796C431.359 603.225 434.146 602.754 435.576 600.745L641.234 311.479C642.662 309.469 642.191 306.682 640.182 305.253Z" fill="#000000" fill-opacity="1.000000" fill-rule="evenodd"/>
		</mask>
		<g mask="url(#mask72_539)">
			<g opacity="0.400000">
				<path id="Vector" d="M39.5176 318.278L40.5996 318.448L42.4141 306.789L41.3301 306.619L39.5176 318.278Z" fill="#171717" fill-opacity="1.000000" fill-rule="nonzero"/>
				<path id="Vector" d="M44.3164 321.702L45.3984 321.87L50.2402 290.775L49.1562 290.605L44.3164 321.702Z" fill="#171717" fill-opacity="1.000000" fill-rule="nonzero"/>
				<path id="Vector" d="M50.332 317.348L51.418 317.521L56.2578 286.416L55.1738 286.246L50.332 317.348Z" fill="#171717" fill-opacity="1.000000" fill-rule="nonzero"/>
				<path id="Vector" d="M57.5527 305.226L58.6367 305.396L59.2422 301.507L58.1582 301.337L57.5527 305.226Z" fill="#171717" fill-opacity="1.000000" fill-rule="nonzero"/>
				<path id="Vector" d="M67.1602 312.068L68.2441 312.237L70.6641 296.692L69.5781 296.524L67.1602 312.068Z" fill="#171717" fill-opacity="1.000000" fill-rule="nonzero"/>
				<path id="Vector" d="M63.5156 335.463L64.5996 335.634L66.4238 323.903L65.3418 323.732L63.5156 335.463Z" fill="#171717" fill-opacity="1.000000" fill-rule="nonzero"/>
				<path id="Vector" d="M77.7852 371.072L78.7559 370.557L63.5957 342.077L63.9629 339.742L62.8789 339.573L62.457 342.269L77.7852 371.072Z" fill="#171717" fill-opacity="1.000000" fill-rule="nonzero"/>
				<path id="Vector" d="M83.4863 370.552L84.4551 370.036L69.0762 341.147L76.6738 292.337L75.5898 292.167L67.9375 341.339L83.4863 370.552Z" fill="#171717" fill-opacity="1.000000" fill-rule="nonzero"/>
				<path id="Vector" d="M87.334 366.568L88.3008 366.05L74.5527 340.222L86.0156 266.585L79.4434 254.242L78.4766 254.759L84.875 266.778L73.4121 340.414L87.334 366.568Z" fill="#171717" fill-opacity="1.000000" fill-rule="nonzero"/>
				<path id="Vector" d="M93.0332 366.057L94 365.539L80.0332 339.298L91.4941 265.663L81.4414 246.772L80.4727 247.288L90.3535 265.855L78.8945 339.49L93.0332 366.057Z" fill="#171717" fill-opacity="1.000000" fill-rule="nonzero"/>
				<path id="Vector" d="M96.8809 362.069L97.8496 361.552L85.5117 338.37L96.9746 264.737L83.4414 239.312L82.4727 239.828L95.834 264.928L84.375 338.565L96.8809 362.069Z" fill="#171717" fill-opacity="1.000000" fill-rule="nonzero"/>
				<path id="Vector" d="M100.729 358.081L101.699 357.561L90.9902 337.442L102.451 263.811L92.834 245.742L91.8672 246.259L101.312 264.006L89.8496 337.635L100.729 358.081Z" fill="#171717" fill-opacity="1.000000" fill-rule="nonzero"/>
				<path id="Vector" d="M71.8086 197.098L72.8926 197.268L84.377 123.464L49.3672 57.6832L60.8262 -15.9547L56.8027 -23.5145L55.834 -22.9988L59.6895 -15.7596L48.2285 57.875L83.2344 123.657L71.8086 197.098Z" fill="#171717" fill-opacity="1.000000" fill-rule="nonzero"/>
				<path id="Vector" d="M104.582 354.095L105.547 353.577L96.4707 336.521L107.932 262.888L80.0449 210.497L79.0781 211.015L106.791 263.081L95.332 336.714L104.582 354.095Z" fill="#171717" fill-opacity="1.000000" fill-rule="nonzero"/>
				<path id="Vector" d="M78.4238 198.559L79.3906 198.043L78.3984 196.178L89.8574 122.544L54.8457 56.7601L66.3047 -16.876L61.8418 -25.2654L60.875 -24.7483L65.168 -16.6816L53.7051 56.9513L88.7188 122.738L77.2578 196.37L78.4238 198.559Z" fill="#171717" fill-opacity="1.000000" fill-rule="nonzero"/>
				<path id="Vector" d="M102.613 244.001L103.58 243.485L83.2363 205.263L82.2676 205.778L102.613 244.001Z" fill="#171717" fill-opacity="1.000000" fill-rule="nonzero"/>
				<path id="Vector" d="M109.623 352.346L110.59 351.829L101.951 335.595L113.412 261.961L105.43 246.959L104.461 247.476L112.271 262.154L100.812 335.788L109.623 352.346Z" fill="#171717" fill-opacity="1.000000" fill-rule="nonzero"/>
				<path id="Vector" d="M86.3164 202.169L87.2871 201.655L83.8789 195.252L95.3398 121.618L60.3262 55.8335L71.2969 -14.6398L70.2129 -14.8095L59.1875 56.0259L94.2012 121.812L82.7402 195.445L86.3164 202.169Z" fill="#171717" fill-opacity="1.000000" fill-rule="nonzero"/>
				<path id="Vector" d="M106.682 240.427L107.65 239.91L89.1523 205.161L88.1855 205.677L106.682 240.427Z" fill="#171717" fill-opacity="1.000000" fill-rule="nonzero"/>
				<path id="Vector" d="M113.688 348.768L114.656 348.249L107.432 334.671L118.891 261.037L111.344 246.86L110.377 247.377L117.75 261.229L106.291 334.863L113.688 348.768Z" fill="#171717" fill-opacity="1.000000" fill-rule="nonzero"/>
				<path id="Vector" d="M95.9629 209.066L96.9297 208.549L89.3594 194.327L100.822 120.693L65.8105 54.9095L75.998 -10.5727L74.9141 -10.7425L64.666 55.0988L99.6816 120.886L88.2188 194.519L95.9629 209.066Z" fill="#171717" fill-opacity="1.000000" fill-rule="nonzero"/>
				<path id="Vector" d="M112.596 240.32L113.564 239.803L98.7793 212.024L97.8125 212.54L112.596 240.32Z" fill="#171717" fill-opacity="1.000000" fill-rule="nonzero"/>
				<path id="Vector" d="M117.756 345.178L118.725 344.662L112.91 333.744L124.371 260.108L115.414 243.278L114.443 243.794L123.232 260.3L111.77 333.936L117.756 345.178Z" fill="#171717" fill-opacity="1.000000" fill-rule="nonzero"/>
				<path id="Vector" d="M100.021 205.478L100.988 204.962L94.8379 193.401L106.297 119.765L71.2832 53.981L81.332 -10.5682L80.2461 -10.7394L70.1426 54.1744L105.156 119.957L93.6953 193.592L100.021 205.478Z" fill="#171717" fill-opacity="1.000000" fill-rule="nonzero"/>
				<path id="Vector" d="M116.666 236.746L117.633 236.228L104.695 211.919L103.729 212.437L116.666 236.746Z" fill="#171717" fill-opacity="1.000000" fill-rule="nonzero"/>
				<path id="Vector" d="M119.936 338.06L120.902 337.543L118.391 332.821L129.852 259.186L119.48 239.703L118.514 240.22L128.709 259.379L117.25 333.013L119.936 338.06Z" fill="#171717" fill-opacity="1.000000" fill-rule="nonzero"/>
				<path id="Vector" d="M122.795 331.664L123.877 331.833L135.33 258.259L100.316 192.473L111.779 118.84L76.7656 53.0563L86.668 -10.563L85.584 -10.7333L75.625 53.2488L110.637 119.031L99.1777 192.667L134.191 258.452L122.795 331.664Z" fill="#171717" fill-opacity="1.000000" fill-rule="nonzero"/>
				<path id="Vector" d="M126.646 233.065L127.617 232.549L105.791 191.544L117.252 117.911L82.2402 52.1266L91.3906 -6.66174L90.3066 -6.83099L81.1016 52.3199L116.111 118.103L104.65 191.736L126.646 233.065Z" fill="#171717" fill-opacity="1.000000" fill-rule="nonzero"/>
				<path id="Vector" d="M128.852 327.009L129.934 327.179L140.805 257.332L129.461 236.023L128.494 236.539L139.664 257.525L128.852 327.009Z" fill="#171717" fill-opacity="1.000000" fill-rule="nonzero"/>
				<path id="Vector" d="M134.809 323.013L135.893 323.186L146.287 256.403L111.273 190.617L122.732 116.983L87.7207 51.1984L96.1191 -2.77307L95.0332 -2.94452L86.5781 51.3904L121.592 117.175L110.131 190.809L145.145 256.595L134.809 323.013Z" fill="#171717" fill-opacity="1.000000" fill-rule="nonzero"/>
				<path id="Vector" d="M140.758 319.094L141.842 319.264L151.77 255.482L116.756 189.698L128.217 116.065L93.2031 50.2792L104.611 -23.0051L103.529 -23.1792L92.0645 50.4733L127.078 116.257L115.615 189.892L150.631 255.675L140.758 319.094Z" fill="#171717" fill-opacity="1.000000" fill-rule="nonzero"/>
				<path id="Vector" d="M123.242 175.149L124.324 175.318L133.693 115.137L98.6836 49.3545L109.295 -18.8376L108.209 -19.0085L97.543 49.548L132.549 115.327L123.242 175.149Z" fill="#171717" fill-opacity="1.000000" fill-rule="nonzero"/>
				<path id="Vector" d="M147.369 310.876L148.453 311.046L157.248 254.557L122.23 188.77L122.418 187.575L121.336 187.406L121.09 188.964L156.102 254.746L147.369 310.876Z" fill="#171717" fill-opacity="1.000000" fill-rule="nonzero"/>
				<path id="Vector" d="M129.256 170.79L130.338 170.961L139.17 114.212L104.156 48.4293L114.088 -15.3434L113.004 -15.5139L103.02 48.6235L138.033 114.407L129.256 170.79Z" fill="#171717" fill-opacity="1.000000" fill-rule="nonzero"/>
				<path id="Vector" d="M144.357 221.46L145.326 220.944L127.711 187.846L127.756 187.584L126.67 187.412L126.572 188.039L144.357 221.46Z" fill="#171717" fill-opacity="1.000000" fill-rule="nonzero"/>
				<path id="Vector" d="M152.775 310.412L153.857 310.583L162.723 253.631L147.174 224.417L146.207 224.934L161.582 253.824L152.775 310.412Z" fill="#171717" fill-opacity="1.000000" fill-rule="nonzero"/>
				<path id="Vector" d="M136.482 158.66L137.564 158.829L144.654 113.291L109.641 47.5056L119.492 -15.8065L118.408 -15.9755L108.5 47.6987L143.514 113.483L136.482 158.66Z" fill="#171717" fill-opacity="1.000000" fill-rule="nonzero"/>
				<path id="Vector" d="M134.664 170.324L135.748 170.495L136.957 162.712L135.873 162.541L134.664 170.324Z" fill="#171717" fill-opacity="1.000000" fill-rule="nonzero"/>
				<path id="Vector" d="M146.359 213.998L147.328 213.482L133.191 186.917L135.141 174.391L134.057 174.22L132.051 187.111L146.359 213.998Z" fill="#171717" fill-opacity="1.000000" fill-rule="nonzero"/>
				<path id="Vector" d="M157.574 313.847L158.658 314.018L168.199 252.704L156.566 230.845L155.598 231.362L167.059 252.897L157.574 313.847Z" fill="#171717" fill-opacity="1.000000" fill-rule="nonzero"/>
				<path id="Vector" d="M141.279 162.077L142.363 162.248L150.129 112.359L115.115 46.5737L124.293 -12.3679L123.207 -12.5385L113.975 46.7662L148.988 112.551L141.279 162.077Z" fill="#171717" fill-opacity="1.000000" fill-rule="nonzero"/>
				<path id="Vector" d="M148.363 206.543L149.33 206.026L138.67 185.996L140.545 173.929L139.463 173.759L137.531 186.19L148.363 206.543Z" fill="#171717" fill-opacity="1.000000" fill-rule="nonzero"/>
				<path id="Vector" d="M153.908 216.956L154.875 216.44L153.027 212.969L152.061 213.486L153.908 216.956Z" fill="#171717" fill-opacity="1.000000" fill-rule="nonzero"/>
				<path id="Vector" d="M162.984 313.387L164.07 313.557L173.682 251.781L162.268 230.333L161.301 230.85L172.541 251.973L162.984 313.387Z" fill="#171717" fill-opacity="1.000000" fill-rule="nonzero"/>
				<path id="Vector" d="M159.607 216.446L160.578 215.93L144.152 185.07L155.609 111.435L120.598 45.6514L127.883 -1.15466L126.801 -1.32684L119.457 45.8435L154.469 111.628L143.012 185.262L159.607 216.446Z" fill="#171717" fill-opacity="1.000000" fill-rule="nonzero"/>
				<path id="Vector" d="M165.148 226.864L166.115 226.347L164.27 222.876L163.301 223.393L165.148 226.864Z" fill="#171717" fill-opacity="1.000000" fill-rule="nonzero"/>
				<path id="Vector" d="M167.16 320.855L168.242 321.024L179.164 250.852L175.385 243.756L174.418 244.274L178.023 251.045L167.16 320.855Z" fill="#171717" fill-opacity="1.000000" fill-rule="nonzero"/>
				<path id="Vector" d="M148.596 184.534L149.062 184.239L149.6 184.323L161.09 110.507L126.078 44.7232L132.686 2.25916L131.602 2.09039L124.936 44.9151L159.949 110.701L148.482 184.359L148.596 184.534Z" fill="#171717" fill-opacity="1.000000" fill-rule="nonzero"/>
				<path id="Vector" d="M165.305 215.933L166.271 215.417L153.309 191.061L152.34 191.577L165.305 215.933Z" fill="#171717" fill-opacity="1.000000" fill-rule="nonzero"/>
				<path id="Vector" d="M172.129 323.916L172.639 323.662L173.152 323.742L184.643 249.926L181.086 243.249L180.119 243.765L183.502 250.119L172.041 323.753L172.129 323.916Z" fill="#171717" fill-opacity="1.000000" fill-rule="nonzero"/>
				<path id="Vector" d="M154.051 183.572L154.607 183.326L155.078 183.401L166.566 109.583L148.318 75.2999L147.35 75.8184L165.426 109.776L153.963 183.41L154.051 183.572Z" fill="#171717" fill-opacity="1.000000" fill-rule="nonzero"/>
				<path id="Vector" d="M171.006 215.417L171.973 214.901L160.873 194.047L159.904 194.566L171.006 215.417Z" fill="#171717" fill-opacity="1.000000" fill-rule="nonzero"/>
				<path id="Vector" d="M174.699 222.362L175.666 221.845L173.818 218.374L172.852 218.891L174.699 222.362Z" fill="#171717" fill-opacity="1.000000" fill-rule="nonzero"/>
				<path id="Vector" d="M181.693 330.668L182.66 330.151L178.658 322.633L190.121 249.002L188.729 246.387L187.76 246.904L188.98 249.194L177.52 322.825L181.693 330.668Z" fill="#171717" fill-opacity="1.000000" fill-rule="nonzero"/>
				<path id="Vector" d="M207.566 420.499L208.65 420.67L210.469 409.005L209.383 408.834L207.566 420.499Z" fill="#171717" fill-opacity="1.000000" fill-rule="nonzero"/>
				<path id="Vector" d="M159.643 182.851L160.385 182.447L160.561 182.478L160.58 182.345L160.607 182.331L160.59 182.294L172.049 108.663L148.477 64.3721L147.508 64.8889L170.908 108.856L159.447 182.489L159.643 182.851Z" fill="#171717" fill-opacity="1.000000" fill-rule="nonzero"/>
				<path id="Vector" d="M174.85 211.434L175.818 210.918L172.125 203.973L171.158 204.49L174.85 211.434Z" fill="#171717" fill-opacity="1.000000" fill-rule="nonzero"/>
				<path id="Vector" d="M180.396 221.849L181.365 221.333L177.668 214.389L176.699 214.906L180.396 221.849Z" fill="#171717" fill-opacity="1.000000" fill-rule="nonzero"/>
				<path id="Vector" d="M187.795 235.748L188.762 235.232L186.908 231.753L185.941 232.269L187.795 235.748Z" fill="#171717" fill-opacity="1.000000" fill-rule="nonzero"/>
				<path id="Vector" d="M187.393 330.163L188.361 329.646L184.139 321.713L195.6 248.078L192.49 242.239L191.523 242.755L194.459 248.271L182.998 321.906L187.393 330.163Z" fill="#171717" fill-opacity="1.000000" fill-rule="nonzero"/>
				<path id="Vector" d="M211.162 431.694L212.244 431.864L219.148 387.497L216.143 381.843L215.174 382.362L218.008 387.69L211.162 431.694Z" fill="#171717" fill-opacity="1.000000" fill-rule="nonzero"/>
				<path id="Vector" d="M169.441 190.048L170.408 189.531L166.064 181.367L177.525 107.734L152.32 60.3796L151.354 60.8959L176.383 107.923L164.926 181.56L169.441 190.048Z" fill="#171717" fill-opacity="1.000000" fill-rule="nonzero"/>
				<path id="Vector" d="M186.092 221.331L187.061 220.814L174.121 196.502L173.154 197.019L186.092 221.331Z" fill="#171717" fill-opacity="1.000000" fill-rule="nonzero"/>
				<path id="Vector" d="M193.494 235.238L194.463 234.721L188.908 224.291L187.941 224.808L193.494 235.238Z" fill="#171717" fill-opacity="1.000000" fill-rule="nonzero"/>
				<path id="Vector" d="M193.094 329.653L194.061 329.135L189.617 320.789L201.078 247.153L196.318 238.212L195.352 238.729L199.938 247.346L188.477 320.981L193.094 329.653Z" fill="#171717" fill-opacity="1.000000" fill-rule="nonzero"/>
				<path id="Vector" d="M237.09 507.484L238.059 506.968L213.17 460.206L224.633 386.572L224.092 385.555L223.123 386.072L223.492 386.764L212.031 460.399L237.09 507.484Z" fill="#171717" fill-opacity="1.000000" fill-rule="nonzero"/>
				<path id="Vector" d="M173.27 186.012L174.238 185.496L171.547 180.439L183.008 106.806L163.572 70.2847L162.604 70.8L181.867 106.998L170.408 180.632L173.27 186.012Z" fill="#171717" fill-opacity="1.000000" fill-rule="nonzero"/>
				<path id="Vector" d="M188.098 213.876L189.064 213.36L176.111 189.023L175.145 189.54L188.098 213.876Z" fill="#171717" fill-opacity="1.000000" fill-rule="nonzero"/>
				<path id="Vector" d="M193.643 224.296L194.609 223.779L190.914 216.833L189.945 217.35L193.643 224.296Z" fill="#171717" fill-opacity="1.000000" fill-rule="nonzero"/>
				<path id="Vector" d="M198.797 329.139L199.764 328.622L195.098 319.858L206.559 246.223L206.223 245.59L205.254 246.106L205.418 246.415L193.959 320.053L198.797 329.139Z" fill="#171717" fill-opacity="1.000000" fill-rule="nonzero"/>
				<path id="Vector" d="M240.938 503.495L241.904 502.979L218.648 459.278L230.107 385.642L229.842 385.148L228.875 385.665L228.967 385.836L217.508 459.471L240.938 503.495Z" fill="#171717" fill-opacity="1.000000" fill-rule="nonzero"/>
				<path id="Vector" d="M193.795 213.364L194.762 212.847L177.023 179.518L188.484 105.884L169.264 69.7737L168.297 70.2894L187.342 106.077L175.883 179.711L193.795 213.364Z" fill="#171717" fill-opacity="1.000000" fill-rule="nonzero"/>
				<path id="Vector" d="M199.336 223.777L200.305 223.26L196.609 216.314L195.641 216.831L199.336 223.777Z" fill="#171717" fill-opacity="1.000000" fill-rule="nonzero"/>
				<path id="Vector" d="M204.891 234.21L205.859 233.692L204.004 230.21L203.035 230.727L204.891 234.21Z" fill="#171717" fill-opacity="1.000000" fill-rule="nonzero"/>
				<path id="Vector" d="M204.492 328.63L205.459 328.113L200.574 318.935L211.652 247.755L210.568 247.584L199.436 319.129L204.492 328.63Z" fill="#171717" fill-opacity="1.000000" fill-rule="nonzero"/>
				<path id="Vector" d="M242.943 496.036L243.912 495.519L224.131 458.353L235.17 387.418L234.086 387.249L222.992 458.545L242.943 496.036Z" fill="#171717" fill-opacity="1.000000" fill-rule="nonzero"/>
				<path id="Vector" d="M168.445 59.3565L169.414 58.8394L161.988 44.8838L161.02 45.4009L168.445 59.3565Z" fill="#171717" fill-opacity="1.000000" fill-rule="nonzero"/>
				<path id="Vector" d="M177.688 76.7211L178.658 76.2021L176.811 72.733L175.842 73.2485L177.688 76.7211Z" fill="#171717" fill-opacity="1.000000" fill-rule="nonzero"/>
				<path id="Vector" d="M205.035 223.265L206.004 222.748L182.502 178.591L193.961 104.956L184.203 86.6193L183.236 87.1356L192.82 105.148L181.361 178.783L205.035 223.265Z" fill="#171717" fill-opacity="1.000000" fill-rule="nonzero"/>
				<path id="Vector" d="M208.736 230.213L209.705 229.697L207.854 226.221L206.887 226.738L208.736 230.213Z" fill="#171717" fill-opacity="1.000000" fill-rule="nonzero"/>
				<path id="Vector" d="M216.42 244.652L217.385 244.133L213.418 236.68L212.449 237.197L216.42 244.652Z" fill="#171717" fill-opacity="1.000000" fill-rule="nonzero"/>
				<path id="Vector" d="M208.324 324.61L209.291 324.093L206.055 318.011L215.805 255.373L214.721 255.202L204.912 318.2L208.324 324.61Z" fill="#171717" fill-opacity="1.000000" fill-rule="nonzero"/>
				<path id="Vector" d="M246.791 492.048L247.76 491.531L229.607 457.427L240.564 387.016L239.48 386.847L228.467 457.619L246.791 492.048Z" fill="#171717" fill-opacity="1.000000" fill-rule="nonzero"/>
				<path id="Vector" d="M185.236 79.6749L186.205 79.1586L184.355 75.6879L183.387 76.2034L185.236 79.6749Z" fill="#171717" fill-opacity="1.000000" fill-rule="nonzero"/>
				<path id="Vector" d="M205.189 212.333L206.156 211.817L187.982 177.666L199.443 104.03L197.363 100.126L196.396 100.643L198.301 104.221L186.842 177.859L205.189 212.333Z" fill="#171717" fill-opacity="1.000000" fill-rule="nonzero"/>
				<path id="Vector" d="M210.736 222.75L211.705 222.234L208.01 215.288L207.041 215.805L210.736 222.75Z" fill="#171717" fill-opacity="1.000000" fill-rule="nonzero"/>
				<path id="Vector" d="M214.027 324.102L214.996 323.585L211.533 317.082L222.994 243.448L219.121 236.172L218.154 236.689L221.854 243.641L210.395 317.274L214.027 324.102Z" fill="#171717" fill-opacity="1.000000" fill-rule="nonzero"/>
				<path id="Vector" d="M248.795 484.591L249.762 484.074L235.088 456.503L245.965 386.596L244.883 386.426L233.947 456.696L248.795 484.591Z" fill="#171717" fill-opacity="1.000000" fill-rule="nonzero"/>
				<path id="Vector" d="M190.936 79.1591L191.904 78.6441L188.209 71.6978L187.238 72.2156L190.936 79.1591Z" fill="#171717" fill-opacity="1.000000" fill-rule="nonzero"/>
				<path id="Vector" d="M198.342 93.0682L199.309 92.5547L197.451 89.0667L196.484 89.5848L198.342 93.0682Z" fill="#171717" fill-opacity="1.000000" fill-rule="nonzero"/>
				<path id="Vector" d="M224.322 262.071L225.406 262.241L228.475 242.523L193.461 176.739L202.49 118.724L201.406 118.554L192.32 176.932L227.334 242.717L224.322 262.071Z" fill="#171717" fill-opacity="1.000000" fill-rule="nonzero"/>
				<path id="Vector" d="M215.945 316.471L216.455 316.253L216.988 316.338L224.801 266.129L223.717 265.958L215.881 316.326L215.945 316.471Z" fill="#171717" fill-opacity="1.000000" fill-rule="nonzero"/>
				<path id="Vector" d="M252.645 480.604L253.611 480.088L240.562 455.578L250.746 390.153L249.662 389.982L239.422 455.771L252.645 480.604Z" fill="#171717" fill-opacity="1.000000" fill-rule="nonzero"/>
				<path id="Vector" d="M196.631 78.651L197.598 78.1338L192.057 67.7147L191.09 68.2319L196.631 78.651Z" fill="#171717" fill-opacity="1.000000" fill-rule="nonzero"/>
				<path id="Vector" d="M206.812 118.087L207.896 118.257L209.736 106.452L208.652 106.281L206.812 118.087Z" fill="#171717" fill-opacity="1.000000" fill-rule="nonzero"/>
				<path id="Vector" d="M229.123 265.495L230.207 265.665L233.953 241.599L198.941 175.815L206.688 126.04L205.602 125.873L197.801 176.007L232.814 241.791L229.123 265.495Z" fill="#171717" fill-opacity="1.000000" fill-rule="nonzero"/>
				<path id="Vector" d="M221.826 312.383L222.91 312.554L223.545 308.485L222.461 308.314L221.826 312.383Z" fill="#171717" fill-opacity="1.000000" fill-rule="nonzero"/>
				<path id="Vector" d="M254.643 473.146L255.609 472.629L246.043 454.651L256.154 389.694L255.068 389.524L244.902 454.844L254.643 473.146Z" fill="#171717" fill-opacity="1.000000" fill-rule="nonzero"/>
				<path id="Vector" d="M200.486 74.6619L201.453 74.1443L190.365 53.3073L189.396 53.8278L200.486 74.6619Z" fill="#171717" fill-opacity="1.000000" fill-rule="nonzero"/>
				<path id="Vector" d="M212.221 117.626L213.305 117.797L215.139 106.008L214.057 105.838L212.221 117.626Z" fill="#171717" fill-opacity="1.000000" fill-rule="nonzero"/>
				<path id="Vector" d="M233.387 231.653L234.354 231.137L204.414 174.889L212.695 121.688L211.611 121.517L203.273 175.081L233.387 231.653Z" fill="#171717" fill-opacity="1.000000" fill-rule="nonzero"/>
				<path id="Vector" d="M235.74 257.25L236.826 257.419L239.375 241.038L238.293 240.868L235.74 257.25Z" fill="#171717" fill-opacity="1.000000" fill-rule="nonzero"/>
				<path id="Vector" d="M258.494 469.155L259.463 468.638L251.525 453.726L261.562 389.234L260.479 389.065L250.387 453.918L258.494 469.155Z" fill="#171717" fill-opacity="1.000000" fill-rule="nonzero"/>
				<path id="Vector" d="M200.637 63.7332L201.602 63.2134L186.346 34.5451L186.668 32.4559L185.588 32.2846L185.203 34.7382L200.637 63.7332Z" fill="#171717" fill-opacity="1.000000" fill-rule="nonzero"/>
				<path id="Vector" d="M239.086 231.143L240.055 230.625L209.896 173.964L219.928 109.526L218.84 109.353L208.756 174.157L239.086 231.143Z" fill="#171717" fill-opacity="1.000000" fill-rule="nonzero"/>
				<path id="Vector" d="M242.365 248.977L243.449 249.147L244.82 240.342L243.736 240.172L242.365 248.977Z" fill="#171717" fill-opacity="1.000000" fill-rule="nonzero"/>
				<path id="Vector" d="M260.48 461.666L261.449 461.149L257.006 452.797L266.969 388.77L265.887 388.599L255.865 452.99L260.48 461.666Z" fill="#171717" fill-opacity="1.000000" fill-rule="nonzero"/>
				<path id="Vector" d="M216.287 160.044L217.371 160.214L225.24 109.636L224.16 109.464L216.287 160.044Z" fill="#171717" fill-opacity="1.000000" fill-rule="nonzero"/>
				<path id="Vector" d="M215.287 175.204L216.254 174.687L215.377 173.037L216.766 164.125L215.684 163.955L214.236 173.229L215.287 175.204Z" fill="#171717" fill-opacity="1.000000" fill-rule="nonzero"/>
				<path id="Vector" d="M243.201 227.649L244.17 227.133L218.248 178.429L217.281 178.945L243.201 227.649Z" fill="#171717" fill-opacity="1.000000" fill-rule="nonzero"/>
				<path id="Vector" d="M264.582 458.157L265.549 457.641L262.482 451.874L272.898 384.951L271.814 384.78L261.342 452.067L264.582 458.157Z" fill="#171717" fill-opacity="1.000000" fill-rule="nonzero"/>
				<path id="Vector" d="M222.232 156.145L223.316 156.315L230.582 109.64L229.498 109.468L222.232 156.145Z" fill="#171717" fill-opacity="1.000000" fill-rule="nonzero"/>
				<path id="Vector" d="M238.023 206.695L238.992 206.178L229.748 188.815L228.779 189.332L238.023 206.695Z" fill="#171717" fill-opacity="1.000000" fill-rule="nonzero"/>
				<path id="Vector" d="M243.564 217.112L244.533 216.596L240.836 209.652L239.867 210.169L243.564 217.112Z" fill="#171717" fill-opacity="1.000000" fill-rule="nonzero"/>
				<path id="Vector" d="M268.598 454.479L269.564 453.962L267.961 450.948L277.619 388.888L276.535 388.718L266.82 451.141L268.598 454.479Z" fill="#171717" fill-opacity="1.000000" fill-rule="nonzero"/>
				<path id="Vector" d="M204.053 16.487L205.137 16.6573L205.744 12.7516L204.66 12.5833L204.053 16.487Z" fill="#171717" fill-opacity="1.000000" fill-rule="nonzero"/>
				<path id="Vector" d="M229.986 140.581L231.072 140.753L236.525 105.72L235.439 105.549L229.986 140.581Z" fill="#171717" fill-opacity="1.000000" fill-rule="nonzero"/>
				<path id="Vector" d="M228.779 148.357L229.863 148.527L230.469 144.638L229.385 144.468L228.779 148.357Z" fill="#171717" fill-opacity="1.000000" fill-rule="nonzero"/>
				<path id="Vector" d="M226.352 163.968L227.436 164.138L228.047 160.213L226.963 160.044L226.352 163.968Z" fill="#171717" fill-opacity="1.000000" fill-rule="nonzero"/>
				<path id="Vector" d="M230.994 182.268L231.963 181.751L226.266 171.046L225.299 171.563L230.994 182.268Z" fill="#171717" fill-opacity="1.000000" fill-rule="nonzero"/>
				<path id="Vector" d="M234.695 189.227L235.662 188.71L233.812 185.233L232.846 185.749L234.695 189.227Z" fill="#171717" fill-opacity="1.000000" fill-rule="nonzero"/>
				<path id="Vector" d="M253.184 223.963L254.152 223.447L244.904 206.074L243.938 206.591L253.184 223.963Z" fill="#171717" fill-opacity="1.000000" fill-rule="nonzero"/>
				<path id="Vector" d="M274.541 454.426L275.51 453.909L273.439 450.024L282.955 388.886L281.871 388.716L272.299 450.217L274.541 454.426Z" fill="#171717" fill-opacity="1.000000" fill-rule="nonzero"/>
				<path id="Vector" d="M208.17 24.3303L209.252 24.5001L210.473 16.6446L209.391 16.4743L208.17 24.3303Z" fill="#171717" fill-opacity="1.000000" fill-rule="nonzero"/>
				<path id="Vector" d="M240.611 189.129L241.58 188.612L231.812 170.259L241.248 109.639L240.164 109.468L230.674 170.452L240.611 189.129Z" fill="#171717" fill-opacity="1.000000" fill-rule="nonzero"/>
				<path id="Vector" d="M257.248 220.385L258.215 219.868L248.975 202.505L248.008 203.021L257.248 220.385Z" fill="#171717" fill-opacity="1.000000" fill-rule="nonzero"/>
				<path id="Vector" d="M280.473 454.354L281.443 453.834L278.918 449.099L288.291 388.886L287.207 388.717L277.779 449.292L280.473 454.354Z" fill="#171717" fill-opacity="1.000000" fill-rule="nonzero"/>
				<path id="Vector" d="M212.764 29.0786L213.844 29.2502L215.199 20.5503L214.117 20.3815L212.764 29.0786Z" fill="#171717" fill-opacity="1.000000" fill-rule="nonzero"/>
				<path id="Vector" d="M242.83 182.07L243.797 181.553L237.295 169.336L245.979 113.533L244.896 113.363L236.152 169.526L242.83 182.07Z" fill="#171717" fill-opacity="1.000000" fill-rule="nonzero"/>
				<path id="Vector" d="M259.469 213.335L260.436 212.818L254.891 202.401L253.922 202.917L259.469 213.335Z" fill="#171717" fill-opacity="1.000000" fill-rule="nonzero"/>
				<path id="Vector" d="M266.881 227.26L267.85 226.744L262.285 216.29L261.316 216.809L266.881 227.26Z" fill="#171717" fill-opacity="1.000000" fill-rule="nonzero"/>
				<path id="Vector" d="M284.432 450.572L285.402 450.057L284.4 448.172L293.627 388.885L292.543 388.715L283.262 448.365L284.432 450.572Z" fill="#171717" fill-opacity="1.000000" fill-rule="nonzero"/>
				<path id="Vector" d="M219.428 31.7145L220.396 31.2013L219.221 28.994L221.15 16.5967L220.066 16.4247L218.08 29.1845L219.428 31.7145Z" fill="#171717" fill-opacity="1.000000" fill-rule="nonzero"/>
				<path id="Vector" d="M250.6 185.449L251.568 184.933L242.773 168.41L250.105 121.311L249.021 121.14L241.633 168.603L250.6 185.449Z" fill="#171717" fill-opacity="1.000000" fill-rule="nonzero"/>
				<path id="Vector" d="M269.086 220.183L270.053 219.666L260.812 202.299L259.844 202.815L269.086 220.183Z" fill="#171717" fill-opacity="1.000000" fill-rule="nonzero"/>
				<path id="Vector" d="M290.41 450.582L291.379 450.065L289.879 447.247L298.355 392.779L297.273 392.608L288.74 447.439L290.41 450.582Z" fill="#171717" fill-opacity="1.000000" fill-rule="nonzero"/>
				<path id="Vector" d="M229.162 38.7791L230.131 38.2615L224.613 27.8998L224.367 28.0339L223.615 27.9167L223.561 28.2537L229.162 38.7791Z" fill="#171717" fill-opacity="1.000000" fill-rule="nonzero"/>
				<path id="Vector" d="M252.809 178.386L253.779 177.867L248.252 167.483L254.23 129.078L253.146 128.907L247.111 167.677L252.809 178.386Z" fill="#171717" fill-opacity="1.000000" fill-rule="nonzero"/>
				<path id="Vector" d="M269.455 209.655L270.422 209.14L263.033 195.252L262.062 195.767L269.455 209.655Z" fill="#171717" fill-opacity="1.000000" fill-rule="nonzero"/>
				<path id="Vector" d="M294.301 446.683L294.838 446.427L295.326 446.504L304.295 388.883L303.211 388.712L294.213 446.518L294.301 446.683Z" fill="#171717" fill-opacity="1.000000" fill-rule="nonzero"/>
				<path id="Vector" d="M236.934 42.1603L237.902 41.6439L232.301 31.1198L231.334 31.6362L236.934 42.1603Z" fill="#171717" fill-opacity="1.000000" fill-rule="nonzero"/>
				<path id="Vector" d="M256.873 174.791L257.84 174.275L253.734 166.558L254.074 164.37L252.99 164.199L252.596 166.75L256.873 174.791Z" fill="#171717" fill-opacity="1.000000" fill-rule="nonzero"/>
				<path id="Vector" d="M271.678 202.607L272.645 202.091L267.1 191.673L266.131 192.19L271.678 202.607Z" fill="#171717" fill-opacity="1.000000" fill-rule="nonzero"/>
				<path id="Vector" d="M299.984 446.132L300.951 445.616L300.836 445.397L308.42 396.659L307.338 396.489L299.695 445.589L299.984 446.132Z" fill="#171717" fill-opacity="1.000000" fill-rule="nonzero"/>
				<path id="Vector" d="M242.854 42.0677L243.82 41.5507L241.969 38.0708L241 38.587L242.854 42.0677Z" fill="#171717" fill-opacity="1.000000" fill-rule="nonzero"/>
				<path id="Vector" d="M313.277 392.594L314.361 392.764L314.967 388.873L313.883 388.703L313.277 392.594Z" fill="#171717" fill-opacity="1.000000" fill-rule="nonzero"/>
				<path id="Vector" d="M306.004 439.35L307.088 439.52L313.154 400.541L312.07 400.37L306.004 439.35Z" fill="#171717" fill-opacity="1.000000" fill-rule="nonzero"/>
				<path id="Vector" d="M317.846 397.542L318.93 397.713L320.139 389.936L319.055 389.765L317.846 397.542Z" fill="#171717" fill-opacity="1.000000" fill-rule="nonzero"/>
				<path id="Vector" d="M315.424 413.089L316.508 413.259L317.113 409.371L316.027 409.201L315.424 413.089Z" fill="#171717" fill-opacity="1.000000" fill-rule="nonzero"/>
				<path id="Vector" d="M323.248 397.078L324.332 397.248L324.938 393.362L323.855 393.192L323.248 397.078Z" fill="#171717" fill-opacity="1.000000" fill-rule="nonzero"/>
				<path id="Vector" d="M319.621 420.397L320.705 420.568L321.916 412.793L320.832 412.623L319.621 420.397Z" fill="#171717" fill-opacity="1.000000" fill-rule="nonzero"/>
				<path id="Vector" d="M328.658 396.612L329.742 396.783L330.953 389.008L329.869 388.838L328.658 396.612Z" fill="#171717" fill-opacity="1.000000" fill-rule="nonzero"/>
				<path id="Vector" d="M325.029 419.935L326.113 420.105L326.719 416.217L325.635 416.047L325.029 419.935Z" fill="#171717" fill-opacity="1.000000" fill-rule="nonzero"/>
				<path id="Vector" d="M334.432 393.786L335.516 393.955L336.727 386.179L335.643 386.008L334.432 393.786Z" fill="#171717" fill-opacity="1.000000" fill-rule="nonzero"/>
				<path id="Vector" d="M333.223 401.559L334.307 401.729L334.912 397.842L333.828 397.672L333.223 401.559Z" fill="#171717" fill-opacity="1.000000" fill-rule="nonzero"/>
				<path id="Vector" d="M330.807 417.104L331.891 417.274L333.705 405.614L332.621 405.443L330.807 417.104Z" fill="#171717" fill-opacity="1.000000" fill-rule="nonzero"/>
				<path id="Vector" d="M308.727 204.897L309.695 204.377L298.607 183.545L297.639 184.061L308.727 204.897Z" fill="#171717" fill-opacity="1.000000" fill-rule="nonzero"/>
				<path id="Vector" d="M340.055 391.936L341.139 392.107L341.744 388.219L340.66 388.048L340.055 391.936Z" fill="#171717" fill-opacity="1.000000" fill-rule="nonzero"/>
				<path id="Vector" d="M335.822 419.146L336.906 419.316L338.723 407.654L337.639 407.484L335.822 419.146Z" fill="#171717" fill-opacity="1.000000" fill-rule="nonzero"/>
				<path id="Vector" d="M314.689 204.883L315.656 204.366L302.721 180.062L301.754 180.579L314.689 204.883Z" fill="#171717" fill-opacity="1.000000" fill-rule="nonzero"/>
				<path id="Vector" d="M347.193 380.363L348.277 380.533L348.885 376.631L347.801 376.46L347.193 380.363Z" fill="#171717" fill-opacity="1.000000" fill-rule="nonzero"/>
				<path id="Vector" d="M344.773 395.921L345.857 396.092L346.461 392.206L345.377 392.035L344.773 395.921Z" fill="#171717" fill-opacity="1.000000" fill-rule="nonzero"/>
				<path id="Vector" d="M341.143 419.241L342.225 419.411L343.436 411.637L342.352 411.467L341.143 419.241Z" fill="#171717" fill-opacity="1.000000" fill-rule="nonzero"/>
				<path id="Vector" d="M319.949 203.546L320.916 203.029L317.221 196.084L316.252 196.6L319.949 203.546Z" fill="#171717" fill-opacity="1.000000" fill-rule="nonzero"/>
				<path id="Vector" d="M352.744 378.976L353.828 379.147L356.129 364.356L350.121 353.066L349.154 353.582L354.99 364.549L352.744 378.976Z" fill="#171717" fill-opacity="1.000000" fill-rule="nonzero"/>
				<path id="Vector" d="M346.084 421.75L347.168 421.921L350.799 398.591L349.715 398.422L346.084 421.75Z" fill="#171717" fill-opacity="1.000000" fill-rule="nonzero"/>
				<path id="Vector" d="M323.363 198.736L324.33 198.219L322.482 194.747L321.516 195.264L323.363 198.736Z" fill="#171717" fill-opacity="1.000000" fill-rule="nonzero"/>
				<path id="Vector" d="M357.686 381.485L358.77 381.656L361.607 363.431L353.525 348.245L352.557 348.764L360.467 363.624L357.686 381.485Z" fill="#171717" fill-opacity="1.000000" fill-rule="nonzero"/>
				<path id="Vector" d="M351.65 420.373L352.734 420.544L355.76 401.101L354.676 400.932L351.65 420.373Z" fill="#171717" fill-opacity="1.000000" fill-rule="nonzero"/>
				<path id="Vector" d="M339.109 244.366L340.195 244.536L341.408 236.749L340.324 236.58L339.109 244.366Z" fill="#171717" fill-opacity="1.000000" fill-rule="nonzero"/>
				<path id="Vector" d="M331.619 298.198L332.59 297.684L332.076 296.718L332.924 291.275L331.84 291.104L330.936 296.911L331.619 298.198Z" fill="#171717" fill-opacity="1.000000" fill-rule="nonzero"/>
				<path id="Vector" d="M362.635 383.987L363.719 384.158L367.09 362.503L355.09 339.957L354.121 340.473L365.949 362.696L362.635 383.987Z" fill="#171717" fill-opacity="1.000000" fill-rule="nonzero"/>
				<path id="Vector" d="M356.592 422.881L357.674 423.051L358.887 415.263L357.805 415.093L356.592 422.881Z" fill="#171717" fill-opacity="1.000000" fill-rule="nonzero"/>
				<path id="Vector" d="M333.883 196.062L334.85 195.545L327.461 181.657L326.492 182.177L333.883 196.062Z" fill="#171717" fill-opacity="1.000000" fill-rule="nonzero"/>
				<path id="Vector" d="M344.059 246.868L345.143 247.038L349.014 222.162L338.547 202.493L337.58 203.01L347.875 222.355L344.059 246.868Z" fill="#171717" fill-opacity="1.000000" fill-rule="nonzero"/>
				<path id="Vector" d="M336.695 296.517L337.664 296L337.555 295.795L338.477 289.877L337.393 289.706L336.414 295.988L336.695 296.517Z" fill="#171717" fill-opacity="1.000000" fill-rule="nonzero"/>
				<path id="Vector" d="M348.291 318.3L349.258 317.784L341.848 303.859L340.881 304.376L348.291 318.3Z" fill="#171717" fill-opacity="1.000000" fill-rule="nonzero"/>
				<path id="Vector" d="M366.975 390.378L368.057 390.548L372.566 361.578L352.953 324.73L351.986 325.247L371.426 361.771L366.975 390.378Z" fill="#171717" fill-opacity="1.000000" fill-rule="nonzero"/>
				<path id="Vector" d="M361.537 425.402L362.621 425.572L364.439 413.878L363.357 413.708L361.537 425.402Z" fill="#171717" fill-opacity="1.000000" fill-rule="nonzero"/>
				<path id="Vector" d="M349.607 245.48L350.689 245.653L354.492 221.235L330.869 176.847L329.9 177.366L353.354 221.428L349.607 245.48Z" fill="#171717" fill-opacity="1.000000" fill-rule="nonzero"/>
				<path id="Vector" d="M344.25 299.492L345.219 298.976L343.033 294.869L344.639 284.548L343.555 284.378L341.895 295.063L344.25 299.492Z" fill="#171717" fill-opacity="1.000000" fill-rule="nonzero"/>
				<path id="Vector" d="M371.934 392.887L373.018 393.057L378.059 360.663L350.834 309.508L349.865 310.026L376.92 360.857L371.934 392.887Z" fill="#171717" fill-opacity="1.000000" fill-rule="nonzero"/>
				<path id="Vector" d="M367.092 424.012L368.176 424.182L369.994 412.492L368.91 412.321L367.092 424.012Z" fill="#171717" fill-opacity="1.000000" fill-rule="nonzero"/>
				<path id="Vector" d="M354.555 247.98L355.641 248.15L359.975 220.308L334.283 172.036L333.314 172.556L358.836 220.501L354.555 247.98Z" fill="#171717" fill-opacity="1.000000" fill-rule="nonzero"/>
				<path id="Vector" d="M347.865 290.972L348.949 291.142L350.799 279.255L349.715 279.084L347.865 290.972Z" fill="#171717" fill-opacity="1.000000" fill-rule="nonzero"/>
				<path id="Vector" d="M372.027 426.548L373.111 426.719L383.537 359.734L350.482 297.626L349.514 298.142L382.396 359.927L372.027 426.548Z" fill="#171717" fill-opacity="1.000000" fill-rule="nonzero"/>
				<path id="Vector" d="M360.109 246.595L361.193 246.765L365.455 219.383L335.836 163.735L334.869 164.252L364.314 219.576L360.109 246.595Z" fill="#171717" fill-opacity="1.000000" fill-rule="nonzero"/>
				<path id="Vector" d="M376.951 429.193L378.035 429.364L389.016 358.812L354.004 293.027L356.361 277.877L355.277 277.707L352.863 293.219L387.877 359.004L376.951 429.193Z" fill="#171717" fill-opacity="1.000000" fill-rule="nonzero"/>
				<path id="Vector" d="M365.66 245.209L366.744 245.379L370.936 218.457L337.307 155.272L336.34 155.789L369.795 218.649L365.66 245.209Z" fill="#171717" fill-opacity="1.000000" fill-rule="nonzero"/>
				<path id="Vector" d="M383.133 423.766L384.215 423.936L394.496 357.887L359.484 292.102L361.305 280.392L360.221 280.223L358.344 292.294L393.355 358.079L383.133 423.766Z" fill="#171717" fill-opacity="1.000000" fill-rule="nonzero"/>
				<path id="Vector" d="M371.811 239.937L372.895 240.108L376.41 217.531L341.398 151.713L341.375 151.708L341.312 151.586L341.15 151.672L340.316 151.547L340.258 151.941L340.346 152.103L375.27 217.724L371.811 239.937Z" fill="#171717" fill-opacity="1.000000" fill-rule="nonzero"/>
				<path id="Vector" d="M388.688 422.371L389.771 422.541L399.977 356.958L364.965 291.175L367.465 275.103L366.383 274.934L363.824 291.368L398.838 357.151L388.688 422.371Z" fill="#171717" fill-opacity="1.000000" fill-rule="nonzero"/>
				<path id="Vector" d="M350.826 118.325L351.91 118.495L353.74 106.707L352.656 106.537L350.826 118.325Z" fill="#171717" fill-opacity="1.000000" fill-rule="nonzero"/>
				<path id="Vector" d="M378.576 230.763L379.66 230.934L381.887 216.608L346.875 150.824L348.875 137.973L347.793 137.803L345.734 151.016L380.746 216.801L378.576 230.763Z" fill="#171717" fill-opacity="1.000000" fill-rule="nonzero"/>
				<path id="Vector" d="M394.24 420.98L395.322 421.15L405.455 356.034L370.443 290.25L373.016 273.716L371.932 273.546L369.303 290.444L404.316 356.226L394.24 420.98Z" fill="#171717" fill-opacity="1.000000" fill-rule="nonzero"/>
				<path id="Vector" d="M384.736 225.466L385.82 225.636L387.371 215.68L352.357 149.895L358.074 113.165L356.99 112.994L351.217 150.088L386.23 215.872L384.736 225.466Z" fill="#171717" fill-opacity="1.000000" fill-rule="nonzero"/>
				<path id="Vector" d="M398.422 428.377L399.506 428.548L410.934 355.111L375.922 289.326L378.566 272.332L377.482 272.162L374.781 289.519L409.793 355.303L398.422 428.377Z" fill="#171717" fill-opacity="1.000000" fill-rule="nonzero"/>
				<path id="Vector" d="M390.9 220.129L391.984 220.299L392.848 214.76L357.834 148.976L363.023 115.653L361.938 115.481L356.697 149.167L391.707 214.953L390.9 220.129Z" fill="#171717" fill-opacity="1.000000" fill-rule="nonzero"/>
				<path id="Vector" d="M386.045 251.325L387.129 251.495L387.734 247.607L386.65 247.437L386.045 251.325Z" fill="#171717" fill-opacity="1.000000" fill-rule="nonzero"/>
				<path id="Vector" d="M383.625 266.872L384.709 267.042L385.314 263.153L384.23 262.983L383.625 266.872Z" fill="#171717" fill-opacity="1.000000" fill-rule="nonzero"/>
				<path id="Vector" d="M392.219 311.079L393.188 310.564L381.387 288.389L382.889 278.737L381.805 278.566L380.246 288.581L392.219 311.079Z" fill="#171717" fill-opacity="1.000000" fill-rule="nonzero"/>
				<path id="Vector" d="M404.725 422.145L405.809 422.315L416.412 354.182L395.049 314.042L394.08 314.559L415.271 354.375L404.725 422.145Z" fill="#171717" fill-opacity="1.000000" fill-rule="nonzero"/>
				<path id="Vector" d="M396.166 212.097L397.133 211.58L363.314 148.043L367.359 122.069L366.275 121.899L362.176 148.236L396.166 212.097Z" fill="#171717" fill-opacity="1.000000" fill-rule="nonzero"/>
				<path id="Vector" d="M387.967 273.27L389.051 273.441L393.891 242.339L392.809 242.166L387.967 273.27Z" fill="#171717" fill-opacity="1.000000" fill-rule="nonzero"/>
				<path id="Vector" d="M393.783 302.793L394.75 302.276L386.869 287.463L388.443 277.346L387.359 277.176L385.73 287.657L393.783 302.793Z" fill="#171717" fill-opacity="1.000000" fill-rule="nonzero"/>
				<path id="Vector" d="M409.625 424.953L410.709 425.124L421.895 353.256L398.463 309.232L397.496 309.749L420.754 353.449L409.625 424.953Z" fill="#171717" fill-opacity="1.000000" fill-rule="nonzero"/>
				<path id="Vector" d="M401.387 210.695L402.355 210.179L368.795 147.12L373.547 116.589L372.461 116.417L367.654 147.312L401.387 210.695Z" fill="#171717" fill-opacity="1.000000" fill-rule="nonzero"/>
				<path id="Vector" d="M393.516 271.882L394.6 272.053L398.834 244.836L397.752 244.666L393.516 271.882Z" fill="#171717" fill-opacity="1.000000" fill-rule="nonzero"/>
				<path id="Vector" d="M397.188 297.97L398.154 297.453L392.346 286.539L393.992 275.958L392.91 275.788L391.205 286.731L397.188 297.97Z" fill="#171717" fill-opacity="1.000000" fill-rule="nonzero"/>
				<path id="Vector" d="M415.83 419.352L416.914 419.522L427.373 352.331L405.57 311.369L404.604 311.886L426.232 352.524L415.83 419.352Z" fill="#171717" fill-opacity="1.000000" fill-rule="nonzero"/>
				<path id="Vector" d="M404.709 205.718L405.676 205.201L374.273 146.194L378.389 119.754L377.305 119.584L373.135 146.387L404.709 205.718Z" fill="#171717" fill-opacity="1.000000" fill-rule="nonzero"/>
				<path id="Vector" d="M399.068 270.496L400.152 270.666L403.781 247.337L402.697 247.167L399.068 270.496Z" fill="#171717" fill-opacity="1.000000" fill-rule="nonzero"/>
				<path id="Vector" d="M400.584 293.13L401.553 292.614L397.824 285.616L399.545 274.568L398.461 274.398L396.686 285.807L400.584 293.13Z" fill="#171717" fill-opacity="1.000000" fill-rule="nonzero"/>
				<path id="Vector" d="M421.385 417.957L422.469 418.128L432.852 351.405L412.682 313.504L411.711 314.022L431.713 351.597L421.385 417.957Z" fill="#171717" fill-opacity="1.000000" fill-rule="nonzero"/>
				<path id="Vector" d="M409.967 204.375L410.936 203.858L379.75 145.268L383.277 122.604L382.193 122.434L378.611 145.461L409.967 204.375Z" fill="#171717" fill-opacity="1.000000" fill-rule="nonzero"/>
				<path id="Vector" d="M404.012 273.009L405.096 273.18L409.938 242.064L408.854 241.894L404.012 273.009Z" fill="#171717" fill-opacity="1.000000" fill-rule="nonzero"/>
				<path id="Vector" d="M403.93 288.197L404.896 287.681L403.305 284.687L403.861 281.103L402.777 280.935L402.164 284.88L403.93 288.197Z" fill="#171717" fill-opacity="1.000000" fill-rule="nonzero"/>
				<path id="Vector" d="M426.936 416.564L428.018 416.734L438.33 350.48L419.787 315.64L418.82 316.156L437.189 350.672L426.936 416.564Z" fill="#171717" fill-opacity="1.000000" fill-rule="nonzero"/>
				<path id="Vector" d="M418.047 208.334L419.016 207.818L385.234 144.342L388.086 126.021L387.002 125.851L384.094 144.534L418.047 208.334Z" fill="#171717" fill-opacity="1.000000" fill-rule="nonzero"/>
				<path id="Vector" d="M411.709 257.838L412.793 258.009L415.816 238.577L414.732 238.407L411.709 257.838Z" fill="#171717" fill-opacity="1.000000" fill-rule="nonzero"/>
				<path id="Vector" d="M408.67 277.35L409.754 277.52L410.973 269.681L409.891 269.511L408.67 277.35Z" fill="#171717" fill-opacity="1.000000" fill-rule="nonzero"/>
				<path id="Vector" d="M410.07 288.52L411.039 288.003L408.783 283.761L409.109 281.66L408.025 281.491L407.643 283.953L410.07 288.52Z" fill="#171717" fill-opacity="1.000000" fill-rule="nonzero"/>
				<path id="Vector" d="M432.201 416.986L433.285 417.157L443.807 349.555L425.893 315.898L424.926 316.415L442.668 349.747L432.201 416.986Z" fill="#171717" fill-opacity="1.000000" fill-rule="nonzero"/>
				<path id="Vector" d="M424.672 209.555L425.15 209.299L425.676 209.463L425.746 209.238L390.713 143.415L392.889 129.436L391.805 129.266L389.572 143.608L424.672 209.555Z" fill="#171717" fill-opacity="1.000000" fill-rule="nonzero"/>
				<path id="Vector" d="M416.119 263.767L417.201 263.941L420.832 240.617L419.75 240.448L416.119 263.767Z" fill="#171717" fill-opacity="1.000000" fill-rule="nonzero"/>
				<path id="Vector" d="M418.857 293.799L419.826 293.283L414.186 282.684L413.217 283.202L418.857 293.799Z" fill="#171717" fill-opacity="1.000000" fill-rule="nonzero"/>
				<path id="Vector" d="M437.826 415.123L438.91 415.294L449.287 348.63L430.936 314.151L429.969 314.667L448.146 348.823L437.826 415.123Z" fill="#171717" fill-opacity="1.000000" fill-rule="nonzero"/>
				<path id="Vector" d="M429.014 215.209L430.098 215.38L431.203 208.277L396.191 142.494L397.691 132.852L396.609 132.683L395.049 142.685L430.062 208.469L429.014 215.209Z" fill="#171717" fill-opacity="1.000000" fill-rule="nonzero"/>
				<path id="Vector" d="M422.951 254.144L424.035 254.314L426.455 238.767L425.371 238.597L422.951 254.144Z" fill="#171717" fill-opacity="1.000000" fill-rule="nonzero"/>
				<path id="Vector" d="M423.895 292.047L424.863 291.531L419.656 281.745L419.213 281.982L418.637 281.87L418.611 282.046L418.688 282.261L423.895 292.047Z" fill="#171717" fill-opacity="1.000000" fill-rule="nonzero"/>
				<path id="Vector" d="M444.064 409.345L445.148 409.516L454.77 347.704L434.131 308.93L433.164 309.447L453.631 347.897L444.064 409.345Z" fill="#171717" fill-opacity="1.000000" fill-rule="nonzero"/>
				<path id="Vector" d="M434.641 213.342L435.721 213.514L436.682 207.352L401.67 141.568L402.494 136.269L401.408 136.097L400.529 141.76L435.541 207.544L434.641 213.342Z" fill="#171717" fill-opacity="1.000000" fill-rule="nonzero"/>
				<path id="Vector" d="M427.973 256.184L429.057 256.354L431.477 240.807L430.395 240.635L427.973 256.184Z" fill="#171717" fill-opacity="1.000000" fill-rule="nonzero"/>
				<path id="Vector" d="M450.898 399.702L451.982 399.873L460.246 346.776L425.234 280.992L426.643 271.946L425.559 271.776L424.094 281.185L459.105 346.968L450.898 399.702Z" fill="#171717" fill-opacity="1.000000" fill-rule="nonzero"/>
				<path id="Vector" d="M439.648 215.427L440.732 215.597L442.16 206.424L407.057 140.479L406.812 140.61L406.062 140.492L406.004 140.833L406.092 140.997L441.02 206.616L439.648 215.427Z" fill="#171717" fill-opacity="1.000000" fill-rule="nonzero"/>
				<path id="Vector" d="M457.73 390.085L458.814 390.255L465.725 345.855L430.713 280.071L437.107 238.972L436.025 238.802L429.572 280.263L464.584 346.047L457.73 390.085Z" fill="#171717" fill-opacity="1.000000" fill-rule="nonzero"/>
				<path id="Vector" d="M439.412 192.374L440.381 191.858L421.885 157.106L420.916 157.622L439.412 192.374Z" fill="#171717" fill-opacity="1.000000" fill-rule="nonzero"/>
				<path id="Vector" d="M445.273 213.574L446.357 213.744L446.98 209.751L445.896 209.58L445.273 213.574Z" fill="#171717" fill-opacity="1.000000" fill-rule="nonzero"/>
				<path id="Vector" d="M463.961 384.349L465.043 384.519L471.205 344.927L436.195 279.142L442.129 241.01L441.045 240.84L435.057 279.334L470.064 345.121L463.961 384.349Z" fill="#171717" fill-opacity="1.000000" fill-rule="nonzero"/>
				<path id="Vector" d="M442.598 187.144L443.566 186.628L438.018 176.201L437.051 176.718L442.598 187.144Z" fill="#171717" fill-opacity="1.000000" fill-rule="nonzero"/>
				<path id="Vector" d="M450.289 215.64L451.371 215.81L453.121 204.577L449.137 197.091L448.168 197.607L451.98 204.77L450.289 215.64Z" fill="#171717" fill-opacity="1.000000" fill-rule="nonzero"/>
				<path id="Vector" d="M446.654 238.985L447.738 239.155L450.158 223.608L449.074 223.438L446.654 238.985Z" fill="#171717" fill-opacity="1.000000" fill-rule="nonzero"/>
				<path id="Vector" d="M441.805 270.131L442.889 270.301L446.527 246.927L445.443 246.757L441.805 270.131Z" fill="#171717" fill-opacity="1.000000" fill-rule="nonzero"/>
				<path id="Vector" d="M468.977 386.391L470.061 386.56L476.684 344.002L441.67 278.217L442.279 274.3L441.195 274.13L440.529 278.41L475.543 344.195L468.977 386.391Z" fill="#171717" fill-opacity="1.000000" fill-rule="nonzero"/>
				<path id="Vector" d="M451.064 244.913L452.148 245.083L458.598 203.649L441.197 170.956L440.229 171.473L457.457 203.841L451.064 244.913Z" fill="#171717" fill-opacity="1.000000" fill-rule="nonzero"/>
				<path id="Vector" d="M447.43 268.273L448.514 268.443L451.545 248.968L450.461 248.797L447.43 268.273Z" fill="#171717" fill-opacity="1.000000" fill-rule="nonzero"/>
				<path id="Vector" d="M475.205 380.655L476.289 380.825L482.164 343.075L447.15 277.29L447.168 277.169L447.082 277.156L447.064 277.128L447.025 277.149L446.086 277.004L446.01 277.482L481.023 343.267L475.205 380.655Z" fill="#171717" fill-opacity="1.000000" fill-rule="nonzero"/>
				<path id="Vector" d="M457.898 235.297L458.982 235.467L464.078 202.723L449.932 176.144L448.963 176.66L462.938 202.915L457.898 235.297Z" fill="#171717" fill-opacity="1.000000" fill-rule="nonzero"/>
				<path id="Vector" d="M455.479 250.844L456.562 251.015L458.379 239.353L457.295 239.183L455.479 250.844Z" fill="#171717" fill-opacity="1.000000" fill-rule="nonzero"/>
				<path id="Vector" d="M453.053 266.43L454.137 266.6L455.957 254.906L454.873 254.736L453.053 266.43Z" fill="#171717" fill-opacity="1.000000" fill-rule="nonzero"/>
				<path id="Vector" d="M459.717 292.008L460.686 291.492L452.631 276.367L452.875 274.808L451.791 274.637L451.492 276.56L459.717 292.008Z" fill="#171717" fill-opacity="1.000000" fill-rule="nonzero"/>
				<path id="Vector" d="M480.221 382.703L481.305 382.872L487.643 342.147L464.379 298.442L463.412 298.959L486.502 342.34L480.221 382.703Z" fill="#171717" fill-opacity="1.000000" fill-rule="nonzero"/>
				<path id="Vector" d="M462.236 241.687L463.32 241.857L469.555 201.797L460.742 185.237L459.773 185.754L468.416 201.99L462.236 241.687Z" fill="#171717" fill-opacity="1.000000" fill-rule="nonzero"/>
				<path id="Vector" d="M460.424 253.344L461.508 253.515L462.719 245.741L461.635 245.57L460.424 253.344Z" fill="#171717" fill-opacity="1.000000" fill-rule="nonzero"/>
				<path id="Vector" d="M458.602 265.036L459.686 265.207L460.293 261.3L459.207 261.132L458.602 265.036Z" fill="#171717" fill-opacity="1.000000" fill-rule="nonzero"/>
				<path id="Vector" d="M459.375 280.152L460.344 279.636L458.109 275.441L459.09 269.148L458.006 268.978L456.969 275.634L459.375 280.152Z" fill="#171717" fill-opacity="1.000000" fill-rule="nonzero"/>
				<path id="Vector" d="M485.168 385.202L486.252 385.373L493.121 341.223L465.941 290.153L464.975 290.67L491.98 341.415L485.168 385.202Z" fill="#171717" fill-opacity="1.000000" fill-rule="nonzero"/>
				<path id="Vector" d="M468.393 236.413L469.475 236.586L475.035 200.872L469.705 190.858L468.736 191.375L473.895 201.064L468.393 236.413Z" fill="#171717" fill-opacity="1.000000" fill-rule="nonzero"/>
				<path id="Vector" d="M465.367 255.852L466.451 256.022L468.873 240.472L467.789 240.302L465.367 255.852Z" fill="#171717" fill-opacity="1.000000" fill-rule="nonzero"/>
				<path id="Vector" d="M462.537 274.869L463.09 274.621L463.562 274.696L465.861 259.925L464.779 259.752L462.451 274.707L462.537 274.869Z" fill="#171717" fill-opacity="1.000000" fill-rule="nonzero"/>
				<path id="Vector" d="M479.477 306.704L480.443 306.187L471.199 288.818L470.232 289.335L479.477 306.704Z" fill="#171717" fill-opacity="1.000000" fill-rule="nonzero"/>
				<path id="Vector" d="M491.322 379.933L492.404 380.104L498.6 340.301L484.141 313.132L483.172 313.648L497.461 340.494L491.322 379.933Z" fill="#171717" fill-opacity="1.000000" fill-rule="nonzero"/>
				<path id="Vector" d="M473.943 235.027L475.027 235.197L480.516 199.944L480.357 199.654L479.707 200.006L479.402 199.958L473.943 235.027Z" fill="#171717" fill-opacity="1.000000" fill-rule="nonzero"/>
				<path id="Vector" d="M471.537 250.583L472.621 250.753L474.438 239.092L473.354 238.921L471.537 250.583Z" fill="#171717" fill-opacity="1.000000" fill-rule="nonzero"/>
				<path id="Vector" d="M470.328 258.362L471.412 258.533L472.018 254.64L470.934 254.47L470.328 258.362Z" fill="#171717" fill-opacity="1.000000" fill-rule="nonzero"/>
				<path id="Vector" d="M469.107 266.193L470.191 266.363L470.803 262.438L469.719 262.268L469.107 266.193Z" fill="#171717" fill-opacity="1.000000" fill-rule="nonzero"/>
				<path id="Vector" d="M471.775 281.014L472.742 280.497L469.068 273.59L469.566 270.391L468.482 270.221L467.928 273.782L471.775 281.014Z" fill="#171717" fill-opacity="1.000000" fill-rule="nonzero"/>
				<path id="Vector" d="M496.873 378.542L497.957 378.712L504.08 339.37L476.459 287.478L475.49 287.995L502.939 339.563L496.873 378.542Z" fill="#171717" fill-opacity="1.000000" fill-rule="nonzero"/>
				<path id="Vector" d="M478.891 237.528L479.975 237.698L484.213 210.468L483.129 210.298L478.891 237.528Z" fill="#171717" fill-opacity="1.000000" fill-rule="nonzero"/>
				<path id="Vector" d="M477.693 245.31L478.777 245.48L479.383 241.592L478.299 241.422L477.693 245.31Z" fill="#171717" fill-opacity="1.000000" fill-rule="nonzero"/>
				<path id="Vector" d="M476.484 253.083L477.568 253.253L478.174 249.365L477.09 249.194L476.484 253.083Z" fill="#171717" fill-opacity="1.000000" fill-rule="nonzero"/>
				<path id="Vector" d="M475.27 260.881L476.354 261.051L476.961 257.149L475.877 256.978L475.27 260.881Z" fill="#171717" fill-opacity="1.000000" fill-rule="nonzero"/>
				<path id="Vector" d="M477.033 279.669L478 279.153L474.547 272.665L475.123 268.968L474.039 268.798L473.406 272.857L477.033 279.669Z" fill="#171717" fill-opacity="1.000000" fill-rule="nonzero"/>
				<path id="Vector" d="M502.424 377.159L503.506 377.329L509.559 338.448L479.863 282.657L478.896 283.174L508.418 338.641L502.424 377.159Z" fill="#171717" fill-opacity="1.000000" fill-rule="nonzero"/>
				<path id="Vector" d="M485.059 232.262L486.143 232.433L489.168 212.982L488.086 212.813L485.059 232.262Z" fill="#171717" fill-opacity="1.000000" fill-rule="nonzero"/>
				<path id="Vector" d="M482.639 247.81L483.723 247.98L484.934 240.207L483.85 240.037L482.639 247.81Z" fill="#171717" fill-opacity="1.000000" fill-rule="nonzero"/>
				<path id="Vector" d="M479.592 267.388L480.674 267.557L482.51 255.762L481.43 255.589L479.592 267.388Z" fill="#171717" fill-opacity="1.000000" fill-rule="nonzero"/>
				<path id="Vector" d="M480.355 274.693L481.322 274.176L479.939 271.573L479.506 271.808L478.924 271.677L478.896 271.859L478.973 272.09L480.355 274.693Z" fill="#171717" fill-opacity="1.000000" fill-rule="nonzero"/>
				<path id="Vector" d="M498.953 309.639L499.92 309.122L483.254 277.81L482.287 278.327L498.953 309.639Z" fill="#171717" fill-opacity="1.000000" fill-rule="nonzero"/>
				<path id="Vector" d="M507.371 379.66L508.455 379.831L515.041 337.522L505.469 319.538L504.502 320.055L513.9 337.715L507.371 379.66Z" fill="#171717" fill-opacity="1.000000" fill-rule="nonzero"/>
				<path id="Vector" d="M489.4 238.65L490.484 238.82L492.906 223.27L491.822 223.097L489.4 238.65Z" fill="#171717" fill-opacity="1.000000" fill-rule="nonzero"/>
				<path id="Vector" d="M488.191 246.423L489.275 246.594L489.877 242.707L488.795 242.538L488.191 246.423Z" fill="#171717" fill-opacity="1.000000" fill-rule="nonzero"/>
				<path id="Vector" d="M485.148 265.979L486.232 266.149L487.459 258.272L486.375 258.101L485.148 265.979Z" fill="#171717" fill-opacity="1.000000" fill-rule="nonzero"/>
				<path id="Vector" d="M502.363 304.826L503.332 304.309L497.789 293.891L496.82 294.41L502.363 304.826Z" fill="#171717" fill-opacity="1.000000" fill-rule="nonzero"/>
				<path id="Vector" d="M507.908 315.241L508.877 314.725L505.182 307.779L504.215 308.296L507.908 315.241Z" fill="#171717" fill-opacity="1.000000" fill-rule="nonzero"/>
				<path id="Vector" d="M512.92 378.273L514.004 378.443L520.516 336.597L512.578 321.676L511.609 322.195L519.375 336.789L512.92 378.273Z" fill="#171717" fill-opacity="1.000000" fill-rule="nonzero"/>
				<path id="Vector" d="M494.348 241.145L495.432 241.315L496.037 237.426L494.953 237.256L494.348 241.145Z" fill="#171717" fill-opacity="1.000000" fill-rule="nonzero"/>
				<path id="Vector" d="M492.531 252.814L493.613 252.984L494.824 245.203L493.74 245.033L492.531 252.814Z" fill="#171717" fill-opacity="1.000000" fill-rule="nonzero"/>
				<path id="Vector" d="M492.799 275.633L493.768 275.117L490.984 269.887L492.4 260.793L491.316 260.623L489.846 270.08L492.799 275.633Z" fill="#171717" fill-opacity="1.000000" fill-rule="nonzero"/>
				<path id="Vector" d="M515.02 317.381L515.986 316.865L503.049 292.558L502.08 293.075L515.02 317.381Z" fill="#171717" fill-opacity="1.000000" fill-rule="nonzero"/>
				<path id="Vector" d="M517.867 380.773L518.951 380.943L525.668 337.781L524.584 337.611L517.867 380.773Z" fill="#171717" fill-opacity="1.000000" fill-rule="nonzero"/>
				<path id="Vector" d="M499.297 243.642L500.381 243.813L501.592 236.035L500.508 235.864L499.297 243.642Z" fill="#171717" fill-opacity="1.000000" fill-rule="nonzero"/>
				<path id="Vector" d="M497.475 255.324L498.559 255.495L499.77 247.707L498.686 247.536L497.475 255.324Z" fill="#171717" fill-opacity="1.000000" fill-rule="nonzero"/>
				<path id="Vector" d="M496.254 263.17L497.338 263.341L497.953 259.398L496.869 259.228L496.254 263.17Z" fill="#171717" fill-opacity="1.000000" fill-rule="nonzero"/>
				<path id="Vector" d="M505.492 288.263L506.461 287.747L496.463 268.959L496.654 267.734L495.57 267.564L495.322 269.152L505.492 288.263Z" fill="#171717" fill-opacity="1.000000" fill-rule="nonzero"/>
				<path id="Vector" d="M518.43 312.569L519.396 312.052L510.156 294.69L509.189 295.207L518.43 312.569Z" fill="#171717" fill-opacity="1.000000" fill-rule="nonzero"/>
				<path id="Vector" d="M522.811 383.277L523.895 383.448L529.947 344.543L528.863 344.373L522.811 383.277Z" fill="#171717" fill-opacity="1.000000" fill-rule="nonzero"/>
				<path id="Vector" d="M503.027 253.933L504.111 254.103L504.717 250.207L503.633 250.037L503.027 253.933Z" fill="#171717" fill-opacity="1.000000" fill-rule="nonzero"/>
				<path id="Vector" d="M503.307 272.934L504.273 272.417L501.943 268.033L502.24 266.121L501.156 265.95L500.803 268.225L503.307 272.934Z" fill="#171717" fill-opacity="1.000000" fill-rule="nonzero"/>
				<path id="Vector" d="M512.604 290.399L513.572 289.882L506.158 275.958L505.189 276.474L512.604 290.399Z" fill="#171717" fill-opacity="1.000000" fill-rule="nonzero"/>
				<path id="Vector" d="M519.994 304.288L520.963 303.771L517.266 296.828L516.297 297.345L519.994 304.288Z" fill="#171717" fill-opacity="1.000000" fill-rule="nonzero"/>
				<path id="Vector" d="M527.15 389.669L528.234 389.84L534.893 347.063L533.809 346.893L527.15 389.669Z" fill="#171717" fill-opacity="1.000000" fill-rule="nonzero"/>
				<path id="Vector" d="M519.711 292.536L520.678 292.02L507.424 267.109L509.055 256.618L507.971 256.448L506.283 267.301L519.711 292.536Z" fill="#171717" fill-opacity="1.000000" fill-rule="nonzero"/>
				<path id="Vector" d="M530.234 404.137L531.316 404.308L539.838 349.572L538.754 349.402L530.234 404.137Z" fill="#171717" fill-opacity="1.000000" fill-rule="nonzero"/>
				<path id="Vector" d="M515.705 273.79L516.674 273.274L512.9 266.185L513.367 263.193L512.283 263.022L511.76 266.377L515.705 273.79Z" fill="#171717" fill-opacity="1.000000" fill-rule="nonzero"/>
				<path id="Vector" d="M524.971 291.199L525.939 290.682L518.537 276.774L517.568 277.29L524.971 291.199Z" fill="#171717" fill-opacity="1.000000" fill-rule="nonzero"/>
				<path id="Vector" d="M544.986 423.972L545.955 423.456L536.451 405.602L544.781 352.077L543.697 351.907L535.311 405.795L544.986 423.972Z" fill="#171717" fill-opacity="1.000000" fill-rule="nonzero"/>
				<path id="Vector" d="M542.73 408.513L543.699 407.996L541.932 404.677L549.729 354.58L548.645 354.41L540.791 404.87L542.73 408.513Z" fill="#171717" fill-opacity="1.000000" fill-rule="nonzero"/>
				<path id="Vector" d="M549.908 410.78L550.875 410.263L547.412 403.753L554.676 357.083L553.592 356.912L546.271 403.945L549.908 410.78Z" fill="#171717" fill-opacity="1.000000" fill-rule="nonzero"/>
				<path id="Vector" d="M557.414 413.662L558.383 413.145L552.891 402.828L559.623 359.582L558.539 359.412L551.752 403.02L557.414 413.662Z" fill="#171717" fill-opacity="1.000000" fill-rule="nonzero"/>
				<path id="Vector" d="M558.637 393.048L559.721 393.219L565.172 358.193L564.088 358.023L558.637 393.048Z" fill="#171717" fill-opacity="1.000000" fill-rule="nonzero"/>
				<path id="Vector" d="M558.492 404.467L559.459 403.951L558.367 401.902L559.102 397.186L558.018 397.016L557.227 402.095L558.492 404.467Z" fill="#171717" fill-opacity="1.000000" fill-rule="nonzero"/>
				<path id="Vector" d="M562.732 400.989L563.818 401.16L569.512 364.582L568.428 364.411L562.732 400.989Z" fill="#171717" fill-opacity="1.000000" fill-rule="nonzero"/>
				<path id="Vector" d="M570.373 386.195L571.457 386.365L573.273 374.691L572.189 374.521L570.373 386.195Z" fill="#171717" fill-opacity="1.000000" fill-rule="nonzero"/>
				<path id="Vector" d="M568.426 398.708L569.51 398.878L570.234 394.22L569.15 394.05L568.426 398.708Z" fill="#171717" fill-opacity="1.000000" fill-rule="nonzero"/>
			</g>
		</g>
	</g>
</svg>
