<svg width="452.000000" height="270.000000" viewBox="0 0 452 270" fill="none" xmlns="http://www.w3.org/2000/svg" xmlns:xlink="http://www.w3.org/1999/xlink">
	<desc>
			Created with Pixso.
	</desc>
	<defs/>
	<g opacity="0.400000">
		<mask id="mask72_210" mask-type="alpha" maskUnits="userSpaceOnUse" x="0.000000" y="0.000000" width="452.000000" height="270.000000">
			<path id="Vector" d="M448.201 0L3.79883 0C1.70117 0 0 1.48322 0 3.31287L0 266.687C0 268.517 1.70117 270 3.79883 270L448.201 270C450.299 270 452 268.517 452 266.687L452 3.31287C452 1.48322 450.299 0 448.201 0Z" fill="#000000" fill-opacity="1.000000" fill-rule="evenodd"/>
		</mask>
		<g mask="url(#mask72_210)">
			<g opacity="0.400000">
				<path id="Vector" d="M16.1406 265.355L17.0195 264.917L12.291 255.462L11.4121 255.9L16.1406 265.355Z" fill="#FFFFFF" fill-opacity="1.000000" fill-rule="nonzero"/>
				<path id="Vector" d="M21.4238 265.363L22.3008 264.925L9.69336 239.704L8.81445 240.143L21.4238 265.363Z" fill="#FFFFFF" fill-opacity="1.000000" fill-rule="nonzero"/>
				<path id="Vector" d="M23.5547 259.062L24.4375 258.624L11.8223 233.398L10.9434 233.836L23.5547 259.062Z" fill="#FFFFFF" fill-opacity="1.000000" fill-rule="nonzero"/>
				<path id="Vector" d="M22.5332 246.461L23.4141 246.023L21.8379 242.869L20.959 243.307L22.5332 246.461Z" fill="#FFFFFF" fill-opacity="1.000000" fill-rule="nonzero"/>
				<path id="Vector" d="M33.1035 246.469L33.9824 246.03L27.6777 233.422L26.7988 233.863L33.1035 246.469Z" fill="#FFFFFF" fill-opacity="1.000000" fill-rule="nonzero"/>
				<path id="Vector" d="M42.5859 265.445L43.4668 265.007L38.709 255.493L37.8301 255.931L42.5859 265.445Z" fill="#FFFFFF" fill-opacity="1.000000" fill-rule="nonzero"/>
				<path id="Vector" d="M71.4941 284.039L71.9355 283.159L46.0781 270.233L45.1348 268.338L44.2539 268.777L45.3457 270.965L71.4941 284.039Z" fill="#FFFFFF" fill-opacity="1.000000" fill-rule="nonzero"/>
				<path id="Vector" d="M75.3887 280.699L75.8262 279.82L49.5996 266.708L29.8066 227.122L28.9277 227.56L48.8672 267.44L75.3887 280.699Z" fill="#FFFFFF" fill-opacity="1.000000" fill-rule="nonzero"/>
				<path id="Vector" d="M76.1289 275.793L76.5664 274.913L53.1172 263.19L23.2578 203.467L12.0508 197.866L11.6152 198.745L22.5273 204.2L52.3848 263.923L76.1289 275.793Z" fill="#FFFFFF" fill-opacity="1.000000" fill-rule="nonzero"/>
				<path id="Vector" d="M80.0234 272.461L80.4609 271.581L56.6406 259.67L26.7793 199.95L9.63281 191.374L9.19141 192.254L26.0469 200.682L55.9062 260.402L80.0234 272.461Z" fill="#FFFFFF" fill-opacity="1.000000" fill-rule="nonzero"/>
				<path id="Vector" d="M80.7637 267.551L81.2031 266.671L60.1582 256.148L30.3008 196.428L7.21875 184.888L6.7793 185.768L29.5664 197.16L59.4297 256.881L80.7637 267.551Z" fill="#FFFFFF" fill-opacity="1.000000" fill-rule="nonzero"/>
				<path id="Vector" d="M81.5059 262.641L81.9434 261.758L63.6777 252.626L33.8203 192.909L17.418 184.707L16.9785 185.587L33.0898 193.642L62.9453 253.359L81.5059 262.641Z" fill="#FFFFFF" fill-opacity="1.000000" fill-rule="nonzero"/>
				<path id="Vector" d="M-23.1934 160.102L-22.3125 159.663L-52.2441 99.8079L-111.959 69.9479L-141.822 10.2268L-148.684 6.79541L-149.125 7.67523L-142.551 10.9595L-112.691 70.6799L-52.9766 100.541L-23.1934 160.102Z" fill="#FFFFFF" fill-opacity="1.000000" fill-rule="nonzero"/>
				<path id="Vector" d="M82.248 257.73L82.6836 256.851L67.2012 249.108L37.3418 189.39L-10.2207 165.61L-10.6582 166.49L36.6094 190.123L66.4688 249.84L82.248 257.73Z" fill="#FFFFFF" fill-opacity="1.000000" fill-rule="nonzero"/>
				<path id="Vector" d="M-17.6016 157.734L-17.1641 156.855L-18.8574 156.009L-48.7188 96.29L-108.438 66.4301L-138.299 6.70941L-145.914 2.90063L-146.352 3.78052L-139.027 7.44214L-109.172 67.162L-49.4473 97.023L-19.5918 156.741L-17.6016 157.734Z" fill="#FFFFFF" fill-opacity="1.000000" fill-rule="nonzero"/>
				<path id="Vector" d="M23.6523 178.359L24.0918 177.48L-10.6074 160.13L-11.0469 161.01L23.6523 178.359Z" fill="#FFFFFF" fill-opacity="1.000000" fill-rule="nonzero"/>
				<path id="Vector" d="M85.0215 253.836L85.459 252.956L70.7227 245.587L40.8633 185.867L27.2441 179.057L26.8066 179.937L40.1309 186.6L69.9902 246.319L85.0215 253.836Z" fill="#FFFFFF" fill-opacity="1.000000" fill-rule="nonzero"/>
				<path id="Vector" d="M-9.96484 156.273L-9.52344 155.394L-15.3359 152.487L-45.1953 92.7679L-104.916 62.908L-133.494 5.75146L-134.373 6.18988L-105.648 63.64L-45.9258 93.501L-16.0684 153.22L-9.96484 156.273Z" fill="#FFFFFF" fill-opacity="1.000000" fill-rule="nonzero"/>
				<path id="Vector" d="M24.7676 173.637L25.207 172.757L-6.33984 156.985L-6.77734 157.864L24.7676 173.637Z" fill="#FFFFFF" fill-opacity="1.000000" fill-rule="nonzero"/>
				<path id="Vector" d="M86.1328 249.113L86.5703 248.231L74.2441 242.067L44.3848 182.348L31.5137 175.914L31.0762 176.794L43.6504 183.081L73.5117 242.8L86.1328 249.113Z" fill="#FFFFFF" fill-opacity="1.000000" fill-rule="nonzero"/>
				<path id="Vector" d="M0.660156 156.301L1.09766 155.421L-11.8145 148.966L-41.6719 89.2461L-101.391 59.386L-127.949 6.28027L-128.828 6.71857L-102.129 60.118L-42.4062 89.9791L-12.5469 149.699L0.660156 156.301Z" fill="#FFFFFF" fill-opacity="1.000000" fill-rule="nonzero"/>
				<path id="Vector" d="M29.0312 170.488L29.4707 169.608L4.25195 156.999L3.81445 157.878L29.0312 170.488Z" fill="#FFFFFF" fill-opacity="1.000000" fill-rule="nonzero"/>
				<path id="Vector" d="M87.2383 244.379L87.6777 243.499L77.7637 238.545L47.9043 178.824L32.625 171.185L32.1855 172.065L47.1699 179.556L77.0312 239.278L87.2383 244.379Z" fill="#FFFFFF" fill-opacity="1.000000" fill-rule="nonzero"/>
				<path id="Vector" d="M1.76172 151.574L2.19922 150.695L-8.29297 145.446L-38.1562 85.7261L-97.877 55.8671L-124.051 3.51465L-124.932 3.95288L-98.6094 56.6L-38.8887 86.458L-9.0293 146.179L1.76172 151.574Z" fill="#FFFFFF" fill-opacity="1.000000" fill-rule="nonzero"/>
				<path id="Vector" d="M30.1484 165.766L30.5859 164.885L8.51758 153.851L8.08008 154.731L30.1484 165.766Z" fill="#FFFFFF" fill-opacity="1.000000" fill-rule="nonzero"/>
				<path id="Vector" d="M85.1348 238.051L85.5723 237.171L81.2871 235.027L51.4258 175.307L33.7402 166.463L33.3008 167.343L50.6934 176.04L80.5527 235.759L85.1348 238.051Z" fill="#FFFFFF" fill-opacity="1.000000" fill-rule="nonzero"/>
				<path id="Vector" d="M83.9023 231.895L84.7812 231.456L54.9473 171.784L-4.77539 141.924L-34.6309 82.204L-94.3535 52.345L-120.15 0.747559L-121.029 1.18524L-95.084 53.0771L-35.3672 82.936L-5.50586 142.657L54.2148 172.517L83.9023 231.895Z" fill="#FFFFFF" fill-opacity="1.000000" fill-rule="nonzero"/>
				<path id="Vector" d="M35.5273 157.895L35.9668 157.014L-1.25977 138.403L-31.1191 78.6839L-90.8379 48.8229L-114.678 1.14429L-115.557 1.58319L-91.5684 49.5559L-31.8516 79.4159L-1.99219 139.135L35.5273 157.895Z" fill="#FFFFFF" fill-opacity="1.000000" fill-rule="nonzero"/>
				<path id="Vector" d="M85.9082 225.352L86.7871 224.913L58.4629 168.266L39.1172 158.594L38.6797 159.473L57.7305 168.999L85.9082 225.352Z" fill="#FFFFFF" fill-opacity="1.000000" fill-rule="nonzero"/>
				<path id="Vector" d="M88.1836 219.34L89.0664 218.904L61.9844 164.741L2.26367 134.88L-27.5977 75.162L-87.3184 45.3011L-109.203 1.52856L-110.086 1.96716L-88.0508 46.0341L-28.3301 75.894L1.5293 135.613L61.25 165.474L88.1836 219.34Z" fill="#FFFFFF" fill-opacity="1.000000" fill-rule="nonzero"/>
				<path id="Vector" d="M90.4922 213.391L91.373 212.952L65.5078 161.223L5.78711 131.364L-24.0703 71.6439L-83.791 41.7834L-113.508 -17.6536L-114.389 -17.2186L-84.5234 42.5164L-24.8027 72.376L5.05664 132.097L64.7773 161.955L90.4922 213.391Z" fill="#FFFFFF" fill-opacity="1.000000" fill-rule="nonzero"/>
				<path id="Vector" d="M2.97266 117.371L3.84961 116.933L-20.5527 68.123L-80.2695 38.2632L-107.924 -17.0417L-108.805 -16.6033L-81.002 38.9963L-21.2891 68.8561L2.97266 117.371Z" fill="#FFFFFF" fill-opacity="1.000000" fill-rule="nonzero"/>
				<path id="Vector" d="M91.0547 203.957L91.9336 203.519L69.0293 157.703L9.30273 127.844L8.82031 126.873L7.94141 127.312L8.57227 128.577L68.291 158.436L91.0547 203.957Z" fill="#FFFFFF" fill-opacity="1.000000" fill-rule="nonzero"/>
				<path id="Vector" d="M5.09961 111.066L5.98047 110.629L-17.0332 64.6041L-76.752 34.7455L-102.609 -16.9785L-103.49 -16.5403L-77.4824 35.478L-17.7617 65.3361L5.09961 111.066Z" fill="#FFFFFF" fill-opacity="1.000000" fill-rule="nonzero"/>
				<path id="Vector" d="M42.4336 140.227L42.873 139.347L12.8262 124.323L12.7227 124.109L11.8418 124.547L12.0938 125.056L42.4336 140.227Z" fill="#FFFFFF" fill-opacity="1.000000" fill-rule="nonzero"/>
				<path id="Vector" d="M94.7598 200.812L95.6406 200.374L72.5469 154.184L46.0254 140.923L45.5879 141.803L71.8145 154.917L94.7598 200.812Z" fill="#FFFFFF" fill-opacity="1.000000" fill-rule="nonzero"/>
				<path id="Vector" d="M4.07812 98.457L4.95703 98.019L-13.5078 61.085L-73.2285 31.2245L-98.9043 -20.1226L-99.7832 -19.6833L-73.9609 31.9573L-14.2402 61.817L4.07812 98.457Z" fill="#FFFFFF" fill-opacity="1.000000" fill-rule="nonzero"/>
				<path id="Vector" d="M8.80664 107.918L9.6875 107.48L6.5293 101.169L5.65039 101.607L8.80664 107.918Z" fill="#FFFFFF" fill-opacity="1.000000" fill-rule="nonzero"/>
				<path id="Vector" d="M40.0215 133.738L40.4609 132.859L16.3457 120.8L11.2676 110.64L10.3867 111.078L15.6152 121.533L40.0215 133.738Z" fill="#FFFFFF" fill-opacity="1.000000" fill-rule="nonzero"/>
				<path id="Vector" d="M100.049 200.828L100.93 200.39L76.0645 150.664L56.2227 140.741L55.7832 141.621L75.332 151.397L100.049 200.828Z" fill="#FFFFFF" fill-opacity="1.000000" fill-rule="nonzero"/>
				<path id="Vector" d="M9.35742 98.4609L10.2383 98.0229L-9.99219 57.5609L-69.7129 27.7009L-93.6133 -20.1042L-94.4941 -19.6653L-70.4473 28.4338L-10.7266 58.2939L9.35742 98.4609Z" fill="#FFFFFF" fill-opacity="1.000000" fill-rule="nonzero"/>
				<path id="Vector" d="M37.6133 127.254L38.0527 126.374L19.8691 117.282L14.9746 107.497L14.0938 107.935L19.1387 118.015L37.6133 127.254Z" fill="#FFFFFF" fill-opacity="1.000000" fill-rule="nonzero"/>
				<path id="Vector" d="M47.0684 131.98L47.5078 131.1L44.3574 129.525L43.918 130.404L47.0684 131.98Z" fill="#FFFFFF" fill-opacity="1.000000" fill-rule="nonzero"/>
				<path id="Vector" d="M103.76 197.684L104.641 197.245L79.5879 147.144L60.1172 137.408L59.6797 138.288L78.8555 147.876L103.76 197.684Z" fill="#FFFFFF" fill-opacity="1.000000" fill-rule="nonzero"/>
				<path id="Vector" d="M50.9668 128.648L51.4062 127.768L23.3906 113.761L-6.47266 54.042L-66.1914 24.182L-85.1699 -13.7793L-86.0508 -13.343L-66.9238 24.9144L-7.20508 54.775L22.6582 114.493L50.9668 128.648Z" fill="#FFFFFF" fill-opacity="1.000000" fill-rule="nonzero"/>
				<path id="Vector" d="M60.4219 133.379L60.8594 132.499L57.709 130.923L57.2695 131.803L60.4219 133.379Z" fill="#FFFFFF" fill-opacity="1.000000" fill-rule="nonzero"/>
				<path id="Vector" d="M110.688 200.969L111.566 200.53L83.1113 143.619L76.668 140.399L76.2285 141.279L82.377 144.352L110.688 200.969Z" fill="#FFFFFF" fill-opacity="1.000000" fill-rule="nonzero"/>
				<path id="Vector" d="M26.3574 111.062L26.5449 110.604L26.9805 110.387L-2.95117 50.5191L-62.6699 20.6594L-79.8906 -13.7793L-80.7715 -13.3399L-63.4043 21.3922L-3.68359 51.2531L26.1836 110.994L26.3574 111.062Z" fill="#FFFFFF" fill-opacity="1.000000" fill-rule="nonzero"/>
				<path id="Vector" d="M54.8594 125.316L55.2988 124.436L33.1875 113.381L32.748 114.261L54.8594 125.316Z" fill="#FFFFFF" fill-opacity="1.000000" fill-rule="nonzero"/>
				<path id="Vector" d="M115.904 200.625L116.145 200.175L116.562 199.966L86.6289 140.099L80.5664 137.069L80.127 137.949L85.8965 140.832L115.756 200.551L115.904 200.625Z" fill="#FFFFFF" fill-opacity="1.000000" fill-rule="nonzero"/>
				<path id="Vector" d="M29.8438 107.527L30.1211 107.058L30.5039 106.868L0.568359 47.0009L-30.5547 31.4399L-30.9922 32.3207L-0.164062 47.7329L29.6934 107.454L29.8438 107.527Z" fill="#FFFFFF" fill-opacity="1.000000" fill-rule="nonzero"/>
				<path id="Vector" d="M58.7559 121.98L59.1934 121.101L40.2617 111.635L39.8242 112.516L58.7559 121.98Z" fill="#FFFFFF" fill-opacity="1.000000" fill-rule="nonzero"/>
				<path id="Vector" d="M65.0586 125.133L65.4961 124.253L62.3457 122.678L61.9062 123.557L65.0586 125.133Z" fill="#FFFFFF" fill-opacity="1.000000" fill-rule="nonzero"/>
				<path id="Vector" d="M126.395 200.59L126.832 199.71L120.008 196.298L90.1504 136.58L87.7754 135.393L87.3379 136.273L89.418 137.312L119.273 197.03L126.395 200.59Z" fill="#FFFFFF" fill-opacity="1.000000" fill-rule="nonzero"/>
				<path id="Vector" d="M191.924 252.754L192.805 252.316L188.076 242.854L187.195 243.293L191.924 252.754Z" fill="#FFFFFF" fill-opacity="1.000000" fill-rule="nonzero"/>
				<path id="Vector" d="M33.5508 104.098L33.8828 103.418L34.0273 103.349L33.9727 103.242L33.9844 103.217L33.9531 103.2L4.09375 43.4832L-36.1133 23.3792L-36.5527 24.2593L3.36133 44.2161L33.2188 103.936L33.5508 104.098Z" fill="#FFFFFF" fill-opacity="1.000000" fill-rule="nonzero"/>
				<path id="Vector" d="M59.4941 117.074L59.9336 116.195L53.6309 113.041L53.1934 113.921L59.4941 117.074Z" fill="#FFFFFF" fill-opacity="1.000000" fill-rule="nonzero"/>
				<path id="Vector" d="M68.9512 121.801L69.3906 120.921L63.0859 117.77L62.6484 118.65L68.9512 121.801Z" fill="#FFFFFF" fill-opacity="1.000000" fill-rule="nonzero"/>
				<path id="Vector" d="M81.5703 128.109L82.0098 127.229L78.8496 125.651L78.4121 126.53L81.5703 128.109Z" fill="#FFFFFF" fill-opacity="1.000000" fill-rule="nonzero"/>
				<path id="Vector" d="M130.295 197.262L130.732 196.382L123.531 192.781L93.6719 133.061L88.3691 130.411L87.9316 131.29L92.9375 133.794L122.799 193.514L130.295 197.262Z" fill="#FFFFFF" fill-opacity="1.000000" fill-rule="nonzero"/>
				<path id="Vector" d="M200.363 259.062L201.242 258.624L183.25 222.642L178.119 220.074L177.682 220.956L182.518 223.375L200.363 259.062Z" fill="#FFFFFF" fill-opacity="1.000000" fill-rule="nonzero"/>
				<path id="Vector" d="M44.4434 104.266L44.8809 103.386L37.4707 99.6799L7.61133 39.9609L-35.3789 18.4666L-35.8164 19.3456L6.875 40.6927L36.7383 100.412L44.4434 104.266Z" fill="#FFFFFF" fill-opacity="1.000000" fill-rule="nonzero"/>
				<path id="Vector" d="M72.8438 118.465L73.2812 117.585L51.2109 106.549L50.7734 107.429L72.8438 118.465Z" fill="#FFFFFF" fill-opacity="1.000000" fill-rule="nonzero"/>
				<path id="Vector" d="M85.4688 124.777L85.9062 123.897L76.4355 119.164L75.998 120.044L85.4688 124.777Z" fill="#FFFFFF" fill-opacity="1.000000" fill-rule="nonzero"/>
				<path id="Vector" d="M134.191 193.93L134.629 193.05L127.051 189.262L97.1914 129.541L89.0742 125.483L88.6367 126.363L96.457 130.274L126.318 189.994L134.191 193.93Z" fill="#FFFFFF" fill-opacity="1.000000" fill-rule="nonzero"/>
				<path id="Vector" d="M258.643 300.945L259.082 300.066L216.631 278.84L186.773 219.12L185.85 218.658L185.41 219.538L186.039 219.852L215.898 279.573L258.643 300.945Z" fill="#FFFFFF" fill-opacity="1.000000" fill-rule="nonzero"/>
				<path id="Vector" d="M45.1426 99.332L45.582 98.452L40.9902 96.157L11.1328 36.4377L-22.0215 19.8594L-22.4609 20.7386L10.3984 37.1704L40.2598 96.889L45.1426 99.332Z" fill="#FFFFFF" fill-opacity="1.000000" fill-rule="nonzero"/>
				<path id="Vector" d="M70.4375 111.98L70.875 111.101L48.7812 100.054L48.3438 100.934L70.4375 111.98Z" fill="#FFFFFF" fill-opacity="1.000000" fill-rule="nonzero"/>
				<path id="Vector" d="M79.8945 116.711L80.332 115.831L74.0273 112.678L73.5898 113.558L79.8945 116.711Z" fill="#FFFFFF" fill-opacity="1.000000" fill-rule="nonzero"/>
				<path id="Vector" d="M138.09 190.594L138.527 189.714L130.57 185.737L100.711 126.017L100.137 125.729L99.6973 126.609L99.9766 126.749L129.84 186.47L138.09 190.594Z" fill="#FFFFFF" fill-opacity="1.000000" fill-rule="nonzero"/>
				<path id="Vector" d="M259.383 296.035L259.82 295.156L220.15 275.318L190.289 215.598L189.84 215.375L189.4 216.254L189.557 216.331L219.418 276.051L259.383 296.035Z" fill="#FFFFFF" fill-opacity="1.000000" fill-rule="nonzero"/>
				<path id="Vector" d="M74.3301 108.648L74.7676 107.769L44.5117 92.641L14.6523 32.9212L-18.1289 16.5305L-18.5684 17.4095L13.918 33.6547L43.7793 93.374L74.3301 108.648Z" fill="#FFFFFF" fill-opacity="1.000000" fill-rule="nonzero"/>
				<path id="Vector" d="M83.7832 113.375L84.2227 112.495L77.918 109.342L77.4805 110.222L83.7832 113.375Z" fill="#FFFFFF" fill-opacity="1.000000" fill-rule="nonzero"/>
				<path id="Vector" d="M93.2578 118.109L93.6953 117.229L90.5332 115.649L90.0938 116.529L93.2578 118.109Z" fill="#FFFFFF" fill-opacity="1.000000" fill-rule="nonzero"/>
				<path id="Vector" d="M141.984 187.266L142.422 186.386L134.09 182.22L105.225 124.491L104.346 124.929L133.357 182.953L141.984 187.266Z" fill="#FFFFFF" fill-opacity="1.000000" fill-rule="nonzero"/>
				<path id="Vector" d="M256.975 289.547L257.412 288.667L223.674 271.796L194.906 214.267L194.027 214.706L222.939 272.528L256.975 289.547Z" fill="#FFFFFF" fill-opacity="1.000000" fill-rule="nonzero"/>
				<path id="Vector" d="M-24.1348 9.34778L-23.6953 8.46716L-36.3652 2.13257L-36.8027 3.01318L-24.1348 9.34778Z" fill="#FFFFFF" fill-opacity="1.000000" fill-rule="nonzero"/>
				<path id="Vector" d="M-8.37109 17.2305L-7.93164 16.3478L-11.0801 14.7729L-11.5215 15.6525L-8.37109 17.2305Z" fill="#FFFFFF" fill-opacity="1.000000" fill-rule="nonzero"/>
				<path id="Vector" d="M87.6797 110.043L88.1172 109.163L48.0312 89.12L18.1699 29.3999L1.52539 21.0762L1.08789 21.9551L17.4375 30.1328L47.2988 89.852L87.6797 110.043Z" fill="#FFFFFF" fill-opacity="1.000000" fill-rule="nonzero"/>
				<path id="Vector" d="M93.9883 113.195L94.4277 112.316L91.2715 110.739L90.832 111.618L93.9883 113.195Z" fill="#FFFFFF" fill-opacity="1.000000" fill-rule="nonzero"/>
				<path id="Vector" d="M107.096 119.75L107.531 118.87L100.766 115.487L100.328 116.367L107.096 119.75Z" fill="#FFFFFF" fill-opacity="1.000000" fill-rule="nonzero"/>
				<path id="Vector" d="M142.695 182.34L143.135 181.46L137.613 178.699L112.213 127.898L111.332 128.336L136.877 179.431L142.695 182.34Z" fill="#FFFFFF" fill-opacity="1.000000" fill-rule="nonzero"/>
				<path id="Vector" d="M257.715 284.637L258.152 283.757L227.191 268.277L198.639 211.172L197.76 211.611L226.459 269.009L257.715 284.637Z" fill="#FFFFFF" fill-opacity="1.000000" fill-rule="nonzero"/>
				<path id="Vector" d="M-1.32617 15.4689L-0.886719 14.5892L-4.03906 13.0146L-4.47852 13.8942L-1.32617 15.4689Z" fill="#FFFFFF" fill-opacity="1.000000" fill-rule="nonzero"/>
				<path id="Vector" d="M82.1152 101.98L82.5547 101.101L51.5527 85.5989L21.6934 25.8773L18.1484 24.1062L17.709 24.9859L20.957 26.6098L50.8203 86.3309L82.1152 101.98Z" fill="#FFFFFF" fill-opacity="1.000000" fill-rule="nonzero"/>
				<path id="Vector" d="M91.5742 106.707L92.0137 105.827L85.709 102.674L85.2715 103.554L91.5742 106.707Z" fill="#FFFFFF" fill-opacity="1.000000" fill-rule="nonzero"/>
				<path id="Vector" d="M146.598 179.008L147.035 178.128L141.131 175.177L111.271 115.458L104.666 112.155L104.229 113.034L110.539 116.191L140.398 175.909L146.598 179.008Z" fill="#FFFFFF" fill-opacity="1.000000" fill-rule="nonzero"/>
				<path id="Vector" d="M255.305 278.152L255.742 277.273L230.713 264.758L202.363 208.062L201.484 208.5L229.98 265.491L255.305 278.152Z" fill="#FFFFFF" fill-opacity="1.000000" fill-rule="nonzero"/>
				<path id="Vector" d="M2.56836 12.1328L3.00781 11.2545L-3.29688 8.10083L-3.73633 8.98212L2.56836 12.1328Z" fill="#FFFFFF" fill-opacity="1.000000" fill-rule="nonzero"/>
				<path id="Vector" d="M15.1973 18.4453L15.6367 17.5681L12.4688 15.9858L12.0312 16.8661L15.1973 18.4453Z" fill="#FFFFFF" fill-opacity="1.000000" fill-rule="nonzero"/>
				<path id="Vector" d="M121.908 128.367L122.789 127.929L114.793 111.937L55.0723 82.077L31.5469 35.0256L30.668 35.4639L54.3398 82.8101L114.061 112.67L121.908 128.367Z" fill="#FFFFFF" fill-opacity="1.000000" fill-rule="nonzero"/>
				<path id="Vector" d="M144.035 172.441L144.293 172.017L144.727 171.802L124.365 131.082L123.486 131.52L143.912 172.368L144.035 172.441Z" fill="#FFFFFF" fill-opacity="1.000000" fill-rule="nonzero"/>
				<path id="Vector" d="M256.047 273.242L256.484 272.363L234.23 261.239L207.701 208.177L206.822 208.615L233.498 261.972L256.047 273.242Z" fill="#FFFFFF" fill-opacity="1.000000" fill-rule="nonzero"/>
				<path id="Vector" d="M6.46484 8.80481L6.90234 7.9248L-2.55273 3.1936L-2.99219 4.07361L6.46484 8.80481Z" fill="#FFFFFF" fill-opacity="1.000000" fill-rule="nonzero"/>
				<path id="Vector" d="M34.3711 32.3163L35.252 31.8781L30.4668 22.3022L29.5859 22.7405L34.3711 32.3163Z" fill="#FFFFFF" fill-opacity="1.000000" fill-rule="nonzero"/>
				<path id="Vector" d="M127.193 128.375L128.072 127.937L118.314 108.418L58.5938 78.558L38.4102 38.1895L37.5312 38.6307L57.8613 79.29L117.582 109.15L127.193 128.375Z" fill="#FFFFFF" fill-opacity="1.000000" fill-rule="nonzero"/>
				<path id="Vector" d="M146.207 166.402L147.088 165.964L145.438 162.664L144.559 163.102L146.207 166.402Z" fill="#FFFFFF" fill-opacity="1.000000" fill-rule="nonzero"/>
				<path id="Vector" d="M253.635 266.758L254.072 265.878L237.754 257.717L211.412 205.034L210.533 205.473L237.02 258.45L253.635 266.758Z" fill="#FFFFFF" fill-opacity="1.000000" fill-rule="nonzero"/>
				<path id="Vector" d="M7.20703 3.89069L7.64453 3.01099L-11.2695 -6.448L-11.707 -5.56512L7.20703 3.89069Z" fill="#FFFFFF" fill-opacity="1.000000" fill-rule="nonzero"/>
				<path id="Vector" d="M38.082 29.1719L38.9629 28.7335L34.1816 19.1724L33.3027 19.6108L38.082 29.1719Z" fill="#FFFFFF" fill-opacity="1.000000" fill-rule="nonzero"/>
				<path id="Vector" d="M112.736 101.449L113.176 100.57L62.1113 75.0398L40.5371 31.8916L39.6582 32.3299L61.377 75.7718L112.736 101.449Z" fill="#FFFFFF" fill-opacity="1.000000" fill-rule="nonzero"/>
				<path id="Vector" d="M127.744 118.918L128.625 118.479L121.982 105.193L121.104 105.631L127.744 118.918Z" fill="#FFFFFF" fill-opacity="1.000000" fill-rule="nonzero"/>
				<path id="Vector" d="M254.375 261.844L254.812 260.964L241.275 254.195L215.123 201.891L214.244 202.33L240.543 254.927L254.375 261.844Z" fill="#FFFFFF" fill-opacity="1.000000" fill-rule="nonzero"/>
				<path id="Vector" d="M1.64453 -4.16791L2.08008 -5.04932L-23.9434 -18.0632L-24.793 -19.7556L-25.6719 -19.3197L-24.6777 -17.3291L1.64453 -4.16791Z" fill="#FFFFFF" fill-opacity="1.000000" fill-rule="nonzero"/>
				<path id="Vector" d="M116.635 98.1171L117.072 97.2371L65.6348 71.5181L39.5039 19.2561L38.6211 19.6945L64.9004 72.2511L116.635 98.1171Z" fill="#FFFFFF" fill-opacity="1.000000" fill-rule="nonzero"/>
				<path id="Vector" d="M128.287 109.438L129.168 108.999L125.598 101.858L124.717 102.297L128.287 109.438Z" fill="#FFFFFF" fill-opacity="1.000000" fill-rule="nonzero"/>
				<path id="Vector" d="M251.936 255.344L252.375 254.464L244.795 250.672L218.828 198.745L217.949 199.183L244.062 251.405L251.936 255.344Z" fill="#FFFFFF" fill-opacity="1.000000" fill-rule="nonzero"/>
				<path id="Vector" d="M63.0742 58.0349L63.9531 57.5969L43.4414 16.5781L42.5625 17.0135L63.0742 58.0349Z" fill="#FFFFFF" fill-opacity="1.000000" fill-rule="nonzero"/>
				<path id="Vector" d="M70.2148 69.6251L70.6523 68.7451L69.1562 67.9951L65.543 60.7671L64.6641 61.2051L68.4219 68.7281L70.2148 69.6251Z" fill="#FFFFFF" fill-opacity="1.000000" fill-rule="nonzero"/>
				<path id="Vector" d="M117.824 93.4299L118.264 92.5499L74.0488 70.4429L73.6113 71.3219L117.824 93.4299Z" fill="#FFFFFF" fill-opacity="1.000000" fill-rule="nonzero"/>
				<path id="Vector" d="M253.111 250.652L253.549 249.773L248.314 247.154L221.178 192.877L220.297 193.315L247.582 247.887L253.111 250.652Z" fill="#FFFFFF" fill-opacity="1.000000" fill-rule="nonzero"/>
				<path id="Vector" d="M65.3887 52.1019L66.2695 51.663L47.3438 13.8071L46.4609 14.2454L65.3887 52.1019Z" fill="#FFFFFF" fill-opacity="1.000000" fill-rule="nonzero"/>
				<path id="Vector" d="M103.168 80.8159L103.605 79.9359L87.8398 72.0559L87.4023 72.9359L103.168 80.8159Z" fill="#FFFFFF" fill-opacity="1.000000" fill-rule="nonzero"/>
				<path id="Vector" d="M112.619 85.5471L113.059 84.6671L106.754 81.5161L106.316 82.3961L112.619 85.5471Z" fill="#FFFFFF" fill-opacity="1.000000" fill-rule="nonzero"/>
				<path id="Vector" d="M254.133 245.883L254.57 245.003L251.834 243.635L226.668 193.303L225.787 193.741L251.102 244.368L254.133 245.883Z" fill="#FFFFFF" fill-opacity="1.000000" fill-rule="nonzero"/>
				<path id="Vector" d="M-20.3906 -40.4413L-19.5098 -40.8806L-21.0957 -44.0474L-21.9727 -43.6082L-20.3906 -40.4413Z" fill="#FFFFFF" fill-opacity="1.000000" fill-rule="nonzero"/>
				<path id="Vector" d="M62.9727 36.7109L63.8555 36.2726L49.6504 7.85986L48.7676 8.29828L62.9727 36.7109Z" fill="#FFFFFF" fill-opacity="1.000000" fill-rule="nonzero"/>
				<path id="Vector" d="M66.127 43.0156L67.0078 42.5773L65.4316 39.4236L64.5508 39.8619L66.127 43.0156Z" fill="#FFFFFF" fill-opacity="1.000000" fill-rule="nonzero"/>
				<path id="Vector" d="M72.459 55.676L73.3398 55.2369L71.748 52.054L70.8691 52.4929L72.459 55.676Z" fill="#FFFFFF" fill-opacity="1.000000" fill-rule="nonzero"/>
				<path id="Vector" d="M85.3516 66.6289L85.7891 65.7489L76.0723 60.8889L75.6348 61.7689L85.3516 66.6289Z" fill="#FFFFFF" fill-opacity="1.000000" fill-rule="nonzero"/>
				<path id="Vector" d="M91.668 69.7891L92.1055 68.9091L88.9492 67.3301L88.5117 68.2091L91.668 69.7891Z" fill="#FFFFFF" fill-opacity="1.000000" fill-rule="nonzero"/>
				<path id="Vector" d="M123.201 85.5551L123.641 84.675L107.869 76.79L107.43 77.67L123.201 85.5551Z" fill="#FFFFFF" fill-opacity="1.000000" fill-rule="nonzero"/>
				<path id="Vector" d="M258.443 242.758L258.883 241.878L255.354 240.116L230.562 190.531L229.684 190.969L254.621 240.849L258.443 242.758Z" fill="#FFFFFF" fill-opacity="1.000000" fill-rule="nonzero"/>
				<path id="Vector" d="M-13.3125 -36.8516L-12.4336 -37.2893L-15.6191 -43.6599L-16.498 -43.2222L-13.3125 -36.8516Z" fill="#FFFFFF" fill-opacity="1.000000" fill-rule="nonzero"/>
				<path id="Vector" d="M95.9375 66.6449L96.375 65.7649L79.7148 57.4339L55.1328 8.2688L54.2539 8.70709L78.9824 58.1659L95.9375 66.6449Z" fill="#FFFFFF" fill-opacity="1.000000" fill-rule="nonzero"/>
				<path id="Vector" d="M124.312 80.8323L124.75 79.9523L108.986 72.0713L108.549 72.9503L124.312 80.8323Z" fill="#FFFFFF" fill-opacity="1.000000" fill-rule="nonzero"/>
				<path id="Vector" d="M262.738 239.625L263.178 238.742L258.875 236.595L234.459 187.76L233.58 188.199L258.145 237.327L262.738 239.625Z" fill="#FFFFFF" fill-opacity="1.000000" fill-rule="nonzero"/>
				<path id="Vector" d="M-7.49219 -35.7694L-6.61328 -36.2056L-10.1406 -43.2622L-11.0195 -42.8229L-7.49219 -35.7694Z" fill="#FFFFFF" fill-opacity="1.000000" fill-rule="nonzero"/>
				<path id="Vector" d="M93.8906 60.34L94.3281 59.46L83.2363 53.915L60.6074 8.65698L59.7285 9.09528L82.502 54.647L93.8906 60.34Z" fill="#FFFFFF" fill-opacity="1.000000" fill-rule="nonzero"/>
				<path id="Vector" d="M122.273 74.5311L122.711 73.652L113.254 68.9241L112.814 69.8041L122.273 74.5311Z" fill="#FFFFFF" fill-opacity="1.000000" fill-rule="nonzero"/>
				<path id="Vector" d="M134.914 80.8521L135.354 79.972L125.863 75.228L125.424 76.109L134.914 80.8521Z" fill="#FFFFFF" fill-opacity="1.000000" fill-rule="nonzero"/>
				<path id="Vector" d="M263.666 234.809L264.107 233.929L262.396 233.073L238.355 184.989L237.475 185.428L261.666 233.805L263.666 234.809Z" fill="#FFFFFF" fill-opacity="1.000000" fill-rule="nonzero"/>
				<path id="Vector" d="M-1.25781 -37.3047L-0.816406 -38.1824L-2.82031 -39.1843L-7.84766 -49.239L-8.72852 -48.8017L-3.55469 -38.4523L-1.25781 -37.3047Z" fill="#FFFFFF" fill-opacity="1.000000" fill-rule="nonzero"/>
				<path id="Vector" d="M101.318 58.7731L101.758 57.8941L86.7559 50.3951L67.6582 12.1948L66.7793 12.6331L86.0254 51.1271L101.318 58.7731Z" fill="#FFFFFF" fill-opacity="1.000000" fill-rule="nonzero"/>
				<path id="Vector" d="M132.852 74.5389L133.289 73.6589L117.523 65.7749L117.086 66.6549L132.852 74.5389Z" fill="#FFFFFF" fill-opacity="1.000000" fill-rule="nonzero"/>
				<path id="Vector" d="M268.037 231.711L268.477 230.831L265.918 229.552L243.83 185.377L242.951 185.815L265.186 230.284L268.037 231.711Z" fill="#FFFFFF" fill-opacity="1.000000" fill-rule="nonzero"/>
				<path id="Vector" d="M9.51758 -37.1992L9.95703 -38.0803L0.548828 -42.7817L0.4375 -42.5562L-0.171875 -42.2512L-0.0371094 -41.9769L9.51758 -37.1992Z" fill="#FFFFFF" fill-opacity="1.000000" fill-rule="nonzero"/>
				<path id="Vector" d="M99.2656 52.4689L99.7031 51.5859L90.2773 46.8729L74.7031 15.7246L73.8223 16.163L89.5449 47.6059L99.2656 52.4689Z" fill="#FFFFFF" fill-opacity="1.000000" fill-rule="nonzero"/>
				<path id="Vector" d="M127.654 66.6601L128.094 65.7811L115.488 59.4761L115.047 60.3561L127.654 66.6601Z" fill="#FFFFFF" fill-opacity="1.000000" fill-rule="nonzero"/>
				<path id="Vector" d="M268.855 226.844L269.113 226.379L269.51 226.182L246.145 179.449L245.264 179.887L268.705 226.77L268.855 226.844Z" fill="#FFFFFF" fill-opacity="1.000000" fill-rule="nonzero"/>
				<path id="Vector" d="M16.9492 -38.7656L17.3887 -39.6454L7.83398 -44.4224L7.39648 -43.5425L16.9492 -38.7656Z" fill="#FFFFFF" fill-opacity="1.000000" fill-rule="nonzero"/>
				<path id="Vector" d="M100.365 47.7339L100.805 46.8549L93.7988 43.3509L92.9121 41.5769L92.0312 42.0153L93.0684 44.0829L100.365 47.7339Z" fill="#FFFFFF" fill-opacity="1.000000" fill-rule="nonzero"/>
				<path id="Vector" d="M125.617 60.3589L126.057 59.48L116.598 54.752L116.16 55.632L125.617 60.3589Z" fill="#FFFFFF" fill-opacity="1.000000" fill-rule="nonzero"/>
				<path id="Vector" d="M272.719 223.492L273.156 222.613L272.959 222.513L253.193 182.986L252.314 183.424L272.225 223.245L272.719 223.492Z" fill="#FFFFFF" fill-opacity="1.000000" fill-rule="nonzero"/>
				<path id="Vector" d="M21.2246 -41.9063L21.6621 -42.786L18.5039 -44.3657L18.0645 -43.4861L21.2246 -41.9063Z" fill="#FFFFFF" fill-opacity="1.000000" fill-rule="nonzero"/>
				<path id="Vector" d="M254.629 177.496L255.51 177.057L253.932 173.901L253.053 174.34L254.629 177.496Z" fill="#FFFFFF" fill-opacity="1.000000" fill-rule="nonzero"/>
				<path id="Vector" d="M273.592 215.414L274.473 214.976L258.664 183.363L257.785 183.801L273.592 215.414Z" fill="#FFFFFF" fill-opacity="1.000000" fill-rule="nonzero"/>
				<path id="Vector" d="M260.533 178.738L261.414 178.3L258.26 171.993L257.381 172.431L260.533 178.738Z" fill="#FFFFFF" fill-opacity="1.000000" fill-rule="nonzero"/>
				<path id="Vector" d="M266.836 191.348L267.717 190.909L266.141 187.756L265.26 188.195L266.836 191.348Z" fill="#FFFFFF" fill-opacity="1.000000" fill-rule="nonzero"/>
				<path id="Vector" d="M264.238 175.594L265.119 175.155L263.543 172.003L262.664 172.441L264.238 175.594Z" fill="#FFFFFF" fill-opacity="1.000000" fill-rule="nonzero"/>
				<path id="Vector" d="M273.697 194.504L274.578 194.066L271.426 187.761L270.545 188.199L273.697 194.504Z" fill="#FFFFFF" fill-opacity="1.000000" fill-rule="nonzero"/>
				<path id="Vector" d="M267.947 172.445L268.828 172.007L265.676 165.701L264.797 166.139L267.947 172.445Z" fill="#FFFFFF" fill-opacity="1.000000" fill-rule="nonzero"/>
				<path id="Vector" d="M277.406 191.359L278.287 190.921L276.711 187.768L275.83 188.206L277.406 191.359Z" fill="#FFFFFF" fill-opacity="1.000000" fill-rule="nonzero"/>
				<path id="Vector" d="M270.697 167.383L271.576 166.944L268.424 160.637L267.543 161.075L270.697 167.383Z" fill="#FFFFFF" fill-opacity="1.000000" fill-rule="nonzero"/>
				<path id="Vector" d="M273.848 173.688L274.729 173.249L273.152 170.096L272.273 170.535L273.848 173.688Z" fill="#FFFFFF" fill-opacity="1.000000" fill-rule="nonzero"/>
				<path id="Vector" d="M280.154 186.293L281.035 185.855L276.307 176.398L275.426 176.836L280.154 186.293Z" fill="#FFFFFF" fill-opacity="1.000000" fill-rule="nonzero"/>
				<path id="Vector" d="M153.861 42.7968L154.299 41.9142L135.387 32.459L134.947 33.3386L153.861 42.7968Z" fill="#FFFFFF" fill-opacity="1.000000" fill-rule="nonzero"/>
				<path id="Vector" d="M273.842 163.113L274.723 162.675L273.146 159.522L272.266 159.96L273.842 163.113Z" fill="#FFFFFF" fill-opacity="1.000000" fill-rule="nonzero"/>
				<path id="Vector" d="M284.877 185.18L285.758 184.741L281.029 175.283L280.15 175.721L284.877 185.18Z" fill="#FFFFFF" fill-opacity="1.000000" fill-rule="nonzero"/>
				<path id="Vector" d="M158.209 39.6914L158.646 38.8118L136.582 27.7798L136.145 28.6594L158.209 39.6914Z" fill="#FFFFFF" fill-opacity="1.000000" fill-rule="nonzero"/>
				<path id="Vector" d="M273.045 150.957L273.926 150.518L272.344 147.353L271.463 147.791L273.045 150.957Z" fill="#FFFFFF" fill-opacity="1.000000" fill-rule="nonzero"/>
				<path id="Vector" d="M279.355 163.574L280.236 163.136L278.66 159.985L277.781 160.423L279.355 163.574Z" fill="#FFFFFF" fill-opacity="1.000000" fill-rule="nonzero"/>
				<path id="Vector" d="M288.812 182.488L289.691 182.05L286.539 175.744L285.66 176.183L288.812 182.488Z" fill="#FFFFFF" fill-opacity="1.000000" fill-rule="nonzero"/>
				<path id="Vector" d="M161.355 35.9845L161.793 35.1049L155.488 31.9512L155.051 32.8307L161.355 35.9845Z" fill="#FFFFFF" fill-opacity="1.000000" fill-rule="nonzero"/>
				<path id="Vector" d="M276.379 147.062L277.26 146.624L271.262 134.629L261.012 129.504L260.574 130.383L270.529 135.361L276.379 147.062Z" fill="#FFFFFF" fill-opacity="1.000000" fill-rule="nonzero"/>
				<path id="Vector" d="M293.723 181.754L294.604 181.316L285.143 162.395L284.264 162.834L293.723 181.754Z" fill="#FFFFFF" fill-opacity="1.000000" fill-rule="nonzero"/>
				<path id="Vector" d="M161.352 30.6991L161.789 29.8195L158.639 28.2427L158.199 29.1223L161.352 30.6991Z" fill="#FFFFFF" fill-opacity="1.000000" fill-rule="nonzero"/>
				<path id="Vector" d="M281.291 146.328L282.172 145.89L274.781 131.109L260.996 124.216L260.559 125.097L274.049 131.842L281.291 146.328Z" fill="#FFFFFF" fill-opacity="1.000000" fill-rule="nonzero"/>
				<path id="Vector" d="M297.072 177.859L297.953 177.421L290.068 161.653L289.189 162.092L297.072 177.859Z" fill="#FFFFFF" fill-opacity="1.000000" fill-rule="nonzero"/>
				<path id="Vector" d="M196.539 55.8439L197.42 55.4048L194.264 49.0889L193.385 49.5279L196.539 55.8439Z" fill="#FFFFFF" fill-opacity="1.000000" fill-rule="nonzero"/>
				<path id="Vector" d="M219.018 99.0431L219.459 98.1631L218.582 97.7251L216.375 93.3101L215.494 93.748L217.85 98.4581L219.018 99.0431Z" fill="#FFFFFF" fill-opacity="1.000000" fill-rule="nonzero"/>
				<path id="Vector" d="M286.203 145.586L287.084 145.148L278.303 127.585L257.836 117.351L257.396 118.231L277.57 128.318L286.203 145.586Z" fill="#FFFFFF" fill-opacity="1.000000" fill-rule="nonzero"/>
				<path id="Vector" d="M301.984 177.125L302.863 176.687L299.705 170.37L298.826 170.808L301.984 177.125Z" fill="#FFFFFF" fill-opacity="1.000000" fill-rule="nonzero"/>
				<path id="Vector" d="M167.645 23.2852L168.082 22.4056L155.477 16.1011L155.037 16.9837L167.645 23.2852Z" fill="#FFFFFF" fill-opacity="1.000000" fill-rule="nonzero"/>
				<path id="Vector" d="M201.451 55.1021L202.332 54.663L192.244 34.4879L174.391 25.5593L173.951 26.4389L191.512 35.2204L201.451 55.1021Z" fill="#FFFFFF" fill-opacity="1.000000" fill-rule="nonzero"/>
				<path id="Vector" d="M221.852 95.18L222.289 94.3L222.104 94.207L219.703 89.407L218.824 89.845L221.371 94.94L221.852 95.18Z" fill="#FFFFFF" fill-opacity="1.000000" fill-rule="nonzero"/>
				<path id="Vector" d="M241.629 105.066L242.066 104.187L229.426 97.8669L228.988 98.746L241.629 105.066Z" fill="#FFFFFF" fill-opacity="1.000000" fill-rule="nonzero"/>
				<path id="Vector" d="M292.691 148L293.57 147.562L281.824 124.066L248.371 107.341L247.934 108.22L281.09 124.799L292.691 148Z" fill="#FFFFFF" fill-opacity="1.000000" fill-rule="nonzero"/>
				<path id="Vector" d="M306.904 176.398L307.783 175.96L303.041 166.476L302.162 166.914L306.904 176.398Z" fill="#FFFFFF" fill-opacity="1.000000" fill-rule="nonzero"/>
				<path id="Vector" d="M204.783 51.2068L205.664 50.7719L195.764 30.9668L155.469 10.8179L155.029 11.7004L195.031 31.6993L204.783 51.2068Z" fill="#FFFFFF" fill-opacity="1.000000" fill-rule="nonzero"/>
				<path id="Vector" d="M228.912 93.4299L229.352 92.5499L225.623 90.6859L221.438 82.3159L220.557 82.7539L224.891 91.4189L228.912 93.4299Z" fill="#FFFFFF" fill-opacity="1.000000" fill-rule="nonzero"/>
				<path id="Vector" d="M297.613 147.258L298.494 146.819L285.357 120.547L238.92 97.3269L238.48 98.2069L284.627 121.28L297.613 147.258Z" fill="#FFFFFF" fill-opacity="1.000000" fill-rule="nonzero"/>
				<path id="Vector" d="M310.236 172.5L311.117 172.062L306.377 162.581L305.496 163.019L310.236 172.5Z" fill="#FFFFFF" fill-opacity="1.000000" fill-rule="nonzero"/>
				<path id="Vector" d="M209.693 50.4651L210.574 50.0261L199.285 27.4448L155.463 5.53369L155.025 6.4162L198.553 28.1773L209.693 50.4651Z" fill="#FFFFFF" fill-opacity="1.000000" fill-rule="nonzero"/>
				<path id="Vector" d="M227.127 85.3319L228.008 84.8939L223.188 75.2529L222.307 75.6909L227.127 85.3319Z" fill="#FFFFFF" fill-opacity="1.000000" fill-rule="nonzero"/>
				<path id="Vector" d="M315.158 171.789L316.039 171.351L288.877 117.024L232.494 88.832L232.055 89.712L288.143 117.757L315.158 171.789Z" fill="#FFFFFF" fill-opacity="1.000000" fill-rule="nonzero"/>
				<path id="Vector" d="M213.031 46.57L213.91 46.132L202.807 23.9237L152.289 -1.33521L151.85 -0.455627L202.074 24.6563L213.031 46.57Z" fill="#FFFFFF" fill-opacity="1.000000" fill-rule="nonzero"/>
				<path id="Vector" d="M320.127 171.164L321.008 170.726L292.398 113.506L232.678 83.6449L226.535 71.3579L225.654 71.7969L231.945 84.3779L291.666 114.238L320.127 171.164Z" fill="#FFFFFF" fill-opacity="1.000000" fill-rule="nonzero"/>
				<path id="Vector" d="M216.363 42.6757L217.244 42.2374L206.326 20.4027L148.967 -8.27759L148.529 -7.39801L205.594 21.1353L216.363 42.6757Z" fill="#FFFFFF" fill-opacity="1.000000" fill-rule="nonzero"/>
				<path id="Vector" d="M321.824 163.992L322.703 163.554L295.92 109.986L236.199 80.1249L231.449 70.6289L230.57 71.0679L235.467 80.8579L295.188 110.718L321.824 163.992Z" fill="#FFFFFF" fill-opacity="1.000000" fill-rule="nonzero"/>
				<path id="Vector" d="M218.119 35.6329L219 35.1946L209.846 16.8843L150.109 -13.0022L150.09 -12.9933L149.98 -13.0493L149.906 -12.9022L149.232 -12.5609L149.395 -12.2432L149.543 -12.1696L209.113 17.6169L218.119 35.6329Z" fill="#FFFFFF" fill-opacity="1.000000" fill-rule="nonzero"/>
				<path id="Vector" d="M325.154 160.09L326.035 159.651L299.439 106.462L239.721 76.6031L233.203 63.5691L232.322 64.0081L238.988 77.3361L298.707 107.195L325.154 160.09Z" fill="#FFFFFF" fill-opacity="1.000000" fill-rule="nonzero"/>
				<path id="Vector" d="M139.658 -42.2774L140.539 -42.7158L135.756 -52.2739L134.877 -51.8356L139.658 -42.2774Z" fill="#FFFFFF" fill-opacity="1.000000" fill-rule="nonzero"/>
				<path id="Vector" d="M218.295 25.422L219.176 24.9836L213.365 13.3662L153.645 -16.4939L148.436 -26.917L147.557 -26.4786L152.912 -15.7614L212.633 14.0987L218.295 25.422Z" fill="#FFFFFF" fill-opacity="1.000000" fill-rule="nonzero"/>
				<path id="Vector" d="M328.488 156.191L329.367 155.753L302.961 102.943L243.24 73.0831L236.537 59.6741L235.656 60.1121L242.51 73.816L302.229 103.675L328.488 156.191Z" fill="#FFFFFF" fill-opacity="1.000000" fill-rule="nonzero"/>
				<path id="Vector" d="M220.043 18.3555L220.924 17.9171L216.887 9.84167L157.166 -20.0184L142.271 -49.8079L141.393 -49.3695L156.434 -19.2858L216.154 10.5742L220.043 18.3555Z" fill="#FFFFFF" fill-opacity="1.000000" fill-rule="nonzero"/>
				<path id="Vector" d="M335.381 159.422L336.262 158.984L306.48 99.425L246.762 69.564L239.869 55.782L238.99 56.22L246.029 70.297L305.748 100.157L335.381 159.422Z" fill="#FFFFFF" fill-opacity="1.000000" fill-rule="nonzero"/>
				<path id="Vector" d="M221.775 11.2578L222.654 10.8195L220.41 6.32721L160.689 -23.5328L147.178 -50.5598L146.295 -50.1215L159.957 -22.8032L219.676 7.05969L221.775 11.2578Z" fill="#FFFFFF" fill-opacity="1.000000" fill-rule="nonzero"/>
				<path id="Vector" d="M234.424 36.5585L235.305 36.1202L233.729 32.9666L232.85 33.4048L234.424 36.5585Z" fill="#FFFFFF" fill-opacity="1.000000" fill-rule="nonzero"/>
				<path id="Vector" d="M240.73 49.1679L241.609 48.7299L240.033 45.5759L239.152 46.0139L240.73 49.1679Z" fill="#FFFFFF" fill-opacity="1.000000" fill-rule="nonzero"/>
				<path id="Vector" d="M269.955 76.9879L270.395 76.1088L250.264 66.0428L246.35 58.2148L245.471 58.6528L249.531 66.7759L269.955 76.9879Z" fill="#FFFFFF" fill-opacity="1.000000" fill-rule="nonzero"/>
				<path id="Vector" d="M336.748 151.598L337.629 151.16L310 95.9021L273.561 77.6821L273.121 78.5621L309.268 96.6351L336.748 151.598Z" fill="#FFFFFF" fill-opacity="1.000000" fill-rule="nonzero"/>
				<path id="Vector" d="M221.449 2.66016L221.887 1.78058L164.205 -27.0587L153.674 -48.1255L152.795 -47.6871L163.475 -26.3262L221.449 2.66016Z" fill="#FFFFFF" fill-opacity="1.000000" fill-rule="nonzero"/>
				<path id="Vector" d="M247.221 51.5861L248.102 51.1481L235.488 25.9241L234.609 26.3594L247.221 51.5861Z" fill="#FFFFFF" fill-opacity="1.000000" fill-rule="nonzero"/>
				<path id="Vector" d="M266.797 70.1249L267.234 69.2449L253.789 62.52L249.686 54.3149L248.807 54.7539L253.057 63.2529L266.797 70.1249Z" fill="#FFFFFF" fill-opacity="1.000000" fill-rule="nonzero"/>
				<path id="Vector" d="M341.785 151.105L342.666 150.667L313.521 92.38L273.557 72.397L273.119 73.277L312.789 93.113L341.785 151.105Z" fill="#FFFFFF" fill-opacity="1.000000" fill-rule="nonzero"/>
				<path id="Vector" d="M224.533 -1.07422L224.973 -1.95386L167.729 -30.5783L155.348 -55.3401L154.465 -54.9017L166.994 -29.8458L224.533 -1.07422Z" fill="#FFFFFF" fill-opacity="1.000000" fill-rule="nonzero"/>
				<path id="Vector" d="M250.553 47.691L251.434 47.253L240.396 25.1802L239.516 25.6185L250.553 47.691Z" fill="#FFFFFF" fill-opacity="1.000000" fill-rule="nonzero"/>
				<path id="Vector" d="M266.777 64.8359L267.215 63.9559L257.307 59.0019L253.016 50.4209L252.137 50.8589L256.574 59.7349L266.777 64.8359Z" fill="#FFFFFF" fill-opacity="1.000000" fill-rule="nonzero"/>
				<path id="Vector" d="M343.408 143.793L344.289 143.355L317.043 88.86L279.855 70.2681L279.418 71.1481L316.311 89.5931L343.408 143.793Z" fill="#FFFFFF" fill-opacity="1.000000" fill-rule="nonzero"/>
				<path id="Vector" d="M224.377 -6.43347L224.814 -7.31305L171.25 -34.0989L160.527 -55.5422L159.648 -55.1039L170.518 -33.3664L224.377 -6.43347Z" fill="#FFFFFF" fill-opacity="1.000000" fill-rule="nonzero"/>
				<path id="Vector" d="M253.887 43.7968L254.768 43.3585L245.305 24.4392L244.426 24.8776L253.887 43.7968Z" fill="#FFFFFF" fill-opacity="1.000000" fill-rule="nonzero"/>
				<path id="Vector" d="M266.744 59.5389L267.184 58.6589L260.828 55.4849L256.348 46.5239L255.469 46.9629L260.096 56.2149L266.744 59.5389Z" fill="#FFFFFF" fill-opacity="1.000000" fill-rule="nonzero"/>
				<path id="Vector" d="M346.74 139.891L347.621 139.453L320.562 85.339L286.156 68.135L285.719 69.017L319.832 86.071L346.74 139.891Z" fill="#FFFFFF" fill-opacity="1.000000" fill-rule="nonzero"/>
				<path id="Vector" d="M227.52 -10.1444L227.957 -11.024L174.768 -37.6187L165.576 -55.9995L164.697 -55.5612L174.035 -36.8861L227.52 -10.1444Z" fill="#FFFFFF" fill-opacity="1.000000" fill-rule="nonzero"/>
				<path id="Vector" d="M258.801 43.0664L259.682 42.6281L247.064 17.3926L246.184 17.831L258.801 43.0664Z" fill="#FFFFFF" fill-opacity="1.000000" fill-rule="nonzero"/>
				<path id="Vector" d="M266.629 54.199L267.066 53.3199L264.35 51.96L262.895 49.054L262.016 49.4949L263.617 52.6929L266.629 54.199Z" fill="#FFFFFF" fill-opacity="1.000000" fill-rule="nonzero"/>
				<path id="Vector" d="M350.07 135.992L350.949 135.554L324.082 81.8199L292.455 66.0059L292.016 66.8849L323.35 82.5529L350.07 135.992Z" fill="#FFFFFF" fill-opacity="1.000000" fill-rule="nonzero"/>
				<path id="Vector" d="M235.475 -11.4492L235.914 -12.3289L178.291 -41.1415L170.861 -56.001L169.982 -55.5626L177.559 -40.4091L235.475 -11.4492Z" fill="#FFFFFF" fill-opacity="1.000000" fill-rule="nonzero"/>
				<path id="Vector" d="M256.545 27.9922L257.426 27.5539L249.545 11.7942L248.666 12.2326L256.545 27.9922Z" fill="#FFFFFF" fill-opacity="1.000000" fill-rule="nonzero"/>
				<path id="Vector" d="M264.457 43.8165L265.338 43.3782L262.158 37.0208L261.279 37.459L264.457 43.8165Z" fill="#FFFFFF" fill-opacity="1.000000" fill-rule="nonzero"/>
				<path id="Vector" d="M271.279 51.2461L271.719 50.3661L267.869 48.4401L267.018 46.7361L266.139 47.1751L267.137 49.1721L271.279 51.2461Z" fill="#FFFFFF" fill-opacity="1.000000" fill-rule="nonzero"/>
				<path id="Vector" d="M354.137 133.566L355.016 133.128L327.604 78.3009L297.049 63.0239L296.609 63.9039L326.869 79.033L354.137 133.566Z" fill="#FFFFFF" fill-opacity="1.000000" fill-rule="nonzero"/>
				<path id="Vector" d="M240.945 -13.9961L241.162 -14.4315L241.631 -14.5845L241.564 -14.7845L181.811 -44.6622L176.141 -56.0002L175.262 -55.5619L181.078 -43.9297L240.945 -13.9961Z" fill="#FFFFFF" fill-opacity="1.000000" fill-rule="nonzero"/>
				<path id="Vector" d="M262.846 30.0312L263.727 29.5959L254.27 10.6797L253.389 11.118L262.846 30.0312Z" fill="#FFFFFF" fill-opacity="1.000000" fill-rule="nonzero"/>
				<path id="Vector" d="M280.438 50.5391L280.877 49.6591L271.256 44.8491L270.816 45.7291L280.438 50.5391Z" fill="#FFFFFF" fill-opacity="1.000000" fill-rule="nonzero"/>
				<path id="Vector" d="M357.277 129.285L358.156 128.847L331.125 74.7799L299.822 59.1299L299.385 60.0089L330.391 75.5139L357.277 129.285Z" fill="#FFFFFF" fill-opacity="1.000000" fill-rule="nonzero"/>
				<path id="Vector" d="M247.051 -12.1212L247.932 -12.5595L245.051 -18.3197L185.332 -48.1797L181.422 -55.9993L180.543 -55.5609L184.598 -47.4472L244.318 -17.5872L247.051 -12.1212Z" fill="#FFFFFF" fill-opacity="1.000000" fill-rule="nonzero"/>
				<path id="Vector" d="M262.838 19.4571L263.719 19.0188L257.414 6.40991L256.535 6.84833L262.838 19.4571Z" fill="#FFFFFF" fill-opacity="1.000000" fill-rule="nonzero"/>
				<path id="Vector" d="M283.205 46.645L283.645 45.7651L274.762 41.3228L274.562 41.7258L274.082 41.9435L274.156 42.0847L274.322 42.2023L283.205 46.645Z" fill="#FFFFFF" fill-opacity="1.000000" fill-rule="nonzero"/>
				<path id="Vector" d="M358.832 121.828L359.711 121.39L334.646 71.2579L299.445 53.6599L299.008 54.5389L333.914 71.9909L358.832 121.828Z" fill="#FFFFFF" fill-opacity="1.000000" fill-rule="nonzero"/>
				<path id="Vector" d="M250.191 -16.4062L251.07 -16.8417L248.572 -21.8399L188.852 -51.7L186.705 -55.998L185.822 -55.5597L188.119 -50.9674L247.84 -21.1074L250.191 -16.4062Z" fill="#FFFFFF" fill-opacity="1.000000" fill-rule="nonzero"/>
				<path id="Vector" d="M267.564 18.3399L268.443 17.9016L262.139 5.29272L261.26 5.72815L267.564 18.3399Z" fill="#FFFFFF" fill-opacity="1.000000" fill-rule="nonzero"/>
				<path id="Vector" d="M358.814 111.238L359.695 110.8L338.162 67.7371L278.443 37.8774L274.775 30.5403L273.896 30.9787L277.711 38.6099L337.43 68.4701L358.814 111.238Z" fill="#FFFFFF" fill-opacity="1.000000" fill-rule="nonzero"/>
				<path id="Vector" d="M254.93 -17.4845L255.811 -17.9228L252.092 -25.3628L192.221 -55.2935L192.111 -55.0699L191.502 -54.7668L191.637 -54.4874L191.787 -54.4138L251.359 -24.6302L254.93 -17.4845Z" fill="#FFFFFF" fill-opacity="1.000000" fill-rule="nonzero"/>
				<path id="Vector" d="M358.811 100.668L359.691 100.23L341.686 64.22L281.967 34.3595L265.301 1.02808L264.422 1.46637L281.234 35.0921L340.953 64.952L358.811 100.668Z" fill="#FFFFFF" fill-opacity="1.000000" fill-rule="nonzero"/>
				<path id="Vector" d="M242.789 -34.1954L243.229 -35.075L211.68 -50.8494L211.242 -49.9697L242.789 -34.1954Z" fill="#FFFFFF" fill-opacity="1.000000" fill-rule="nonzero"/>
				<path id="Vector" d="M258.076 -21.7579L258.957 -22.1963L257.338 -25.4353L256.459 -24.9969L258.076 -21.7579Z" fill="#FFFFFF" fill-opacity="1.000000" fill-rule="nonzero"/>
				<path id="Vector" d="M360.383 93.2461L361.262 92.808L345.205 60.6981L285.488 30.8351L270.023 -0.0898438L269.145 0.34845L284.756 31.5676L344.475 61.431L360.383 93.2461Z" fill="#FFFFFF" fill-opacity="1.000000" fill-rule="nonzero"/>
				<path id="Vector" d="M242.4 -39.6679L242.84 -40.5475L233.375 -45.281L232.938 -44.4014L242.4 -39.6679Z" fill="#FFFFFF" fill-opacity="1.000000" fill-rule="nonzero"/>
				<path id="Vector" d="M262.811 -22.8516L263.689 -23.2899L259.135 -32.4009L252.34 -35.7988L251.9 -34.9191L258.404 -31.6685L262.811 -22.8516Z" fill="#FFFFFF" fill-opacity="1.000000" fill-rule="nonzero"/>
				<path id="Vector" d="M272.275 -3.91791L273.156 -4.3562L266.852 -16.9651L265.971 -16.5268L272.275 -3.91791Z" fill="#FFFFFF" fill-opacity="1.000000" fill-rule="nonzero"/>
				<path id="Vector" d="M284.904 21.3438L285.785 20.9054L276.307 1.948L275.428 2.38629L284.904 21.3438Z" fill="#FFFFFF" fill-opacity="1.000000" fill-rule="nonzero"/>
				<path id="Vector" d="M365.104 92.133L365.984 91.694L348.727 57.178L289.006 27.3183L287.416 24.1411L286.537 24.5794L288.273 28.0508L347.992 57.911L365.104 92.133Z" fill="#FFFFFF" fill-opacity="1.000000" fill-rule="nonzero"/>
				<path id="Vector" d="M278.574 -1.87897L279.455 -2.31738L262.652 -35.9224L232.973 -50.7612L232.535 -49.8816L261.92 -35.1899L278.574 -1.87897Z" fill="#FFFFFF" fill-opacity="1.000000" fill-rule="nonzero"/>
				<path id="Vector" d="M288.047 17.0663L288.928 16.628L281.029 0.833008L280.15 1.27142L288.047 17.0663Z" fill="#FFFFFF" fill-opacity="1.000000" fill-rule="nonzero"/>
				<path id="Vector" d="M366.676 84.7109L367.555 84.2729L352.246 53.6559L292.525 23.7957L292.477 23.6987L292.406 23.734L292.379 23.7222L292.361 23.7575L291.6 24.14L291.793 24.5283L351.514 54.3879L366.676 84.7109Z" fill="#FFFFFF" fill-opacity="1.000000" fill-rule="nonzero"/>
				<path id="Vector" d="M278.572 -12.4492L279.453 -12.8876L266.176 -39.4439L242.047 -51.5085L241.607 -50.6289L265.441 -38.7114L278.572 -12.4492Z" fill="#FFFFFF" fill-opacity="1.000000" fill-rule="nonzero"/>
				<path id="Vector" d="M284.877 0.160156L285.758 -0.278198L281.029 -9.73633L280.15 -9.29803L284.877 0.160156Z" fill="#FFFFFF" fill-opacity="1.000000" fill-rule="nonzero"/>
				<path id="Vector" d="M291.197 12.8007L292.078 12.3623L287.336 2.87769L286.457 3.3161L291.197 12.8007Z" fill="#FFFFFF" fill-opacity="1.000000" fill-rule="nonzero"/>
				<path id="Vector" d="M309.344 28.0195L309.781 27.1399L296.049 20.2765L295.418 19.0115L294.537 19.4499L295.316 21.009L309.344 28.0195Z" fill="#FFFFFF" fill-opacity="1.000000" fill-rule="nonzero"/>
				<path id="Vector" d="M371.4 83.6019L372.281 83.1629L355.766 50.1339L316.09 30.2964L315.65 31.176L355.033 50.8659L371.4 83.6019Z" fill="#FFFFFF" fill-opacity="1.000000" fill-rule="nonzero"/>
				<path id="Vector" d="M285.057 -10.0351L285.938 -10.4734L269.693 -42.9635L254.66 -50.48L254.221 -49.6004L268.961 -42.231L285.057 -10.0351Z" fill="#FFFFFF" fill-opacity="1.000000" fill-rule="nonzero"/>
				<path id="Vector" d="M289.787 -0.581909L290.668 -1.02032L287.516 -7.32471L286.635 -6.88641L289.787 -0.581909Z" fill="#FFFFFF" fill-opacity="1.000000" fill-rule="nonzero"/>
				<path id="Vector" d="M294.525 8.90234L295.406 8.46405L293.822 5.29565L292.941 5.73694L294.525 8.90234Z" fill="#FFFFFF" fill-opacity="1.000000" fill-rule="nonzero"/>
				<path id="Vector" d="M302.939 19.5391L303.377 18.6594L299.568 16.756L297.018 11.6519L296.137 12.0901L298.836 17.4885L302.939 19.5391Z" fill="#FFFFFF" fill-opacity="1.000000" fill-rule="nonzero"/>
				<path id="Vector" d="M376.311 82.8589L377.191 82.421L359.287 46.615L312.926 23.4329L312.488 24.3124L358.555 47.347L376.311 82.8589Z" fill="#FFFFFF" fill-opacity="1.000000" fill-rule="nonzero"/>
				<path id="Vector" d="M286.816 -17.082L287.695 -17.5175L273.215 -46.4831L264.123 -51.0283L263.686 -50.1487L272.48 -45.7505L286.816 -17.082Z" fill="#FFFFFF" fill-opacity="1.000000" fill-rule="nonzero"/>
				<path id="Vector" d="M294.697 -1.31653L295.578 -1.75482L289.273 -14.3667L288.393 -13.9283L294.697 -1.31653Z" fill="#FFFFFF" fill-opacity="1.000000" fill-rule="nonzero"/>
				<path id="Vector" d="M302.506 14.0391L302.779 13.5712L303.164 13.38L297.174 1.40063L296.295 1.83606L302.357 13.9655L302.506 14.0391Z" fill="#FFFFFF" fill-opacity="1.000000" fill-rule="nonzero"/>
				<path id="Vector" d="M331.402 28.4923L331.84 27.6127L316.072 19.7285L315.635 20.6081L331.402 28.4923Z" fill="#FFFFFF" fill-opacity="1.000000" fill-rule="nonzero"/>
				<path id="Vector" d="M378.068 75.8159L378.949 75.3779L362.809 43.0967L338.145 30.7644L337.705 31.644L362.076 43.8293L378.068 75.8159Z" fill="#FFFFFF" fill-opacity="1.000000" fill-rule="nonzero"/>
				<path id="Vector" d="M290.15 -20.9767L291.029 -21.415L276.734 -50.007L276.469 -50.1365L276.178 -49.5422L275.93 -49.4187L290.15 -20.9767Z" fill="#FFFFFF" fill-opacity="1.000000" fill-rule="nonzero"/>
				<path id="Vector" d="M296.467 -8.36719L297.348 -8.80548L292.619 -18.2637L291.738 -17.8253L296.467 -8.36719Z" fill="#FFFFFF" fill-opacity="1.000000" fill-rule="nonzero"/>
				<path id="Vector" d="M299.623 -2.05859L300.504 -2.49689L298.926 -5.65356L298.045 -5.21515L299.623 -2.05859Z" fill="#FFFFFF" fill-opacity="1.000000" fill-rule="nonzero"/>
				<path id="Vector" d="M302.797 4.29315L303.678 3.85474L302.086 0.671631L301.205 1.11005L302.797 4.29315Z" fill="#FFFFFF" fill-opacity="1.000000" fill-rule="nonzero"/>
				<path id="Vector" d="M312.441 13.7305L312.879 12.8509L306.609 9.71484L305.312 7.12012L304.434 7.55841L305.877 10.4473L312.441 13.7305Z" fill="#FFFFFF" fill-opacity="1.000000" fill-rule="nonzero"/>
				<path id="Vector" d="M381.4 71.9182L382.281 71.4801L366.328 39.5721L319.217 16.0195L318.779 16.8991L365.596 40.3047L381.4 71.9182Z" fill="#FFFFFF" fill-opacity="1.000000" fill-rule="nonzero"/>
				<path id="Vector" d="M295.061 -21.7188L295.941 -22.1571L284.898 -44.2417L284.02 -43.8034L295.061 -21.7188Z" fill="#FFFFFF" fill-opacity="1.000000" fill-rule="nonzero"/>
				<path id="Vector" d="M298.227 -15.4141L299.105 -15.8524L297.531 -19.0061L296.65 -18.5678L298.227 -15.4141Z" fill="#FFFFFF" fill-opacity="1.000000" fill-rule="nonzero"/>
				<path id="Vector" d="M301.377 -9.10944L302.258 -9.54773L300.682 -12.7014L299.801 -12.2631L301.377 -9.10944Z" fill="#FFFFFF" fill-opacity="1.000000" fill-rule="nonzero"/>
				<path id="Vector" d="M304.539 -2.7851L305.42 -3.22339L303.838 -6.38892L302.957 -5.9505L304.539 -2.7851Z" fill="#FFFFFF" fill-opacity="1.000000" fill-rule="nonzero"/>
				<path id="Vector" d="M315.58 10.0195L316.02 9.13989L310.129 6.19507L308.631 3.19727L307.75 3.63568L309.396 6.92755L315.58 10.0195Z" fill="#FFFFFF" fill-opacity="1.000000" fill-rule="nonzero"/>
				<path id="Vector" d="M384.736 68.027L385.615 67.5891L369.85 36.0551L319.199 10.7314L318.762 11.611L369.117 36.7875L384.736 68.027Z" fill="#FFFFFF" fill-opacity="1.000000" fill-rule="nonzero"/>
				<path id="Vector" d="M296.83 -28.7656L297.711 -29.2039L289.822 -44.9783L288.943 -44.54L296.83 -28.7656Z" fill="#FFFFFF" fill-opacity="1.000000" fill-rule="nonzero"/>
				<path id="Vector" d="M303.135 -16.1561L304.016 -16.5945L300.863 -22.8989L299.984 -22.4606L303.135 -16.1561Z" fill="#FFFFFF" fill-opacity="1.000000" fill-rule="nonzero"/>
				<path id="Vector" d="M311.074 -0.277344L311.953 -0.715698L307.17 -10.2827L306.291 -9.84729L311.074 -0.277344Z" fill="#FFFFFF" fill-opacity="1.000000" fill-rule="nonzero"/>
				<path id="Vector" d="M315.426 4.66022L315.863 3.78058L313.502 2.5979L313.307 2.99512L312.814 3.20099L312.889 3.34808L313.064 3.47748L315.426 4.66022Z" fill="#FFFFFF" fill-opacity="1.000000" fill-rule="nonzero"/>
				<path id="Vector" d="M347.148 20.5234L347.586 19.6439L319.16 5.43164L318.723 6.31122L347.148 20.5234Z" fill="#FFFFFF" fill-opacity="1.000000" fill-rule="nonzero"/>
				<path id="Vector" d="M389.646 67.285L390.527 66.847L373.371 32.5328L357.045 24.3691L356.607 25.2487L372.639 33.2653L389.646 67.285Z" fill="#FFFFFF" fill-opacity="1.000000" fill-rule="nonzero"/>
				<path id="Vector" d="M303.318 -26.3556L304.197 -26.7939L297.893 -39.4058L297.012 -38.9703L303.318 -26.3556Z" fill="#FFFFFF" fill-opacity="1.000000" fill-rule="nonzero"/>
				<path id="Vector" d="M306.469 -20.0508L307.35 -20.4891L305.771 -23.6399L304.893 -23.2015L306.469 -20.0508Z" fill="#FFFFFF" fill-opacity="1.000000" fill-rule="nonzero"/>
				<path id="Vector" d="M314.4 -4.19141L315.281 -4.62982L312.088 -11.0195L311.207 -10.5812L314.4 -4.19141Z" fill="#FFFFFF" fill-opacity="1.000000" fill-rule="nonzero"/>
				<path id="Vector" d="M347.141 15.2384L347.578 14.3588L338.123 9.62817L337.684 10.5107L347.141 15.2384Z" fill="#FFFFFF" fill-opacity="1.000000" fill-rule="nonzero"/>
				<path id="Vector" d="M356.598 19.9647L357.035 19.0851L350.73 15.9314L350.293 16.811L356.598 19.9647Z" fill="#FFFFFF" fill-opacity="1.000000" fill-rule="nonzero"/>
				<path id="Vector" d="M392.979 63.3909L393.859 62.9519L376.889 29.0147L363.346 22.2395L362.908 23.1221L376.156 29.7472L392.979 63.3909Z" fill="#FFFFFF" fill-opacity="1.000000" fill-rule="nonzero"/>
				<path id="Vector" d="M308.225 -27.1016L309.105 -27.5399L307.529 -30.6936L306.648 -30.2553L308.225 -27.1016Z" fill="#FFFFFF" fill-opacity="1.000000" fill-rule="nonzero"/>
				<path id="Vector" d="M312.955 -17.6368L313.836 -18.0751L310.68 -24.3855L309.801 -23.9471L312.955 -17.6368Z" fill="#FFFFFF" fill-opacity="1.000000" fill-rule="nonzero"/>
				<path id="Vector" d="M324.998 -1.11316L325.438 -1.9928L320.691 -4.36688L317.002 -11.7422L316.123 -11.3038L319.959 -3.6344L324.998 -1.11316Z" fill="#FFFFFF" fill-opacity="1.000000" fill-rule="nonzero"/>
				<path id="Vector" d="M362.9 17.8359L363.338 16.9563L341.271 5.92432L340.832 6.80389L362.9 17.8359Z" fill="#FFFFFF" fill-opacity="1.000000" fill-rule="nonzero"/>
				<path id="Vector" d="M397.891 62.6479L398.77 62.2099L381.266 27.2046L380.387 27.6429L397.891 62.6479Z" fill="#FFFFFF" fill-opacity="1.000000" fill-rule="nonzero"/>
				<path id="Vector" d="M313.135 -27.8478L314.016 -28.2861L310.861 -34.5935L309.98 -34.1551L313.135 -27.8478Z" fill="#FFFFFF" fill-opacity="1.000000" fill-rule="nonzero"/>
				<path id="Vector" d="M317.869 -18.371L318.75 -18.8093L315.592 -25.1255L314.713 -24.6872L317.869 -18.371Z" fill="#FFFFFF" fill-opacity="1.000000" fill-rule="nonzero"/>
				<path id="Vector" d="M321.051 -12.0078L321.932 -12.4462L320.334 -15.644L319.453 -15.2056L321.051 -12.0078Z" fill="#FFFFFF" fill-opacity="1.000000" fill-rule="nonzero"/>
				<path id="Vector" d="M340.824 1.51959L341.264 0.640015L324.209 -7.88849L323.713 -8.88281L322.834 -8.44452L323.477 -7.15588L340.824 1.51959Z" fill="#FFFFFF" fill-opacity="1.000000" fill-rule="nonzero"/>
				<path id="Vector" d="M362.893 12.5507L363.33 11.6711L347.568 3.78979L347.131 4.66937L362.893 12.5507Z" fill="#FFFFFF" fill-opacity="1.000000" fill-rule="nonzero"/>
				<path id="Vector" d="M402.801 61.91L403.68 61.472L387.902 29.9202L387.023 30.3585L402.801 61.91Z" fill="#FFFFFF" fill-opacity="1.000000" fill-rule="nonzero"/>
				<path id="Vector" d="M321.201 -22.2695L322.082 -22.7079L320.502 -25.8674L319.621 -25.4291L321.201 -22.2695Z" fill="#FFFFFF" fill-opacity="1.000000" fill-rule="nonzero"/>
				<path id="Vector" d="M331.271 -8.53906L331.709 -9.4187L327.73 -11.4104L326.955 -12.9607L326.074 -12.5224L326.998 -10.6778L331.271 -8.53906Z" fill="#FFFFFF" fill-opacity="1.000000" fill-rule="nonzero"/>
				<path id="Vector" d="M347.129 -0.61322L347.566 -1.4928L334.924 -7.81201L334.484 -6.93231L347.129 -0.61322Z" fill="#FFFFFF" fill-opacity="1.000000" fill-rule="nonzero"/>
				<path id="Vector" d="M359.734 5.69128L360.174 4.81171L353.869 1.66089L353.432 2.54059L359.734 5.69128Z" fill="#FFFFFF" fill-opacity="1.000000" fill-rule="nonzero"/>
				<path id="Vector" d="M409.289 64.3241L410.168 63.8861L392.822 29.1924L391.941 29.6308L409.289 64.3241Z" fill="#FFFFFF" fill-opacity="1.000000" fill-rule="nonzero"/>
				<path id="Vector" d="M353.428 -2.74213L353.865 -3.6217L331.254 -14.9304L326.998 -23.4382L326.117 -22.9999L330.52 -14.1978L353.428 -2.74213Z" fill="#FFFFFF" fill-opacity="1.000000" fill-rule="nonzero"/>
				<path id="Vector" d="M419.051 73.2889L419.93 72.851L397.734 28.4578L396.855 28.8961L419.051 73.2889Z" fill="#FFFFFF" fill-opacity="1.000000" fill-rule="nonzero"/>
				<path id="Vector" d="M340.77 -14.3517L341.209 -15.2313L334.773 -18.4497L333.561 -20.8767L332.682 -20.4384L334.041 -17.7172L340.77 -14.3517Z" fill="#FFFFFF" fill-opacity="1.000000" fill-rule="nonzero"/>
				<path id="Vector" d="M356.574 -6.44922L357.012 -7.32886L344.387 -13.6421L343.947 -12.7625L356.574 -6.44922Z" fill="#FFFFFF" fill-opacity="1.000000" fill-rule="nonzero"/>
				<path id="Vector" d="M440.123 80.1131L440.561 79.2341L424.352 71.1301L402.646 27.72L401.766 28.1584L423.619 71.863L440.123 80.1131Z" fill="#FFFFFF" fill-opacity="1.000000" fill-rule="nonzero"/>
				<path id="Vector" d="M430.449 69.996L430.887 69.116L427.873 67.61L407.559 26.98L406.678 27.4183L427.141 68.343L430.449 69.996Z" fill="#FFFFFF" fill-opacity="1.000000" fill-rule="nonzero"/>
				<path id="Vector" d="M436.865 67.9261L437.303 67.0461L431.395 64.0901L412.469 26.2395L411.588 26.6778L430.662 64.8221L436.865 67.9261Z" fill="#FFFFFF" fill-opacity="1.000000" fill-rule="nonzero"/>
				<path id="Vector" d="M443.844 66.1329L444.281 65.2529L434.916 60.5699L417.379 25.4966L416.5 25.9349L434.184 61.3019L443.844 66.1329Z" fill="#FFFFFF" fill-opacity="1.000000" fill-rule="nonzero"/>
				<path id="Vector" d="M434.033 50.4449L434.914 50.0069L420.711 21.6001L419.832 22.0384L434.033 50.4449Z" fill="#FFFFFF" fill-opacity="1.000000" fill-rule="nonzero"/>
				<path id="Vector" d="M439.857 58.8591L440.295 57.9801L438.436 57.05L436.521 53.2261L435.641 53.6641L437.701 57.7831L439.857 58.8591Z" fill="#FFFFFF" fill-opacity="1.000000" fill-rule="nonzero"/>
				<path id="Vector" d="M441.148 54.1169L442.029 53.679L427.195 24.0129L426.316 24.4512L441.148 54.1169Z" fill="#FFFFFF" fill-opacity="1.000000" fill-rule="nonzero"/>
				<path id="Vector" d="M439.047 39.3477L439.926 38.9093L435.191 29.4424L434.311 29.8807L439.047 39.3477Z" fill="#FFFFFF" fill-opacity="1.000000" fill-rule="nonzero"/>
				<path id="Vector" d="M444.121 49.496L445 49.058L443.111 45.28L442.23 45.7191L444.121 49.496Z" fill="#FFFFFF" fill-opacity="1.000000" fill-rule="nonzero"/>
			</g>
		</g>
	</g>
</svg>
