<svg width="50.000000" height="50.000000" viewBox="0 0 50 50" fill="none" xmlns="http://www.w3.org/2000/svg" xmlns:xlink="http://www.w3.org/1999/xlink">
	<desc>
			Created with Pixso.
	</desc>
	<defs/>
	<path id="Vector" d="M25.4746 0.344543L27.1074 5.40692C27.1758 5.61664 27.3633 5.75256 27.582 5.75201L32.9023 5.742C33.3848 5.74091 33.5859 6.3606 33.1953 6.64355L28.8848 9.76202C28.707 9.89124 28.6348 10.111 28.7031 10.3201L30.3574 15.3759C30.5059 15.8325 29.9785 16.2164 29.5898 15.9329L25.293 12.7978C25.1152 12.668 24.8828 12.668 24.7051 12.7978L20.4082 15.9329C20.0195 16.2158 19.4922 15.8325 19.6426 15.3759L21.2949 10.3201C21.3633 10.111 21.293 9.89069 21.1133 9.76202L16.8047 6.64355C16.4141 6.3606 16.6152 5.74091 17.0977 5.742L22.416 5.75201C22.6367 5.75201 22.8242 5.61664 22.8906 5.40692L24.5254 0.344543C24.6738 -0.114868 25.3242 -0.114868 25.4746 0.344543ZM25 2.13055L26.1562 5.71405Q26.3242 6.23468 26.6816 6.49414Q27.0391 6.75336 27.5859 6.75201L31.3496 6.74493L28.2988 8.95184Q27.8555 9.27356 27.7207 9.69452Q27.584 10.1133 27.7539 10.6302L28.9238 14.2083L25.8828 11.9899Q25.4414 11.6676 25 11.6673Q24.5586 11.667 24.1152 11.9906L21.0762 14.2083L22.2461 10.6309Q22.416 10.109 22.2773 9.68817Q22.1406 9.26941 21.6973 8.95068L18.6504 6.74493L22.4141 6.75201Q22.9629 6.75201 23.3203 6.4906Q23.6758 6.23114 23.8438 5.71411L25 2.13055ZM10.5098 12.4405L8.875 7.37811C8.72656 6.9187 8.07617 6.9187 7.92773 7.37811L6.29297 12.4405C6.22656 12.6502 6.03906 12.7861 5.81836 12.7856L0.5 12.7756C0.0175781 12.7745 -0.183594 13.3942 0.207031 13.6771L4.51562 16.7955C4.69336 16.9248 4.76562 17.1445 4.69727 17.3537L3.04492 22.4094C2.89453 22.866 3.42383 23.2499 3.81055 22.9664L8.10742 19.8314C8.28711 19.7015 8.51758 19.7015 8.69531 19.8314L12.9922 22.9664C13.3809 23.2499 13.9082 22.866 13.7598 22.4094L12.1055 17.3537C12.0371 17.1445 12.1094 16.9243 12.2871 16.7955L16.5977 13.6771C16.9883 13.3942 16.7871 12.7745 16.3047 12.7756L10.9844 12.7856C10.7637 12.7856 10.5781 12.6502 10.5098 12.4405ZM42.0723 7.37811C41.9238 6.9187 41.2734 6.9187 41.123 7.37811L39.4902 12.4405C39.4219 12.6502 39.2363 12.7861 39.0156 12.7856L33.6953 12.7756C33.2129 12.7745 33.0117 13.3942 33.4023 13.6771L37.7129 16.7955C37.8906 16.9248 37.9629 17.1445 37.8945 17.3537L36.2402 22.4094C36.0918 22.866 36.6191 23.2499 37.0078 22.9664L41.3047 19.8314C41.4824 19.7015 41.7148 19.7015 41.8926 19.8314L46.1895 22.9664C46.5781 23.2499 47.1055 22.866 46.9551 22.4094L45.3027 17.3537C45.2344 17.1445 45.3047 16.9243 45.4844 16.7955L49.793 13.6771C50.1836 13.3942 49.9824 12.7745 49.5 12.7756L44.1816 12.7856C43.9609 12.7856 43.7734 12.6502 43.707 12.4405L42.0723 7.37811ZM8.40234 9.16473L7.24414 12.7476Q7.07617 13.2682 6.71875 13.5277Q6.36328 13.7869 5.81641 13.7856L2.05273 13.7785L5.10156 15.9854Q5.54492 16.3071 5.68164 16.7281Q5.81641 17.1469 5.64844 17.6638L4.47852 21.2419L7.51953 19.0235Q7.96094 18.7007 8.4043 18.7014Q8.8457 18.702 9.28516 19.0241L12.3262 21.2419L11.1562 17.6645Q10.9844 17.1426 11.123 16.7217Q11.2598 16.3029 11.7031 15.9842L14.752 13.7785L10.9863 13.7856Q10.4375 13.7856 10.0801 13.5242Q9.72461 13.2647 9.55859 12.7477L8.40234 9.16473ZM41.5977 9.16473L40.4414 12.7476Q40.2734 13.2682 39.916 13.5277Q39.5586 13.7869 39.0137 13.7856L35.248 13.7785L38.2988 15.9854Q38.7422 16.3071 38.8789 16.7281Q39.0137 17.1469 38.8438 17.6639L37.6738 21.2419L40.7148 19.0235Q41.1582 18.7007 41.5996 18.7014Q42.041 18.702 42.4824 19.0241L45.5215 21.2419L44.3516 17.6645Q44.1816 17.1426 44.3203 16.7217Q44.457 16.303 44.9004 15.9842L47.9473 13.7785L44.1836 13.7856Q43.6348 13.7856 43.2773 13.5242Q42.9219 13.2647 42.7559 12.7477L41.5977 9.16473ZM39.2227 35.2374C39.9219 34.8162 40.3926 34.049 40.3926 33.1772C40.3926 32.2056 39.8086 31.3638 38.9746 30.9862C38.6738 30.8503 38.3398 30.7745 37.9902 30.7745L37.9902 30.7745L37.9902 30.7728L28.2051 30.7728C27.2285 30.7728 26.4863 30.2474 26.0078 29.4202C25.8652 29.1717 25.9492 28.8538 26.1973 28.7101C26.4238 28.5789 26.709 28.6379 26.8672 28.8386C26.8809 28.8576 26.8945 28.8779 26.9082 28.8993C27.1973 29.4008 27.6035 29.731 28.2051 29.731C27.9805 29.2208 27.8379 28.7702 27.752 28.3621C27.5098 27.2085 27.7363 26.3948 27.9746 25.5361C28.2051 24.7095 28.4473 23.8412 28.293 22.5881C28.0703 20.7817 26.7168 18.8427 25.0469 19.2377C24.1797 19.4424 23.4805 20.3079 23.4121 22.1409C23.3398 24.1393 21.8809 27.1534 20.5801 28.3972C19.623 29.3124 18.6895 29.9443 17.7793 31.106C17.75 31.1422 17.7207 31.1788 17.6934 31.2161C17.9043 31.5343 18.0625 31.8898 18.1562 32.2705C18.2188 32.5283 18.2539 32.7975 18.2539 33.0746L18.2539 47.6655C18.2539 47.9407 18.2207 48.2084 18.1582 48.4646C18.1328 48.5678 18.1016 48.6691 18.0684 48.7684C18.0781 48.777 18.0859 48.7856 18.0957 48.7941C19.4199 49.9951 21.3457 49.9966 23.1289 49.9966L34.334 49.9966C35.6562 49.9966 36.7363 48.9154 36.7363 47.5939C36.7363 47.0536 36.5566 46.5535 36.252 46.1509C35.8125 45.569 35.1152 45.1911 34.334 45.1911L35.5527 45.1911C35.8965 45.1911 36.2227 45.1182 36.5195 44.9871C37.3633 44.6133 37.9551 43.7667 37.9551 42.7883C37.9551 42.2459 37.7734 41.744 37.4668 41.3406C37.0273 40.7614 36.332 40.3856 35.5527 40.3856L36.8887 40.3856C37.2812 40.3856 37.6543 40.2901 37.9824 40.1213C38.7578 39.7219 39.293 38.9117 39.293 37.9828C39.293 37.4225 39.0977 36.9055 38.7734 36.4957C38.332 35.9388 37.6504 35.58 36.8887 35.58L37.9902 35.58C38.4395 35.58 38.8613 35.4548 39.2227 35.2374ZM36.8887 34.58L36.8887 36.58Q37.5898 36.58 37.9414 36.9307Q38.293 37.2814 38.293 37.9828Q38.293 38.6841 37.9414 39.0349Q37.5898 39.3856 36.8887 39.3856L35.5527 39.3856L35.5527 41.3856Q36.2539 41.3856 36.6055 41.7363Q36.9551 42.087 36.9551 42.7883Q36.9551 43.4897 36.6055 43.8404Q36.2539 44.1911 35.5527 44.1911L34.334 44.1911L34.334 46.1911Q34.6113 46.1911 34.8496 46.2859Q35.1094 46.389 35.3242 46.6041Q35.5391 46.8191 35.6426 47.0786Q35.7363 47.3174 35.7363 47.5939Q35.7363 48.2953 35.3867 48.6459Q35.0352 48.9966 34.334 48.9966L23.1289 48.9966Q20.3926 48.9966 19.1992 48.3516Q19.2539 48.0134 19.2539 47.6655L19.2539 33.0746Q19.2539 32.4198 19.0723 31.8191Q19 31.5735 18.8945 31.337Q19.4414 30.735 20.3145 29.9781Q20.9434 29.4324 21.2715 29.1202Q22.832 27.6276 23.6191 25.8011Q24.3398 24.1292 24.4121 22.1776Q24.4707 20.5656 25.1328 20.26Q25.2012 20.2286 25.2754 20.211Q25.3848 20.1852 25.4941 20.1866Q25.9805 20.1932 26.459 20.7436Q26.6172 20.9271 26.748 21.1292Q27.1895 21.8127 27.3008 22.71Q27.4297 23.7652 27.0117 25.2681Q26.6816 26.4525 26.7129 27.5724Q26.2539 27.522 25.6973 27.8444Q25.4238 28.0021 25.248 28.2332Q25.0703 28.4642 24.9883 28.7687Q24.9082 29.0721 24.9473 29.3597Q24.9844 29.6481 25.1426 29.9208Q25.752 30.9772 26.6621 31.4311Q27.3477 31.7728 28.2051 31.7728L36.6055 31.7728L36.6055 31.7745L37.9902 31.7745Q38.6914 31.7745 39.043 32.1252Q39.3926 32.4759 39.3926 33.1772Q39.3926 33.8786 39.043 34.2293Q38.6914 34.58 37.9902 34.58L36.8887 34.58ZM17.2109 33.0763L17.2109 47.6671C17.2109 48.952 16.1641 50 14.8789 50L11.9375 50C10.6543 50 9.60547 48.952 9.60547 47.6671L9.60547 33.0763C9.60547 31.7914 10.6543 30.7434 11.9375 30.7434L14.8789 30.7434C16.1641 30.7434 17.2109 31.7914 17.2109 33.0763ZM16.2109 33.0763L16.2109 47.6671Q16.2109 48.3336 15.8789 48.6667Q15.5449 49 14.8789 49L11.9375 49Q11.6719 49 11.4414 48.9075Q11.1992 48.8096 10.998 48.6083Q10.7969 48.407 10.6973 48.1639Q10.6055 47.9341 10.6055 47.6671L10.6055 33.0763Q10.6055 32.8093 10.6973 32.5795Q10.7969 32.3365 10.998 32.1351Q11.1992 31.9338 11.4414 31.8359Q11.6719 31.7434 11.9375 31.7434L14.8789 31.7434Q15.5449 31.7434 15.8789 32.0767Q16.2109 32.4099 16.2109 33.0763Z" fill="#171717" fill-opacity="1.000000" fill-rule="evenodd"/>
</svg>
