<svg width="34.000000" height="44.000000" viewBox="0 0 34 44" fill="none" xmlns="http://www.w3.org/2000/svg" xmlns:xlink="http://www.w3.org/1999/xlink">
	<desc>
			Created with Pixso.
	</desc>
	<defs/>
	<path id="Vector" d="M17.541 43.8148L22.8164 40.1558C29.8066 35.3389 34 27.28 34 18.619L34 8.05896C33.9551 7.5495 33.5488 7.13263 33.0527 7.13263L32.9629 7.13263C27.1914 7.13263 21.5996 4.63159 17.6758 0.277893C17.3164 -0.0926514 16.6387 -0.0926514 16.3242 0.277893C12.4004 4.63159 6.80859 7.13263 1.03711 7.13263L0.947266 7.13263C0.451172 7.13263 0 7.5495 0 8.10529L0 18.619C0 27.28 4.19336 35.3389 11.1836 40.1558L16.459 43.8148C16.5938 43.9073 16.7754 44 17 44C17.2246 44 17.3613 43.9537 17.541 43.8148ZM17 1.02081Q13.668 4.69037 9.52539 6.46655Q5.63867 8.13263 1.03711 8.13263L1 8.13263L1 18.619Q1 25.561 3.92773 30.8979Q6.60938 35.7893 11.75 39.3324L17 42.9731L22.248 39.334Q27.3926 35.7883 30.0762 30.893Q33 25.5575 33 18.619L33 8.13263L32.9629 8.13263Q28.3613 8.13263 24.4746 6.46655Q20.332 4.69043 17 1.02081ZM16.4648 28.8954Q16.9785 28.6401 17.3867 28.1752L25.2832 19.3706Q26.3613 18.139 26.291 16.977Q26.2266 15.9042 25.1816 14.8906L25.1738 14.8823L25.1641 14.8741Q24.627 14.377 23.9941 14.1678Q23.4688 13.994 22.877 14.0188Q22.2344 14.0457 21.6973 14.2963Q21.1289 14.5616 20.6777 15.0773L15.1055 21.2499L13.4688 19.442Q12.9961 18.9026 12.4004 18.6345Q11.877 18.3984 11.2578 18.3724Q10.668 18.3477 10.1426 18.5215Q9.50977 18.7307 8.9707 19.2278Q7.83594 20.2775 7.76562 21.3934Q7.69531 22.5518 8.77148 23.7813L12.7539 28.1955L12.7656 28.2092Q13.332 28.7897 14.0156 29.0323Q14.5078 29.2063 15.0605 29.2063Q15.8398 29.2063 16.4648 28.8954ZM15.7793 21.9949L15.1055 22.741L14.4316 21.9959L12.7168 20.1011C11.9043 19.1747 10.5508 19.1284 9.65039 19.9621C8.74805 20.7958 8.70312 22.1852 9.51367 23.1116L13.4824 27.5116C13.8887 27.9284 14.4746 28.2063 15.0605 28.2063C15.6465 28.2063 16.2344 27.9747 16.6387 27.5116L24.5312 18.7116C25.3418 17.7853 25.2969 16.3958 24.4863 15.6084C23.584 14.7747 22.2305 14.821 21.4199 15.7474L15.7793 21.9949Z" fill="#171717" fill-opacity="1.000000" fill-rule="evenodd"/>
</svg>
