<svg width="37.000000" height="37.000000" viewBox="0 0 37 37" fill="none" xmlns="http://www.w3.org/2000/svg" xmlns:xlink="http://www.w3.org/1999/xlink">
	<desc>
			Created with Pixso.
	</desc>
	<defs/>
	<path id="Vector" d="M2.49609 27.7632C5.70117 33.2799 11.6719 37 18.5 37C25.3047 37 31.2598 33.3036 34.4727 27.8157C34.5098 27.7771 34.5352 27.731 34.5508 27.68C36.1055 24.9725 37 21.8396 37 18.5C37 15.1604 36.1055 12.0275 34.5508 9.32001C34.5352 9.26904 34.5098 9.2229 34.4727 9.18427C31.2598 3.69635 25.3047 0 18.5 0C11.6719 0 5.70117 3.72009 2.49609 9.23676C2.48242 9.25934 2.4668 9.28058 2.45703 9.30621C0.896484 12.0168 0 15.1547 0 18.5C0 21.8453 0.896484 24.9832 2.45703 27.6938C2.4668 27.7194 2.48242 27.7407 2.49609 27.7632ZM21.6035 35.9676C23.7148 34.5226 25.4863 31.6494 26.6133 27.9388L33.5156 27.9388C30.8984 32.0882 26.6113 35.0801 21.6035 35.9676ZM33.9668 27.1837L26.832 27.1837C27.5078 24.6971 27.9023 21.8736 27.9336 18.8776L36.2344 18.8776C36.1719 21.8893 35.3555 24.7178 33.9668 27.1837ZM36.2344 18.1224L27.9336 18.1224C27.9023 15.1264 27.5078 12.3029 26.832 9.81635L33.9668 9.81635C35.3555 12.2822 36.1719 15.1107 36.2344 18.1224ZM33.5156 9.06122L26.6133 9.06122C25.4863 5.35065 23.7148 2.47748 21.6035 1.03241C26.6113 1.91986 30.8984 4.9118 33.5156 9.06122ZM18.877 0.774719C21.8125 1.03271 24.3711 4.28021 25.8477 9.06122L18.877 9.06122L18.877 0.774719ZM18.877 9.81635L26.0684 9.81635C26.748 12.2822 27.1484 15.1107 27.1797 18.1224L18.877 18.1224L18.877 9.81635ZM18.877 18.8776L27.1797 18.8776C27.1484 21.8893 26.748 24.7178 26.0684 27.1837L18.877 27.1837L18.877 18.8776ZM18.877 27.9388L25.8477 27.9388C24.3711 32.7198 21.8125 35.9673 18.877 36.2253L18.877 27.9388ZM3.48438 27.9388L10.3867 27.9388C11.5137 31.6494 13.2852 34.5226 15.3965 35.9676C10.3887 35.0801 6.10156 32.0882 3.48438 27.9388ZM18.123 36.2253C15.1875 35.9673 12.6289 32.7198 11.1523 27.9388L18.123 27.9388L18.123 36.2253ZM18.123 27.1837L10.9316 27.1837C10.252 24.7178 9.85156 21.8893 9.82031 18.8776L18.123 18.8776L18.123 27.1837ZM18.123 18.1224L9.82031 18.1224C9.85156 15.1107 10.252 12.2822 10.9316 9.81635L18.123 9.81635L18.123 18.1224ZM18.123 9.06122L11.1523 9.06122C12.6289 4.28021 15.1875 1.03271 18.123 0.774719L18.123 9.06122ZM15.3965 1.03241C13.2852 2.47748 11.5137 5.35065 10.3867 9.06122L3.48438 9.06122C6.10156 4.9118 10.3887 1.91986 15.3965 1.03241ZM3.0332 9.81635L10.168 9.81635C9.49219 12.3029 9.09766 15.1264 9.06641 18.1224L0.765625 18.1224C0.828125 15.1107 1.64453 12.2822 3.0332 9.81635ZM9.06641 18.8776C9.09766 21.8736 9.49219 24.6971 10.168 27.1837L3.0332 27.1837C1.64453 24.7178 0.828125 21.8893 0.765625 18.8776L9.06641 18.8776Z" fill="#FFFFFF" fill-opacity="1.000000" fill-rule="nonzero"/>
</svg>
