<svg width="56.000000" height="47.000061" viewBox="0 0 56 47.0001" fill="none" xmlns="http://www.w3.org/2000/svg" xmlns:xlink="http://www.w3.org/1999/xlink">
	<desc>
			Created with Pixso.
	</desc>
	<defs/>
	<path id="Vector" d="M22.3125 18.5098L24.7637 18.5098L24.7637 14.4799L22.3125 14.4799C22.0547 13.1792 21.5469 11.942 20.8164 10.8378L21.8613 9.78406L22.5664 9.07416L21.8516 8.37427L19.7148 6.27875L17.9648 8.04242C16.8672 7.30994 15.6406 6.80066 14.3496 6.54327L14.3496 4.02124L10.377 4.02124L10.377 6.49042C9.08398 6.76434 7.85547 7.29163 6.76367 8.04242L5.71875 6.98865L5.01367 6.27875L5.01367 6.27881L4.30859 6.98865L2.20508 9.10944L3.95508 10.8731C3.23242 11.9796 2.72656 13.2161 2.4668 14.5151L1 14.5151L0 14.5151L0 18.5451L2.44922 18.5451C2.71094 19.8344 3.21875 21.0596 3.94531 22.1519L2.19531 23.9155L4.31836 26.054L5.02344 26.7639L5.02344 26.7639L5.72656 26.054L6.77344 25.0002C7.86914 25.7305 9.09766 26.2396 10.3867 26.4993L10.3867 28.9684L14.3848 28.9684L14.3848 26.4993C15.6758 26.2388 16.9043 25.7266 17.998 24.9914L19.0449 26.0452L19.748 26.7549L19.748 26.7551L19.748 26.7549L20.4512 26.043L22.5488 23.9155L20.7988 22.1519C21.5371 21.0501 22.0508 19.8124 22.3125 18.5098ZM21.1426 23.9177L19.5137 22.2755L19.9688 21.5956Q20.4551 20.8669 20.791 20.0738Q21.1484 19.2298 21.332 18.3128L21.4941 17.5098L23.7637 17.5098L23.7637 15.4799L21.4922 15.4799L21.332 14.6747Q21.1504 13.7585 20.7969 12.9138Q20.4648 12.1199 19.9824 11.3891L19.5332 10.7107L21.1484 9.08411L19.7246 7.68854L18.0938 9.33173L17.4082 8.87384Q16.6387 8.35907 15.7969 8.01642Q15.0078 7.69409 14.1543 7.52399L13.3496 7.36353L13.3496 5.02124L11.377 5.02124L11.377 7.30084L10.584 7.46869Q9.73047 7.64966 8.93945 7.98322Q8.09766 8.33838 7.33008 8.86652L6.64258 9.33954L5.01367 7.69849L3.61328 9.10944L5.23438 10.7431L4.79297 11.4203Q4.3125 12.1533 3.98242 12.9481Q3.63086 13.7944 3.44727 14.7108L3.28711 15.5151L1 15.5151L1 17.5451L3.26758 17.5451L3.42969 18.3473Q3.61328 19.2546 3.9668 20.0903Q4.29688 20.8754 4.7793 21.5974L5.23047 22.2767L3.60547 23.9155L5.02344 25.3441L6.64258 23.712L7.32617 24.1677Q8.09766 24.6816 8.93945 25.0247Q9.73047 25.3473 10.584 25.519L11.3867 25.6807L11.3867 27.9684L13.3848 27.9684L13.3848 25.681L14.1875 25.5191Q15.041 25.3469 15.8301 25.0228Q16.6719 24.6779 17.4414 24.161L18.127 23.7009L19.7461 25.3331L21.1426 23.9177ZM11.8613 22.231Q12.6836 22.3115 13.5312 22.1412Q14.373 21.9724 15.0977 21.585Q15.8398 21.189 16.459 20.5645Q16.8496 20.1724 17.1523 19.7217Q17.4746 19.2433 17.6992 18.699Q17.9141 18.1775 18.0234 17.6347Q18.1348 17.0781 18.1348 16.4993Q18.1348 15.9204 18.0234 15.3639Q17.9141 14.8211 17.6992 14.2996Q17.4707 13.7439 17.1387 13.2573Q16.8418 12.8182 16.4609 12.4354Q15.8359 11.8063 15.0898 11.4089Q14.3691 11.0251 13.5312 10.8573Q12.6836 10.6871 11.8613 10.7676Q11.0312 10.8487 10.2246 11.1848Q9.43945 11.5121 8.80859 12.0274Q8.15039 12.5645 7.66016 13.3056Q7.18359 14.0221 6.94336 14.8102Q6.69727 15.6172 6.69727 16.4993Q6.69727 17.3813 6.94336 18.1884Q7.18359 18.9764 7.66016 19.6929Q8.15039 20.4341 8.80859 20.9711Q9.43945 21.4864 10.2246 21.8138Q11.0293 22.1498 11.8613 22.231ZM15.75 19.8591C15.0898 20.5241 14.25 20.9771 13.3359 21.1608C12.4199 21.3445 11.4727 21.2505 10.6094 20.8909C9.74805 20.5312 9.01172 19.922 8.49219 19.1403C7.97461 18.3586 7.69727 17.4395 7.69727 16.4993C7.69727 15.559 7.97461 14.64 8.49219 13.8582C9.01172 13.0765 9.74805 12.4673 10.6094 12.1077C11.4727 11.748 12.4199 11.6541 13.3359 11.8377C14.25 12.0214 15.0898 12.4744 15.75 13.1395C16.1895 13.5802 16.5371 14.1038 16.7734 14.6804C17.0117 15.2569 17.1348 15.875 17.1348 16.4993C17.1348 17.1235 17.0117 17.7416 16.7734 18.3181C16.5371 18.8947 16.1895 19.4183 15.75 19.8591Z" fill="#171717" fill-opacity="1.000000" fill-rule="evenodd"/>
	<path id="Vector" d="M47.4277 23.4196L49.668 21.1621L46.6953 18.1603L45.9922 17.4496L45.2871 18.1594L43.7441 19.7159C42.3203 18.7712 40.7266 18.1179 39.0527 17.7935L39.0527 14.5571L33.8477 14.5571L33.8477 17.7935C32.1738 18.1346 30.5801 18.7994 29.1562 19.7512L27.6133 18.1947L26.9082 17.4849L26.2051 18.1956L23.2324 21.1974L25.4824 23.4637C24.5391 24.8878 23.8809 26.4847 23.5488 28.1639L21.3633 28.1639L20.3633 28.1639L20.3633 33.402L21.3633 33.402L23.5488 33.402C23.8848 35.0925 24.5449 36.7009 25.4902 38.1375L23.2422 40.4037L23.2422 40.4038L26.2129 43.3977L26.918 44.1075L27.6211 43.3977L29.166 41.8412C30.5898 42.7955 32.1875 43.4578 33.8652 43.7901L33.8652 47L39.0625 47L39.0625 46L39.0625 43.7901C40.7422 43.4568 42.3379 42.7915 43.7617 41.8324L45.2988 43.3875L46.002 44.0988L46.7051 43.3889L49.6855 40.3862L49.6855 40.386L47.4355 38.1287C48.3828 36.692 49.041 35.0837 49.3789 33.3932L52.5547 33.3932L52.5547 28.1551L49.3691 28.1551C49.0332 26.4646 48.373 24.8563 47.4277 23.4196ZM51.5547 29.1551L48.5488 29.1551L48.3887 28.3505Q48.1465 27.1302 47.6758 26.0045Q47.2344 24.9452 46.5918 23.9695L46.1465 23.2915L48.2598 21.1613L45.9922 18.8702L43.875 21.0034L43.1895 20.549Q42.166 19.8694 41.0508 19.4195Q39.998 18.9952 38.8633 18.7752L38.0527 18.6182L38.0527 15.5571L34.8477 15.5571L34.8477 18.6103L34.0469 18.7733Q32.9102 19.0048 31.8574 19.4371Q30.7383 19.8964 29.7129 20.5824L29.0273 21.0406L26.9082 18.9055L24.6406 21.1965L26.7656 23.3373L26.3164 24.016Q25.6758 24.9822 25.2363 26.0324Q24.7695 27.1481 24.5293 28.3586L24.3691 29.1639L21.3633 29.1639L21.3633 32.402L24.3691 32.402L24.5293 33.2067Q24.7715 34.4269 25.2422 35.5526Q25.6836 36.6119 26.3262 37.5875L26.7734 38.2656L24.6504 40.4038L26.918 42.6878L29.0371 40.5512L29.7227 41.0105Q30.748 41.6973 31.8652 42.1536Q32.9199 42.5837 34.0586 42.8091L34.8652 42.9687L34.8652 46L38.0625 46L38.0625 42.9691L38.8672 42.8092Q40.0059 42.5833 41.0605 42.1514Q42.1777 41.6932 43.2012 41.0032L43.8887 40.5398L46.002 42.6776L48.2754 40.3876L46.1543 38.2581L46.6016 37.5787Q47.2441 36.603 47.6855 35.5436Q48.1543 34.418 48.3984 33.1978L48.5586 32.3932L51.5547 32.3932L51.5547 29.1551ZM35.7734 37.9281Q36.7969 38.0298 37.8535 37.8199Q38.8945 37.613 39.793 37.1376Q40.7246 36.6446 41.5039 35.8627Q41.9902 35.3736 42.3691 34.8114Q42.7734 34.2131 43.0527 33.5322Q43.3223 32.8807 43.459 32.2025Q43.5977 31.5067 43.5977 30.783Q43.5977 30.0592 43.459 29.3634Q43.3223 28.6852 43.0527 28.0337Q42.7734 27.3528 42.3691 26.7546Q41.9902 26.1924 41.5039 25.7032Q40.7246 24.9214 39.793 24.4283Q38.8945 23.9529 37.8535 23.746Q36.7969 23.5361 35.7734 23.6378Q34.7383 23.7404 33.7363 24.16Q32.7617 24.5685 31.9766 25.21Q31.1562 25.8799 30.5449 26.804Q29.9531 27.6964 29.6543 28.6777Q29.3477 29.6836 29.3477 30.783Q29.3477 31.8823 29.6543 32.8882Q29.9531 33.8696 30.5449 34.7619Q31.1562 35.686 31.9766 36.356Q32.7617 36.9975 33.7363 37.4059Q34.7383 37.8256 35.7734 37.9281ZM40.7949 35.1569C39.9375 36.0176 38.8457 36.603 37.6582 36.8391C36.4707 37.0752 35.2402 36.9515 34.123 36.4835C33.0059 36.0156 32.0508 35.2244 31.3789 34.2098C30.707 33.1952 30.3477 32.0027 30.3477 30.783C30.3477 29.5632 30.707 28.3707 31.3789 27.3561C32.0508 26.3416 33.0059 25.5504 34.123 25.0824C35.2402 24.6144 36.4707 24.4907 37.6582 24.7269C38.8457 24.963 39.9375 25.5483 40.7949 26.4091C41.3652 26.9826 41.8203 27.6642 42.1289 28.4148C42.4375 29.1654 42.5977 29.9702 42.5977 30.783C42.5977 31.5958 42.4375 32.4005 42.1289 33.1511C41.8203 33.9017 41.3652 34.5834 40.7949 35.1569Z" fill="#171717" fill-opacity="1.000000" fill-rule="evenodd"/>
	<path id="Vector" d="M50.1113 8.27515L50.1113 9.88544L51.1113 9.04681L55.2207 5.59955L56 4.94714L55.2227 4.29401L51.1113 0.840088L50.1113 0L50.1113 2.61023L36.9766 2.61023L36.9766 7.27515L37.9766 7.27515L49.1113 7.27515L50.1113 7.27515L50.1113 8.27515ZM37.9766 6.27515L51.1113 6.27515L51.1113 7.74176L54.4434 4.94641L51.1113 2.14612L51.1113 3.61023L37.9766 3.61023L37.9766 6.27515Z" fill="#171717" fill-opacity="1.000000" fill-rule="evenodd"/>
</svg>
