<svg width="16.000000" height="19.000000" viewBox="0 0 16 19" fill="none" xmlns="http://www.w3.org/2000/svg" xmlns:xlink="http://www.w3.org/1999/xlink">
	<desc>
			Created with Pixso.
	</desc>
	<defs/>
	<path id="Vector" d="M12.4863 3.87891C12.5605 3.84485 12.5762 3.28564 12.5508 3.23279C12.5254 3.17993 12.3984 3.14868 12.3477 3.10095C12.3086 3.06458 11.3027 1.78223 11.291 1.68994C11.2773 1.59766 11.2305 1.25525 11.2012 1.16235C11.1855 1.10938 10.959 0.977661 10.959 0.911743C10.959 0.845825 11.2402 0.305176 11.3027 0.239258C11.3672 0.17334 10.9727 0.344604 10.8965 0.42395C10.8203 0.503174 10.998 0.0941162 11.0488 0.0150146C11.0996 -0.064209 10.5898 0.17334 10.3359 0.634766C9.33594 0.486816 7.54102 1.35693 7.48438 3.52307C7.57031 3.21143 7.64258 3.03357 7.78906 2.87695C7.79688 3.72729 7.87891 4.0769 7.83984 4.6571C7.80273 5.2373 7.58594 5.65918 7.23047 5.87024C7.54102 5.84363 7.89844 5.75818 8.12109 5.31628C8.10742 5.91602 7.91016 7.12256 7.20117 7.94031C6.49219 8.75793 5.41016 9.12708 4.90039 9.90527C4.39062 10.6835 4.52539 11.0724 4.53125 11.316C3.45508 11.7186 2.73633 12.8066 3.0293 14.4543C3.06445 14.1552 3.05469 14.0066 3.16992 13.7687C3.21289 14.3494 3.75391 14.9556 3.81836 15.496C3.88281 16.0365 3.73438 16.6699 3.47461 16.9729C3.6582 16.9008 3.82422 16.6436 3.9082 16.4323C3.92578 16.7814 3.31445 18.7101 0.136719 17.9166C-0.00585938 17.8739 -0.0722656 18.0349 0.111328 18.1234C3.26562 19.6442 4.69922 17.665 4.84961 16.577C4.87305 16.8917 4.84961 17.1641 4.74805 17.553C5.10938 16.9658 5.32031 16.3267 5.23047 15.5089C5.14258 14.6914 4.30273 13.7155 4.25 12.9904C4.19922 12.2651 4.44141 11.8959 4.67188 11.7904C4.91992 12.9244 6.16797 13.2611 6.17969 13.4984C6.19141 13.7358 5.80469 14.4541 5.86719 14.7971C5.93164 15.1398 6.65625 15.6934 7.10156 16.3661C7.54883 17.0385 7.85352 17.6849 7.89844 17.8513C7.92188 17.9384 7.96094 18.0872 7.87695 18.1555C7.76172 18.2484 7.7168 18.7361 7.79688 18.8782C7.89258 19.0498 8.92188 19.0179 9.08789 18.9183C9.25391 18.8187 8.88477 17.9482 8.52734 17.8823C8.17188 17.8167 8.54102 17.7109 8.49023 17.632C8.43945 17.5527 7.08984 15.2322 7.28125 14.4408C7.52148 15.2322 8.12109 15.6012 8.70703 16.2605C9.29102 16.9197 9.52148 17.2838 9.58789 17.4695C9.62305 17.566 9.5957 17.6868 9.5332 17.7767C9.45117 17.8956 9.4043 18.3815 9.4707 18.4623C9.56641 18.5811 10.6152 18.5942 10.7168 18.4492C10.8184 18.3041 10.4473 17.6322 10.209 17.5394C10.0898 17.4933 10.043 17.4209 10.1309 17.3547C10.1953 17.308 8.20898 15.1263 8.375 14.2427C8.48828 13.6383 9.67383 12.3507 8.89648 10.7484C9.80664 9.99011 10.7812 9.60144 11.4805 8.75732C12.1816 7.91333 12.8184 6.68701 13.0215 6.68701C13.2246 6.68701 13.9629 8.177 13.9629 8.34851C13.9629 8.52014 13.6191 8.6781 13.6445 8.79688C13.6699 8.91565 14.2812 9.75952 14.3828 9.75952C14.4863 9.75952 14.7266 9.00781 14.625 8.7572C14.5234 8.50659 14.6113 8.41443 14.6504 8.3219C14.6895 8.22961 14.2949 7.86047 14.002 7.28027C13.709 6.70007 13.543 5.88257 13.1738 5.84302C12.8047 5.80359 12.6855 6.07727 12.4746 6.15955C12.4531 5.71045 12.6133 4.92017 12.793 4.854C12.9707 4.78809 14.5273 5.474 14.6523 5.67175C14.7773 5.86951 14.5781 6.26501 14.6523 6.37061C14.7266 6.47607 15.8984 6.41016 15.9883 6.26526C16.0762 6.12024 15.6582 5.49915 15.5352 5.43823C15.3789 5.36182 15.377 5.22351 15.2871 5.17078C15.1992 5.11816 14.6895 5.03894 14.1172 4.8147C13.543 4.59058 13.0547 4.18469 12.5879 4.27405C12.2109 4.34619 12.0566 5.07373 11.6855 5.52673C11.1406 4.69421 9.89453 3.94263 9.82617 3.03455C10.043 3.08716 10.2773 3.06946 10.3984 3.02148C10.6875 3.30981 11.3945 3.46301 11.5703 3.53577C11.5938 3.65588 11.6621 3.83691 11.7227 3.87866C11.8086 3.93835 12.373 3.93152 12.4863 3.87891Z" fill="#FECA30" fill-opacity="1.000000" fill-rule="nonzero"/>
</svg>
