<svg width="18.000000" height="18.000000" viewBox="0 0 18 18" fill="none" xmlns="http://www.w3.org/2000/svg" xmlns:xlink="http://www.w3.org/1999/xlink">
	<desc>
			Created with Pixso.
	</desc>
	<defs/>
	<path id="Vector" d="M0.910156 7.17432C3.00781 11.7471 6.73828 15.3715 11.3672 17.3375L12.1094 17.6689C12.9336 18.0358 13.8594 18.1 14.7246 17.8505C15.5918 17.601 16.3418 17.0537 16.8438 16.3051L17.8145 14.8569C17.9668 14.6298 18.0293 14.3539 17.9883 14.0836C17.9473 13.8134 17.8066 13.5684 17.5938 13.3967L14.3008 10.7389C14.1855 10.6464 14.0547 10.578 13.9121 10.5378C13.7695 10.4978 13.6211 10.4867 13.4766 10.5054C13.3301 10.524 13.1895 10.5721 13.0625 10.6466C12.9355 10.7212 12.8242 10.8206 12.7363 10.939L11.7168 12.3138C9.10352 11.0215 6.98633 8.90308 5.69531 6.28613L7.06836 5.26672C7.18555 5.17896 7.28516 5.06824 7.35938 4.94104C7.43359 4.81384 7.48242 4.67297 7.5 4.52673C7.51953 4.38062 7.50781 4.23218 7.46875 4.09033C7.42773 3.94849 7.35938 3.81628 7.26758 3.70154L4.61133 0.407104C4.43945 0.194336 4.19531 0.0535889 3.92578 0.0124512C3.6543 -0.0286865 3.37891 0.032959 3.15234 0.185059L1.69531 1.16296C0.941406 1.66797 0.392578 2.42407 0.146484 3.29639C-0.101562 4.1687 -0.03125 5.10071 0.34375 5.92627L0.910156 7.17432Z" fill="#FECA30" fill-opacity="1.000000" fill-rule="nonzero"/>
</svg>
