<svg width="18.400391" height="15.613892" viewBox="0 0 18.4004 15.6139" fill="none" xmlns="http://www.w3.org/2000/svg" xmlns:xlink="http://www.w3.org/1999/xlink">
	<desc>
			Created with Pixso.
	</desc>
	<defs/>
	<path id="Vector" d="M1.12891 6.79993C1.12891 6.79993 9.26562 3.37231 12.0879 2.16541C13.1699 1.68274 16.8398 0.137817 16.8398 0.137817C16.8398 0.137817 18.5332 -0.537964 18.3926 1.10339C18.3438 1.7793 17.9688 4.14465 17.5918 6.70337C17.0273 10.324 16.416 14.2826 16.416 14.2826C16.416 14.2826 16.3223 15.3929 15.5215 15.5861C14.7227 15.7792 13.4062 14.9103 13.1699 14.717C12.9824 14.5723 9.64258 12.3999 8.41992 11.3378C8.08984 11.0481 7.71289 10.4689 8.4668 9.79297C10.1602 8.19983 12.1816 6.22058 13.4062 4.96545C13.9707 4.38611 14.5352 3.03442 12.1816 4.67578C8.8418 7.04126 5.55078 9.26196 5.55078 9.26196C5.55078 9.26196 4.79688 9.74463 3.38672 9.31018C1.97461 8.87573 0.328125 8.29639 0.328125 8.29639C0.328125 8.29639 -0.800781 7.57227 1.12891 6.79993Z" fill="#171717" fill-opacity="1.000000" fill-rule="nonzero"/>
</svg>
