<svg width="19.984375" height="20.017822" viewBox="0 0 19.9844 20.0178" fill="none" xmlns="http://www.w3.org/2000/svg" xmlns:xlink="http://www.w3.org/1999/xlink">
	<desc>
			Created with Pixso.
	</desc>
	<defs/>
	<path id="Vector" d="M0 20.0178L1.43555 14.6823C0.277344 12.6039 -0.0898438 10.1785 0.398438 7.8512C0.888672 5.52393 2.20312 3.45093 4.09961 2.01257C5.99609 0.574219 8.34961 -0.133057 10.7266 0.0206299C13.1035 0.174316 15.3438 1.17859 17.0391 2.84912C18.7344 4.51965 19.7695 6.74451 19.9531 9.11536C20.1387 11.4862 19.4609 13.844 18.0449 15.756C16.6289 17.6681 14.5703 19.0062 12.2441 19.5249C9.91992 20.0436 7.48633 19.7079 5.38867 18.5796L0 20.0178ZM5.65039 16.583L5.98242 16.7804C7.50195 17.6791 9.27539 18.0509 11.0273 17.8381C12.7793 17.6252 14.4121 16.8396 15.6719 15.6036C16.9297 14.3677 17.7441 12.7507 17.9863 11.0049C18.2285 9.25903 17.8848 7.4823 17.0098 5.95154C16.1348 4.42078 14.7773 3.22205 13.1484 2.54211C11.5195 1.86218 9.71094 1.73926 8.00391 2.19238C6.29883 2.64563 4.79102 3.64941 3.71484 5.04761C2.64062 6.44568 2.05859 8.15955 2.0625 9.92212C2.06055 11.3834 2.46484 12.8165 3.23242 14.0619L3.44141 14.4059L2.63867 17.3839L5.65039 16.583Z" fill="#171717" fill-opacity="1.000000" fill-rule="nonzero"/>
	<path id="Vector" d="M13.7402 11.2921C13.5449 11.1349 13.3164 11.024 13.0723 10.9684C12.8262 10.9127 12.5723 10.9135 12.3281 10.9707C11.9609 11.1229 11.7227 11.6982 11.4863 11.9858C11.4355 12.0548 11.3633 12.1031 11.2793 12.1219C11.1953 12.1406 11.1094 12.1283 11.0352 12.0874C9.68945 11.5618 8.5625 10.5978 7.83594 9.35193C7.77539 9.27429 7.74609 9.17554 7.75586 9.07666C7.76367 8.97778 7.8125 8.88635 7.88672 8.82178C8.15234 8.5603 8.3457 8.23633 8.45312 7.87988C8.47656 7.48682 8.38672 7.09521 8.19336 6.75195C8.04297 6.27051 7.75977 5.84192 7.37305 5.51672C7.17383 5.42749 6.95508 5.39746 6.73828 5.43054C6.52344 5.46362 6.32227 5.55811 6.1582 5.70288C5.87695 5.94641 5.65234 6.25024 5.50195 6.5918C5.35156 6.93347 5.28125 7.30432 5.29492 7.67688C5.29492 7.88611 5.32227 8.09448 5.37305 8.29724C5.50391 8.78455 5.70703 9.25 5.97266 9.67908C6.16406 10.0078 6.37305 10.3259 6.59961 10.6323C7.33398 11.6384 8.25586 12.4928 9.31641 13.1477C9.84961 13.4806 10.418 13.7512 11.0117 13.9542C11.6289 14.2335 12.3105 14.3407 12.9824 14.2645C13.3672 14.2065 13.7305 14.0553 14.041 13.8242C14.3535 13.5931 14.6035 13.2891 14.7695 12.9391C14.8652 12.7275 14.8965 12.4912 14.8535 12.2622C14.752 11.7942 14.125 11.5178 13.7402 11.2921Z" fill="#171717" fill-opacity="1.000000" fill-rule="evenodd"/>
</svg>
